{"glyphs":{"0":{"ha":699,"x_min":0,"x_max":0,"o":"m 292 3 b 633 603 493 -37 671 274 b 146 799 593 976 311 1088 b 292 3 -19 508 65 47 z m 415 582 b 371 225 453 451 428 254 b 271 454 318 199 271 306 b 415 582 271 669 367 754 z "},"1":{"ha":469,"x_min":0,"x_max":0,"o":"m 156 15 b 263 -3 154 4 158 4 b 404 -8 365 -8 397 -10 b 399 81 410 -6 410 -1 b 386 181 393 119 388 165 b 356 926 383 206 356 893 b 281 951 356 944 356 944 b 207 953 219 956 213 956 b 46 801 182 936 46 808 b 81 694 46 794 57 761 b 140 738 88 676 107 692 b 199 821 192 813 199 822 b 178 421 200 821 190 640 b 156 15 165 201 156 19 z "},"2":{"ha":743,"x_min":0,"x_max":0,"o":"m 658 -6 b 678 210 665 -1 683 203 b 540 204 674 215 671 215 b 426 194 479 199 428 194 b 442 214 426 196 433 204 b 478 258 449 224 465 244 b 618 464 549 347 585 400 b 110 919 810 838 529 1088 b 81 792 42 892 44 906 b 185 640 149 576 135 599 b 399 733 279 719 358 754 b 106 196 492 685 315 361 b 61 143 57 158 60 161 b 65 64 61 133 64 97 b 72 -3 68 25 71 -1 b 182 -7 75 -6 94 -7 b 658 -6 532 -10 654 -10 z "},"3":{"ha":589,"x_min":0,"x_max":0,"o":"m 411 444 b 406 464 401 453 400 458 b 417 824 500 538 504 704 b 81 963 338 929 215 979 b 68 857 53 960 54 968 b 126 754 81 743 75 754 b 251 576 256 753 304 683 b 104 485 225 524 179 494 b 75 439 76 481 76 482 b 108 389 74 393 74 393 b 236 229 250 372 314 292 b 117 179 210 207 146 181 b 99 86 100 179 103 186 b 118 -15 94 -18 93 -14 b 142 -18 126 -17 138 -18 b 293 -10 178 -22 250 -18 b 411 444 554 43 615 274 z "},"4":{"ha":639,"x_min":0,"x_max":0,"o":"m 538 956 b 394 878 533 956 403 885 b 376 715 389 874 388 861 b 363 557 369 628 364 557 b 304 554 363 556 336 556 l 246 553 l 247 578 b 256 956 250 664 257 954 b 172 958 256 957 219 958 b 83 943 113 958 83 953 b 69 674 83 939 76 818 b 58 407 57 438 56 410 b 206 385 61 404 99 399 b 347 368 283 376 347 368 b 333 183 349 367 342 285 b 319 -4 325 82 319 -1 b 375 -7 321 -6 335 -7 b 493 -10 404 -7 458 -8 b 561 -11 529 -10 560 -11 b 560 496 578 -14 578 -62 b 538 956 543 961 544 956 z "},"5":{"ha":629,"x_min":0,"x_max":0,"o":"m 275 664 b 247 674 260 668 247 674 b 242 794 246 674 240 794 b 369 800 242 796 300 799 b 497 806 439 803 496 806 b 501 950 503 811 507 946 b 65 956 496 953 68 960 b 68 501 63 950 64 507 b 100 497 71 499 79 497 b 372 310 233 490 364 400 b 129 201 378 250 276 206 b 71 196 86 200 75 200 b 78 -1 64 190 71 10 b 311 28 88 -17 231 0 b 275 664 678 149 657 535 z "},"6":{"ha":854,"x_min":0,"x_max":0,"o":"m 435 671 b 433 683 407 667 407 667 b 640 765 488 718 581 756 b 674 772 656 768 671 772 b 521 956 693 781 547 956 b 233 788 450 956 310 874 b 60 253 99 635 38 446 b 331 -10 78 103 179 4 l 331 -10 b 396 -10 351 -11 374 -11 b 756 554 694 15 900 338 b 435 671 694 646 560 694 z m 371 257 b 253 453 224 206 144 338 b 503 481 331 536 454 550 b 371 257 550 411 481 294 z "},"7":{"ha":667,"x_min":0,"x_max":0,"o":"m 529 961 b 50 949 522 964 56 951 b 58 854 47 946 49 933 b 90 761 69 761 71 758 b 413 788 129 765 411 788 b 138 176 414 786 360 665 b 65 4 65 17 61 8 b 79 3 67 3 72 3 b 194 11 85 4 138 7 b 303 21 294 17 300 17 b 422 306 304 24 358 151 b 583 688 488 458 558 631 b 625 799 614 763 626 794 b 529 961 624 810 536 957 z "},"8":{"ha":656,"x_min":0,"x_max":0,"o":"m 478 433 b 522 890 611 544 633 778 b 65 564 340 1076 21 847 b 193 379 78 485 139 396 b 182 363 200 376 199 374 b 254 -18 -4 232 40 -1 b 478 414 533 -42 719 319 b 478 433 463 421 463 421 z m 343 154 b 297 304 261 115 225 236 b 406 260 347 350 406 326 b 343 154 406 214 381 172 z m 392 531 b 268 676 301 506 229 593 b 468 664 313 769 446 761 b 392 531 481 608 444 546 z "},"9":{"ha":854,"x_min":0,"x_max":0,"o":"m 117 763 b 418 282 -53 514 128 226 b 419 269 446 288 446 286 b 214 188 365 235 272 197 b 178 171 175 181 176 182 b 247 79 179 164 196 142 b 428 25 329 -19 333 -22 b 793 700 682 151 825 418 b 117 763 757 1019 321 1060 z m 481 432 b 353 588 369 410 303 490 b 643 651 415 711 597 750 b 481 432 679 574 592 454 z "},"\u0000":{"ha":0,"x_min":0,"x_max":0,"o":""},"\r":{"ha":0,"x_min":0,"x_max":0,"o":""}," ":{"ha":446,"x_min":0,"x_max":0,"o":""},"\n":{"ha":0,"x_min":0,"x_max":0,"o":""},"!":{"ha":333,"x_min":0,"x_max":0,"o":"m 217 146 b 83 128 213 147 88 132 b 90 -18 81 126 86 -14 b 99 -19 92 -19 96 -21 b 151 -10 101 -19 125 -15 b 214 69 210 3 203 -6 b 217 146 222 136 224 143 z m 269 940 b 67 942 265 946 72 947 b 81 181 64 938 76 185 b 158 181 83 176 83 176 b 232 203 233 186 231 185 b 269 940 239 257 272 938 z "},"\"":{"ha":501,"x_min":0,"x_max":0,"o":"m 446 919 b 372 956 436 958 429 963 b 269 868 272 946 269 944 b 324 794 268 824 286 799 b 346 792 335 794 346 792 b 335 746 349 789 342 760 b 335 721 329 732 329 725 b 376 739 340 718 350 722 b 446 919 449 786 468 835 z m 149 953 b 46 865 50 943 47 942 b 100 793 46 821 64 796 b 124 789 113 792 122 790 b 111 740 125 788 118 756 b 110 722 107 728 107 726 b 153 736 115 714 122 717 b 222 918 226 785 244 832 b 149 953 213 957 207 960 z "},"“":{"ha":501,"x_min":0,"x_max":0,"o":"m 446 919 b 372 956 436 958 429 963 b 269 868 272 946 269 944 b 324 794 268 824 286 799 b 346 792 335 794 346 792 b 335 746 349 789 342 760 b 335 721 329 732 329 725 b 376 739 340 718 350 722 b 446 919 449 786 468 835 z m 149 953 b 46 865 50 943 47 942 b 100 793 46 821 64 796 b 124 789 113 792 122 790 b 111 740 125 788 118 756 b 110 722 107 728 107 726 b 153 736 115 714 122 717 b 222 918 226 785 244 832 b 149 953 213 957 207 960 z "},"”":{"ha":501,"x_min":0,"x_max":0,"o":"m 446 919 b 372 956 436 958 429 963 b 269 868 272 946 269 944 b 324 794 268 824 286 799 b 346 792 335 794 346 792 b 335 746 349 789 342 760 b 335 721 329 732 329 725 b 376 739 340 718 350 722 b 446 919 449 786 468 835 z m 149 953 b 46 865 50 943 47 942 b 100 793 46 821 64 796 b 124 789 113 792 122 790 b 111 740 125 788 118 756 b 110 722 107 728 107 726 b 153 736 115 714 122 717 b 222 918 226 785 244 832 b 149 953 213 957 207 960 z "},"#":{"ha":803,"x_min":0,"x_max":0,"o":"m 729 415 b 635 417 728 415 685 417 l 544 417 l 553 446 b 576 518 572 510 575 518 b 640 519 578 518 606 519 b 704 529 682 521 703 524 b 729 589 704 533 717 560 b 683 650 761 654 765 649 b 615 653 646 651 615 653 b 639 738 615 654 625 692 b 647 829 667 831 667 829 b 522 821 597 829 525 824 b 496 736 521 819 508 781 l 472 654 l 433 654 b 394 657 406 654 394 656 b 408 707 394 658 400 682 b 419 769 422 757 425 767 b 256 763 411 771 258 764 b 239 710 254 760 246 736 l 226 660 l 172 660 b 128 582 103 660 108 669 b 139 526 133 557 139 532 b 164 515 139 519 149 517 b 188 508 181 515 189 513 b 174 457 186 504 181 481 l 163 413 l 108 411 l 54 410 l 53 340 l 53 269 l 89 269 b 125 265 124 269 126 269 b 96 139 111 221 93 143 b 240 142 100 132 233 135 b 263 208 243 144 253 175 b 282 272 272 243 281 271 b 358 274 286 275 360 276 b 326 140 340 228 321 144 b 464 149 332 138 460 143 b 486 215 465 150 475 181 l 504 279 l 542 281 b 615 282 563 282 596 282 b 682 289 661 282 681 285 b 707 350 683 292 694 319 b 729 415 732 408 733 413 z m 415 464 l 400 415 l 363 414 b 324 415 340 414 324 414 b 351 511 324 418 349 504 b 429 515 354 518 431 522 b 415 464 429 515 424 492 z "},"$":{"ha":606,"x_min":0,"x_max":0,"o":"m 433 514 b 354 625 357 557 336 586 b 472 682 369 660 411 679 b 513 731 511 683 507 679 b 518 785 514 747 517 772 b 507 826 522 821 521 825 b 378 826 489 828 388 828 b 364 913 367 824 367 825 b 285 967 361 979 371 972 b 206 922 196 961 203 965 b 208 836 207 906 208 867 l 208 779 l 194 772 b 239 385 -8 668 14 478 b 281 326 286 365 299 349 b 122 296 260 299 169 281 b 101 278 103 301 103 301 b 99 249 100 267 99 254 b 92 150 93 208 89 151 b 186 139 96 146 146 140 l 229 139 l 228 126 b 224 13 224 85 221 17 b 371 13 228 7 365 7 b 374 93 374 15 374 31 b 376 171 372 157 374 171 b 449 206 382 171 435 197 b 433 514 590 301 583 432 z "},"%":{"ha":878,"x_min":0,"x_max":0,"o":"m 614 456 b 640 160 472 386 490 188 b 833 324 736 143 833 226 b 614 456 833 438 719 507 z m 678 260 b 626 350 604 232 568 296 b 740 368 665 386 715 393 b 678 260 769 339 735 281 z m 704 954 b 625 943 703 963 694 961 b 521 897 518 915 532 921 b 149 36 193 147 147 40 b 240 17 150 33 178 28 b 346 6 343 -1 343 -1 b 428 218 347 7 385 103 b 606 688 471 332 551 543 b 704 954 661 832 706 951 z m 363 642 b 143 772 363 754 247 822 b 168 478 1 704 18 504 b 363 642 265 460 363 542 z m 131 590 b 249 697 103 638 189 714 b 207 576 306 682 278 603 b 131 590 175 565 142 571 z "},"&":{"ha":671,"x_min":0,"x_max":0,"o":"m 564 407 b 486 421 488 435 493 435 b 254 218 457 360 321 242 b 472 558 94 163 296 476 b 483 635 497 569 496 563 b 464 682 476 676 474 685 b 358 667 419 667 379 661 b 463 747 296 683 371 742 l 490 750 l 489 778 b 475 893 488 854 483 888 b 364 886 463 903 407 900 b 351 889 353 883 351 883 b 343 965 351 908 346 963 b 296 969 342 968 326 968 l 253 969 l 246 901 b 238 829 242 864 239 832 b 217 810 238 828 228 818 b 247 547 24 667 44 485 b 226 521 250 549 240 536 b 74 100 86 369 25 200 b 360 81 114 18 233 10 b 367 43 361 82 364 65 b 408 -6 372 -4 369 -1 b 464 78 471 -12 465 -21 l 463 154 l 486 175 b 622 346 536 221 589 288 b 564 407 642 381 646 378 z "},"'":{"ha":278,"x_min":0,"x_max":0,"o":"m 224 915 b 149 951 214 954 207 957 b 46 864 50 942 47 939 b 100 790 44 796 44 796 b 124 786 113 789 124 786 b 113 740 126 783 118 754 b 110 719 107 726 107 725 b 153 733 115 711 122 713 b 224 915 226 782 244 829 z "},"‘":{"ha":278,"x_min":0,"x_max":0,"o":"m 224 915 b 149 951 214 954 207 957 b 46 864 50 942 47 939 b 100 790 44 796 44 796 b 124 786 113 789 124 786 b 113 740 126 783 118 754 b 110 719 107 726 107 725 b 153 733 115 711 122 713 b 224 915 226 782 244 829 z "},"’":{"ha":278,"x_min":0,"x_max":0,"o":"m 224 915 b 149 951 214 954 207 957 b 46 864 50 942 47 939 b 100 790 44 796 44 796 b 124 786 113 789 124 786 b 113 740 126 783 118 754 b 110 719 107 726 107 725 b 153 733 115 711 122 713 b 224 915 226 782 244 829 z "},"(":{"ha":453,"x_min":0,"x_max":0,"o":"m 408 60 b 368 915 189 222 168 681 b 383 946 383 933 389 942 b 192 940 381 947 208 943 b 89 708 171 938 114 808 b 282 -17 11 396 94 83 b 361 7 297 -24 289 -26 b 408 60 438 42 436 39 z "},")":{"ha":453,"x_min":0,"x_max":0,"o":"m 185 929 b 92 915 157 947 161 947 b 43 861 14 879 17 882 b 83 7 263 699 285 240 b 69 -25 68 -11 64 -19 b 100 -25 69 -25 83 -25 b 194 -22 117 -24 158 -22 b 292 22 279 -19 268 -25 b 185 929 461 367 413 786 z "},"*":{"ha":653,"x_min":0,"x_max":0,"o":"m 601 469 b 504 539 599 549 608 542 b 426 542 439 539 425 539 b 465 604 428 543 444 572 b 500 682 506 671 507 674 b 396 738 496 688 407 735 b 340 658 386 739 379 729 b 304 593 321 624 304 593 b 267 658 303 593 288 624 b 160 713 217 751 226 747 b 146 601 92 676 93 688 b 183 536 168 565 185 536 b 117 533 182 533 174 533 b 51 481 51 532 57 538 b 60 422 49 433 49 425 b 144 418 72 419 86 419 b 206 414 178 417 206 415 b 179 364 206 413 193 390 b 169 239 119 256 121 271 l 169 239 b 276 297 224 201 214 196 b 304 340 290 321 303 340 b 332 297 306 340 318 321 b 439 239 394 196 385 201 b 431 361 488 271 488 257 b 406 408 417 386 406 407 b 440 408 406 408 421 408 b 601 469 619 400 604 393 z "},"+":{"ha":456,"x_min":0,"x_max":0,"o":"m 338 592 l 275 590 l 275 600 b 279 671 275 607 278 639 b 200 731 285 747 294 740 b 131 650 119 722 126 731 b 94 583 135 576 139 585 b 49 533 49 582 53 586 b 99 479 46 475 42 479 b 140 469 126 479 140 476 b 153 317 140 425 149 319 b 197 306 156 314 171 310 b 240 296 218 301 238 297 l 240 296 b 260 390 253 289 253 293 b 268 481 264 444 267 479 b 333 483 271 481 299 482 b 404 532 407 485 400 481 b 408 575 406 550 408 571 b 338 592 411 593 410 593 z "},",":{"ha":278,"x_min":0,"x_max":0,"o":"m 222 193 b 149 229 213 232 207 235 b 46 142 50 219 47 217 b 100 68 46 96 64 72 b 124 64 113 67 122 65 b 113 18 125 63 118 33 b 113 -6 107 6 107 -1 b 153 11 117 -10 128 -6 b 222 193 226 60 244 108 z "},"-":{"ha":619,"x_min":0,"x_max":0,"o":"m 576 551 l 575 611 l 554 613 b 49 592 513 614 51 596 b 49 578 49 590 47 583 b 46 514 49 571 49 543 b 43 457 43 485 43 460 l 43 457 b 572 489 46 450 564 482 b 576 551 576 492 576 499 z "},".":{"ha":272,"x_min":0,"x_max":0,"o":"m 224 196 b 76 200 219 201 79 204 b 46 36 74 196 56 97 b 119 3 42 7 38 8 b 192 -3 157 0 189 -3 b 215 99 203 -4 203 0 b 224 196 225 176 226 193 z "},"/":{"ha":760,"x_min":0,"x_max":0,"o":"m 611 1097 b 507 1051 504 1069 518 1075 b 69 36 179 301 68 40 b 161 17 71 33 99 28 b 267 6 263 -1 264 -1 b 349 218 268 7 306 103 b 526 688 392 332 472 543 b 690 1108 582 832 692 1106 b 611 1097 689 1117 681 1115 z "},":":{"ha":274,"x_min":0,"x_max":0,"o":"m 161 821 b 85 732 88 804 96 814 b 74 642 72 650 72 647 b 78 638 75 640 76 638 b 203 651 93 638 201 649 b 213 728 204 651 208 688 b 221 815 217 769 221 810 b 161 821 224 835 222 835 z m 146 549 b 88 543 115 546 89 543 b 50 385 86 540 50 392 b 53 378 50 382 51 379 b 68 375 56 375 60 375 b 125 381 74 376 100 378 b 194 463 186 383 178 375 b 208 538 201 501 208 535 b 146 549 211 551 208 553 z "},";":{"ha":293,"x_min":0,"x_max":0,"o":"m 111 664 b 169 665 124 665 149 665 b 222 732 217 665 213 660 b 236 817 228 764 233 803 b 224 847 243 846 242 850 b 167 840 217 846 192 843 b 117 833 140 839 118 835 b 85 667 107 825 78 675 b 111 664 88 664 92 663 z m 154 553 b 51 467 56 543 53 540 b 118 390 50 396 49 399 b 119 347 132 389 133 382 b 118 318 113 328 113 322 b 158 336 124 314 133 319 b 229 518 232 383 250 432 b 154 553 219 556 213 558 z "},"<":{"ha":506,"x_min":0,"x_max":0,"o":"m 290 497 b 357 596 290 499 321 543 b 456 742 453 733 456 736 b 314 868 456 747 328 861 b 175 682 303 874 317 893 b 72 529 136 624 90 556 b 53 451 33 472 33 472 b 186 311 60 444 121 381 b 335 151 296 196 326 163 b 414 151 339 147 338 147 b 444 171 449 154 453 156 b 290 497 439 178 290 494 z "},"=":{"ha":642,"x_min":0,"x_max":0,"o":"m 250 450 b 235 263 247 447 232 268 b 378 289 239 258 371 283 b 392 454 383 296 396 449 b 250 450 386 461 260 457 z m 601 639 b 47 642 599 646 53 649 b 39 513 42 636 35 521 b 600 517 42 504 590 508 b 601 639 604 519 606 628 z m 403 721 b 418 907 406 724 421 903 b 275 881 414 913 282 888 b 261 715 269 875 257 721 b 403 721 267 710 393 713 z "},">":{"ha":506,"x_min":0,"x_max":0,"o":"m 433 536 b 331 689 415 563 369 632 b 192 876 188 900 203 882 b 50 750 178 868 50 756 b 149 603 50 744 51 742 b 215 506 185 550 215 507 b 61 178 215 503 67 186 b 111 158 50 161 53 161 b 163 156 136 157 160 156 b 169 158 164 156 168 157 b 318 318 179 171 210 203 b 451 460 385 388 444 451 b 433 536 471 479 471 479 z "},"?":{"ha":640,"x_min":0,"x_max":0,"o":"m 244 136 b 181 133 233 135 204 133 b 135 126 140 132 139 132 b 131 -17 131 121 128 -3 b 267 26 135 -35 260 4 b 268 138 269 35 271 135 b 244 136 268 139 257 139 z m 596 778 b 71 792 583 1000 250 1010 b 168 683 38 749 28 760 l 204 664 l 211 678 b 351 693 246 751 351 764 b 293 628 351 669 340 656 b 206 565 239 594 226 586 b 121 308 142 500 118 428 b 144 190 122 224 128 193 b 174 185 150 190 163 188 b 213 178 186 182 203 178 b 263 231 274 169 274 171 b 361 457 240 349 267 411 b 596 778 510 528 601 654 z "},"@":{"ha":774,"x_min":0,"x_max":0,"o":"m 217 796 b 344 293 -58 667 26 332 b 364 292 349 293 357 292 l 375 292 l 367 314 b 333 358 349 363 350 361 b 122 569 208 344 94 458 b 550 549 179 793 560 774 b 492 456 547 492 511 435 b 476 522 486 461 485 468 b 208 529 442 747 235 753 b 219 429 203 482 208 432 b 299 438 282 415 301 418 b 329 457 297 453 294 451 b 365 464 339 458 354 461 b 389 439 386 469 383 472 b 697 461 413 286 618 301 b 217 796 815 697 489 924 z m 335 510 b 303 503 319 507 306 504 b 307 519 297 500 299 508 b 354 524 321 538 338 539 b 335 510 365 514 367 515 z "},"A":{"ha":969,"x_min":0,"x_max":0,"o":"m 365 940 b 56 85 124 856 -18 465 b 82 0 68 22 74 1 b 90 0 83 -1 88 -1 b 250 0 93 0 165 0 l 406 0 l 406 57 b 408 186 406 88 407 146 b 333 276 411 283 419 274 l 276 278 l 325 333 b 378 389 358 372 371 389 b 386 358 383 389 383 378 b 408 306 389 324 399 306 b 428 342 415 306 424 318 b 446 389 433 374 439 389 b 457 343 451 389 456 374 b 479 274 458 300 469 274 b 494 315 486 274 492 288 b 511 368 497 351 503 368 b 524 361 515 368 519 365 b 558 367 536 349 543 350 b 572 378 565 374 568 378 b 622 329 579 378 589 365 b 639 278 675 271 674 276 l 611 281 l 611 265 b 617 243 611 256 613 249 b 600 208 626 226 618 208 b 592 251 576 208 571 236 b 574 281 607 263 597 278 b 543 258 544 282 543 281 b 553 3 543 231 550 31 b 910 7 553 -1 906 3 b 917 13 911 8 914 11 b 935 215 924 19 935 139 b 463 957 936 628 714 957 b 365 940 431 957 399 951 z m 424 846 b 431 842 426 847 432 844 b 426 839 429 840 428 839 b 424 846 422 839 421 843 z m 440 761 l 463 786 l 476 772 b 500 747 483 765 494 754 l 511 735 l 499 736 b 483 731 488 739 488 738 b 476 726 479 722 479 722 b 447 725 471 742 458 740 b 439 703 444 719 440 710 l 438 690 l 436 704 b 424 732 436 718 432 726 b 440 761 418 735 418 735 z m 315 785 b 324 771 326 785 331 778 b 310 769 318 765 314 764 b 315 785 304 776 307 785 z m 594 765 b 604 761 596 767 604 764 b 594 760 604 757 596 756 b 594 765 593 761 593 764 z m 658 697 b 651 704 658 701 656 704 b 653 719 642 707 643 714 b 663 733 660 724 663 726 b 665 744 663 738 663 743 b 675 740 668 749 675 746 b 686 722 675 732 679 725 b 683 708 694 719 693 714 b 674 699 678 704 674 700 b 669 690 672 696 671 692 b 658 697 665 681 661 683 z m 224 718 b 229 728 221 722 224 728 b 233 722 232 728 233 726 b 224 718 233 717 228 714 z m 386 697 b 417 722 400 714 411 722 b 424 706 421 722 424 717 b 440 675 424 689 431 675 b 449 690 444 675 449 683 b 463 722 449 708 456 722 b 468 717 464 722 467 721 b 489 717 474 704 483 704 b 499 724 493 724 494 725 b 513 725 501 724 507 724 b 544 700 519 728 521 726 b 561 672 563 682 567 674 b 558 649 550 672 549 663 b 553 626 565 640 563 631 b 536 647 539 621 528 635 b 519 671 547 664 542 672 b 518 615 489 671 489 665 b 539 575 531 594 539 576 b 524 575 533 571 525 571 b 511 588 521 583 517 588 b 486 560 503 588 493 578 b 476 563 482 549 476 550 b 456 604 476 592 467 604 b 411 533 440 604 418 578 b 403 524 404 493 400 489 b 386 564 404 556 403 558 b 404 607 381 565 386 581 b 383 664 438 663 438 665 b 386 697 354 663 354 660 z m 225 550 b 201 526 215 547 204 536 b 188 535 196 510 188 515 b 183 550 188 544 188 549 b 183 567 168 554 168 560 b 197 583 192 571 194 574 b 213 583 204 601 215 603 b 225 564 210 574 214 569 b 225 550 236 560 236 554 z m 567 451 b 543 418 510 453 510 453 l 565 393 l 554 379 b 528 374 540 363 540 363 b 511 382 521 379 515 382 b 485 321 497 382 489 363 b 478 290 482 300 479 290 b 469 342 474 290 471 308 b 444 403 467 382 456 403 b 415 342 433 403 421 382 b 408 322 414 329 411 322 b 396 365 404 322 399 338 b 389 394 394 383 393 390 b 399 418 385 399 388 406 b 394 454 422 444 421 454 b 381 444 385 454 381 451 b 375 435 382 436 382 435 b 369 442 371 435 369 436 b 368 451 368 444 368 449 b 357 454 368 453 364 454 b 349 425 343 454 340 439 b 340 408 354 418 350 410 b 329 429 329 404 319 421 b 321 454 339 436 333 454 b 340 504 314 456 319 472 b 379 554 369 553 371 554 b 392 525 392 553 394 549 b 404 479 388 497 393 479 b 421 525 411 479 415 490 b 454 593 428 565 444 593 b 464 568 460 593 464 586 b 479 540 464 551 469 540 b 497 557 486 540 497 550 b 514 568 497 568 508 576 b 535 561 519 561 521 560 b 581 507 544 561 560 543 b 611 453 597 478 611 453 b 567 451 611 451 590 451 z m 653 533 b 650 536 650 532 649 533 b 656 538 650 542 656 542 b 653 533 656 536 654 533 z m 799 476 b 789 478 793 474 792 474 b 792 494 785 483 786 493 b 799 476 803 496 808 482 z m 707 414 b 692 401 703 411 696 406 b 676 404 678 385 674 385 b 672 421 678 415 676 417 b 669 433 667 424 665 433 b 682 450 674 433 682 444 b 697 456 682 458 692 461 b 700 444 699 453 700 447 b 710 429 700 436 701 433 b 707 414 718 425 717 417 z m 835 389 b 842 399 833 394 836 399 b 847 393 844 399 847 397 b 835 389 847 388 838 385 z m 222 322 b 218 326 221 322 218 324 b 222 329 218 328 221 329 b 226 326 225 329 226 328 b 222 322 226 324 225 322 z m 176 308 b 171 304 174 307 172 304 b 160 317 167 304 160 313 b 178 322 160 326 174 331 b 176 308 182 315 181 313 z "},"B":{"ha":768,"x_min":0,"x_max":0,"o":"m 596 503 l 581 511 l 596 524 b 414 950 775 650 668 901 b 81 957 358 961 89 967 b 63 13 76 954 60 53 b 182 -14 65 -14 56 -12 b 293 -15 243 -15 293 -15 b 457 -6 297 -19 421 -11 b 718 178 568 11 674 85 b 596 503 772 297 722 433 z m 546 757 b 550 753 547 757 549 754 b 546 747 550 749 549 747 b 540 753 542 747 540 749 b 546 757 542 754 543 757 z m 515 800 b 517 783 521 794 521 789 b 500 788 513 779 506 781 b 515 800 493 799 504 808 z m 490 239 b 485 231 483 239 481 236 b 474 213 490 222 488 217 b 463 200 471 213 465 207 b 457 197 457 189 457 189 b 425 210 457 224 439 231 b 417 211 422 206 419 206 b 422 229 415 219 415 221 b 414 240 426 235 424 239 l 399 243 l 413 268 b 431 285 428 296 431 300 b 451 279 431 264 444 260 b 458 289 453 286 456 289 b 468 293 461 289 465 292 b 488 269 474 297 475 297 b 490 239 506 236 504 239 z m 406 476 b 417 488 406 482 411 488 b 424 471 424 488 428 475 b 406 476 418 464 406 468 z m 451 340 b 463 304 458 340 468 307 b 449 299 458 303 451 300 b 442 299 443 296 442 296 b 438 304 442 300 440 303 b 451 340 435 307 447 340 z m 481 460 b 485 456 483 460 485 457 b 479 453 485 451 482 450 b 481 460 475 456 476 460 z m 292 653 b 292 639 296 651 294 643 b 276 644 285 633 276 636 b 292 653 276 650 288 656 z m 203 785 b 214 806 210 788 214 794 b 229 797 214 818 225 813 b 236 790 231 794 233 790 b 235 776 243 789 243 779 b 224 763 232 774 226 768 l 224 763 b 214 753 221 757 217 753 b 210 764 211 753 210 754 b 203 771 210 767 207 769 b 203 785 194 772 194 779 z m 157 579 b 144 585 150 565 142 569 b 140 596 146 592 144 593 b 142 610 132 600 133 606 b 150 619 149 611 150 614 b 164 622 150 636 161 638 b 176 608 165 614 169 610 b 174 594 185 607 183 599 b 157 579 164 592 160 589 z m 192 274 b 182 274 189 271 183 271 b 186 282 179 278 182 282 b 192 274 190 282 193 275 z m 197 425 b 186 433 196 428 192 432 b 175 483 163 442 154 481 b 186 492 185 485 186 486 b 188 507 186 496 186 503 b 185 521 190 514 190 515 b 185 544 176 529 176 536 b 210 536 194 554 207 551 b 224 528 211 528 211 528 b 226 518 239 528 242 519 b 224 513 218 517 215 513 b 229 507 226 513 229 511 b 226 503 229 504 228 503 b 224 497 225 503 224 500 b 239 511 224 485 235 494 b 267 536 243 529 253 539 b 325 571 278 535 286 539 b 360 622 368 606 369 608 b 428 803 304 690 344 797 b 435 794 438 804 440 801 b 476 613 383 729 406 631 b 479 604 483 610 485 607 b 399 596 457 590 424 588 b 385 600 390 599 385 600 b 244 442 371 572 256 442 b 242 432 242 442 242 438 b 236 417 242 425 239 421 b 197 425 224 407 201 411 z m 364 221 b 363 210 365 215 364 211 b 350 206 361 207 356 206 b 338 219 340 206 338 208 b 332 231 338 224 335 228 b 331 242 326 235 326 236 b 331 254 335 249 335 250 b 336 274 326 258 326 260 b 367 275 350 293 354 293 b 371 251 376 260 378 251 b 365 249 368 251 365 250 b 371 243 365 249 368 244 b 369 229 378 236 376 232 b 364 221 363 228 363 226 z m 310 335 b 296 333 306 332 299 332 b 308 353 290 340 303 358 b 310 335 313 349 314 339 z m 351 118 b 342 90 346 117 343 108 l 339 65 l 288 64 b 231 93 228 64 231 61 b 225 121 231 114 231 117 b 238 153 218 125 222 133 b 347 143 254 171 322 165 b 351 118 365 126 367 119 z m 514 147 l 485 147 l 483 122 b 482 86 482 110 482 93 b 451 74 482 78 472 74 l 421 74 l 421 101 b 389 149 421 149 422 146 b 367 168 354 151 349 156 b 389 192 371 171 382 182 b 408 199 406 211 408 211 b 432 196 408 176 421 175 b 446 194 440 215 443 214 b 469 185 450 165 469 158 b 481 203 469 193 475 203 b 488 207 482 203 485 204 b 522 188 493 214 501 210 b 514 147 554 151 554 147 z m 547 657 b 543 661 544 657 543 658 b 547 665 543 664 546 665 b 553 661 550 665 551 664 b 547 657 553 658 551 657 z m 615 361 b 607 360 613 357 610 357 b 615 368 604 365 611 371 b 615 361 618 365 618 364 z m 210 426 l 210 426 b 231 428 213 422 229 424 b 231 433 231 429 231 432 b 210 426 228 435 208 429 z m 304 97 b 294 85 297 97 294 93 b 301 82 294 83 297 82 b 310 89 308 82 310 82 b 304 97 310 96 308 97 z m 267 118 l 243 118 l 243 82 l 264 82 b 285 92 278 82 285 85 b 301 108 285 103 288 106 b 319 93 315 110 319 107 b 328 92 319 79 326 78 b 267 118 333 119 338 118 z m 274 483 b 357 581 294 504 360 581 b 328 558 356 581 343 571 b 290 531 313 547 296 535 b 281 519 282 526 281 524 b 260 506 282 514 268 504 b 257 488 253 507 253 506 b 274 483 261 472 261 472 z "},"C":{"ha":740,"x_min":0,"x_max":0,"o":"m 672 256 b 571 243 629 247 594 243 b 539 253 550 243 539 247 b 551 264 539 260 543 264 b 554 288 569 265 571 271 b 549 307 542 300 540 307 b 538 343 558 307 556 319 b 519 358 529 353 525 358 b 494 336 514 358 508 351 b 485 306 476 314 475 313 b 478 288 489 301 488 296 b 486 261 457 269 458 263 b 494 256 490 261 493 260 b 483 249 496 250 492 249 b 332 306 453 249 369 278 b 464 643 213 396 276 560 l 478 649 l 476 631 b 474 590 476 621 475 603 b 471 558 472 579 471 564 b 463 540 471 547 469 546 b 456 532 458 538 456 533 b 446 521 456 531 451 525 b 464 458 414 494 432 458 b 490 465 472 458 481 461 b 501 518 510 475 515 506 b 496 529 499 521 496 526 b 492 542 496 533 494 539 b 489 568 486 546 486 549 b 494 624 490 581 493 606 l 497 657 l 522 667 b 553 676 536 671 550 675 b 553 661 558 678 558 667 b 549 651 551 660 549 656 b 546 640 549 649 547 643 b 565 597 535 626 546 600 b 593 647 593 592 613 626 b 586 658 590 650 588 656 b 579 665 585 661 582 664 b 581 683 572 667 572 682 b 649 694 601 689 625 692 b 664 840 699 700 697 688 b 599 968 632 988 639 974 b 83 192 171 907 -104 492 b 115 163 106 157 107 156 b 115 171 119 167 119 169 b 114 196 107 172 107 181 b 113 208 119 204 118 208 b 110 242 92 208 90 214 b 133 263 121 257 126 263 b 147 254 138 263 142 260 b 169 213 169 232 179 215 b 176 189 164 210 169 194 b 174 174 181 186 179 176 b 175 161 171 171 171 167 b 172 143 183 151 182 146 b 163 142 168 143 164 142 b 158 121 160 140 158 133 b 265 32 158 96 193 68 b 469 -24 328 1 385 -14 b 697 0 533 -31 674 -17 b 707 128 703 4 707 47 b 672 256 707 275 710 263 z m 601 936 b 601 906 608 932 608 913 b 589 900 597 901 593 900 b 564 924 576 900 564 911 b 586 940 564 935 575 940 b 601 936 592 940 597 939 z m 322 747 b 331 763 326 750 331 756 b 344 761 333 778 342 776 b 354 749 344 750 346 749 b 353 735 365 746 365 740 b 343 724 347 732 343 728 b 329 717 340 715 332 711 b 328 725 328 719 328 722 b 322 732 329 729 328 731 b 322 747 314 736 314 740 z m 414 744 b 425 735 419 746 425 740 b 411 729 424 729 415 725 b 414 744 408 732 410 742 z m 497 736 b 497 729 499 733 499 732 b 492 731 494 728 493 728 b 497 736 490 736 493 739 z m 582 628 b 578 617 582 622 581 619 b 560 625 569 611 560 615 b 582 628 560 639 581 642 z m 239 601 b 244 608 236 604 239 608 b 247 604 246 608 247 607 b 239 601 247 599 242 596 z m 485 483 b 453 481 478 476 463 475 b 454 504 446 486 446 497 b 472 513 460 510 467 513 b 485 483 488 513 499 497 z m 131 415 b 113 410 125 413 118 410 b 88 433 99 410 88 419 b 118 464 88 450 101 464 b 131 415 140 464 150 428 z m 229 410 b 240 403 233 413 240 410 b 235 399 240 400 239 399 b 229 410 229 399 226 406 z m 243 256 b 228 256 239 250 232 250 b 236 286 222 261 229 288 b 243 256 243 285 247 261 z m 433 86 b 272 88 411 82 276 83 b 300 213 256 108 274 192 b 408 208 306 218 403 214 b 433 86 439 179 457 90 z m 650 76 b 647 58 650 67 650 61 b 653 44 644 54 644 53 b 640 7 668 29 663 15 b 582 3 629 3 593 0 b 564 49 543 10 533 39 b 561 60 567 50 565 53 b 558 78 557 67 557 71 b 551 103 561 85 560 88 b 543 122 546 111 542 121 b 560 114 546 128 553 124 b 575 100 568 97 569 96 b 578 107 579 101 579 103 b 608 149 567 126 589 149 b 631 118 626 149 631 133 b 644 108 631 96 633 94 b 663 114 653 119 661 122 b 656 100 663 111 660 106 b 650 76 649 92 649 90 z m 279 142 b 281 118 279 142 279 131 b 331 96 282 90 276 93 b 358 111 350 97 358 101 b 386 135 356 133 357 135 b 415 111 414 133 415 133 b 422 97 415 97 415 97 b 431 121 431 97 431 97 l 431 146 l 356 144 b 279 142 314 143 279 142 z m 126 140 b 126 136 124 140 124 139 b 131 132 128 133 129 132 b 131 136 131 132 131 133 b 126 140 131 138 129 140 z m 592 125 b 589 119 589 124 588 121 b 599 119 590 117 597 117 b 592 125 601 124 596 128 z m 615 126 b 611 122 614 126 611 125 b 615 119 610 121 611 119 b 619 122 618 119 619 121 b 615 126 619 125 617 126 z m 386 97 b 403 110 394 97 403 103 b 386 122 403 117 394 122 b 369 110 376 122 369 117 b 386 97 369 103 376 97 z m 604 103 b 597 100 600 101 597 101 b 611 101 597 99 610 100 b 604 103 611 103 608 103 z "},"D":{"ha":829,"x_min":0,"x_max":0,"o":"m 428 525 b 440 503 435 525 438 519 b 443 486 440 494 442 488 b 450 488 444 483 449 483 b 454 501 450 489 451 496 b 472 515 457 514 467 521 b 479 518 474 511 475 513 b 490 525 482 522 486 525 b 490 529 494 525 494 525 b 482 546 489 532 485 539 b 431 543 467 579 450 579 b 428 525 422 525 422 525 z m 574 435 b 581 439 576 431 581 433 b 575 444 581 442 579 444 b 574 435 569 444 568 439 z m 558 532 b 556 538 558 533 557 536 b 553 533 554 538 553 536 b 546 524 553 532 550 526 b 544 514 539 515 538 511 b 550 510 550 515 550 514 b 550 501 550 506 550 503 b 556 504 550 497 556 500 b 560 514 556 507 557 511 b 561 522 564 518 565 519 b 558 532 558 525 557 529 z m 539 351 b 535 347 536 350 535 349 b 542 350 535 343 540 346 b 539 351 543 351 542 351 z m 785 590 b 539 875 747 704 649 818 b 536 829 531 879 529 836 b 540 822 539 826 540 824 b 551 808 540 821 544 814 b 532 761 574 786 563 763 b 506 807 503 760 489 783 b 513 821 510 813 513 818 b 514 828 513 824 513 826 b 515 878 517 829 518 860 b 385 938 514 893 461 918 l 357 946 l 360 919 b 365 890 361 899 361 893 b 369 883 368 889 369 886 b 379 871 369 882 374 876 b 336 813 404 846 374 806 b 325 871 310 817 303 854 b 332 879 329 874 332 878 b 339 889 332 881 335 885 b 338 949 346 896 346 946 b 104 958 310 960 176 965 b 63 928 60 954 63 956 b 68 461 63 914 65 704 b 82 -4 74 0 74 -3 b 92 -8 85 -4 89 -7 b 168 -19 96 -12 119 -17 b 785 590 574 -47 890 267 z m 381 732 b 392 724 386 738 394 731 b 385 719 392 722 388 719 b 381 732 378 719 376 726 z m 140 149 b 131 149 136 144 136 144 b 135 160 125 153 128 160 b 140 149 143 160 146 154 z m 174 521 b 194 522 176 526 190 526 b 193 500 200 517 199 503 b 174 521 179 492 168 506 z m 190 693 b 206 686 196 697 206 692 b 189 681 206 679 194 676 b 190 693 186 683 188 692 z m 211 292 b 197 292 203 286 201 286 b 208 307 194 297 203 308 b 211 292 215 304 217 297 z m 211 832 b 196 815 201 826 197 821 b 189 806 193 810 190 806 b 181 807 183 803 185 803 b 178 817 179 808 178 813 b 171 826 178 822 175 825 b 175 846 160 832 161 839 b 183 865 182 850 185 857 b 201 867 181 883 196 886 b 214 853 203 861 207 857 b 211 832 226 844 225 840 z m 304 151 b 288 131 297 147 293 142 b 267 129 276 108 267 107 b 258 144 267 139 265 140 b 260 165 249 150 249 158 b 274 194 269 171 271 174 b 292 196 275 219 292 219 b 303 176 292 189 293 185 b 304 151 317 163 317 158 z m 389 56 b 358 78 374 42 351 58 b 390 81 363 88 385 90 b 389 56 394 75 393 60 z m 496 85 b 482 83 494 81 488 81 b 486 96 476 88 479 96 b 496 85 492 97 497 90 z m 593 204 b 569 206 588 199 574 200 b 578 229 561 218 565 229 b 593 204 590 229 600 211 z m 600 406 b 492 357 575 313 492 275 b 521 390 492 390 492 389 b 556 408 550 392 556 394 b 529 442 556 422 538 446 b 515 440 526 439 521 439 b 499 422 507 442 501 438 b 482 432 494 407 482 413 b 458 432 482 449 465 450 b 446 432 456 424 450 425 b 435 426 443 440 439 439 b 422 435 429 414 418 421 b 399 428 426 450 417 449 b 415 389 375 403 381 389 l 438 389 l 436 358 b 422 310 436 321 436 318 b 300 518 363 265 274 415 b 363 610 310 554 353 618 b 371 542 369 603 376 544 b 364 518 364 539 360 525 b 385 536 375 500 396 518 b 379 614 381 542 376 600 b 421 638 382 625 390 631 b 425 621 431 640 432 633 b 433 593 414 604 418 593 b 444 615 442 593 450 608 b 460 638 432 628 439 640 b 507 586 504 633 518 618 b 518 558 499 563 503 556 b 522 579 528 561 529 567 b 524 615 515 590 517 613 b 574 568 529 617 560 588 b 600 406 607 517 615 461 z m 703 543 b 692 543 694 539 696 539 b 699 557 688 549 692 556 b 703 543 711 560 715 547 z m 721 365 b 714 376 714 365 710 372 b 726 372 718 381 726 378 b 721 365 726 368 724 367 z m 522 503 b 507 514 517 506 510 511 b 481 514 496 524 489 524 b 469 511 474 506 474 506 b 456 497 465 518 460 513 b 436 504 450 469 436 475 b 404 501 436 528 426 528 b 413 461 382 474 383 461 b 422 457 426 461 426 461 b 422 447 418 451 418 451 b 426 433 424 444 426 438 b 433 432 426 421 428 421 b 450 435 439 443 444 443 b 454 433 453 428 453 428 b 486 428 463 457 486 453 b 496 428 486 413 490 413 b 515 443 500 440 508 447 b 526 453 525 438 533 444 b 531 461 524 458 525 461 b 522 503 554 464 550 483 z m 333 519 b 335 522 333 519 335 521 b 332 525 335 524 333 525 b 331 522 331 525 331 524 b 333 519 332 521 333 519 z m 344 390 b 342 388 343 390 342 389 b 344 386 342 386 343 386 b 347 388 346 386 347 386 b 344 390 347 389 346 390 z m 333 465 b 325 458 331 474 325 469 b 329 449 325 453 326 449 b 333 443 331 449 332 446 b 340 443 335 435 340 435 b 342 456 340 447 340 453 b 339 461 342 460 342 461 b 333 465 336 461 333 464 z "},"E":{"ha":713,"x_min":0,"x_max":0,"o":"m 669 158 b 629 189 642 158 631 167 b 639 206 628 200 632 204 b 640 228 651 206 651 207 b 644 246 629 247 629 246 b 638 289 661 246 661 244 b 615 322 626 311 622 322 b 589 289 610 322 604 311 b 579 249 563 247 563 249 b 581 228 594 249 594 249 b 576 206 569 210 568 206 b 594 192 593 207 594 207 b 572 168 594 175 588 168 b 558 203 560 168 558 171 b 550 236 558 219 557 224 b 533 267 544 244 538 257 b 519 285 528 279 524 285 b 503 260 515 285 511 276 b 486 228 497 247 489 233 b 481 199 479 219 479 218 b 479 178 482 181 482 178 b 335 196 468 178 336 193 b 331 322 333 197 329 322 b 539 356 333 322 504 350 b 578 438 578 363 575 354 b 525 529 581 535 586 526 b 328 542 475 531 329 540 b 325 608 328 543 326 572 l 325 674 l 347 682 b 371 675 372 690 381 688 b 386 635 351 653 364 621 b 389 665 396 643 397 650 b 386 693 381 679 379 690 b 464 715 421 708 449 715 b 475 711 469 715 474 714 b 478 646 481 703 482 649 b 475 642 476 644 475 643 b 467 629 475 639 471 635 b 467 603 458 619 457 614 b 486 594 472 597 479 594 b 508 625 503 594 518 608 b 503 638 506 631 503 636 b 497 644 503 640 500 643 b 488 717 492 649 485 703 b 571 756 492 729 494 731 b 644 815 653 783 647 779 b 639 894 643 829 640 865 b 618 954 635 942 636 954 b 579 949 610 954 599 951 b 417 921 553 944 481 931 b 229 888 353 910 268 894 b 114 868 189 881 138 872 b 68 858 90 864 69 860 b 68 15 63 854 63 18 b 103 13 69 14 85 13 b 425 -6 138 11 256 4 b 588 -15 485 -10 558 -14 b 642 -18 617 -17 642 -18 b 663 -15 643 -19 661 -17 b 681 110 665 -12 679 100 b 669 158 686 156 686 157 z m 265 810 b 265 817 258 808 258 813 b 282 836 275 822 282 829 b 289 835 282 843 289 842 b 296 825 290 832 293 826 b 294 811 304 819 304 818 b 282 799 289 808 283 803 b 275 799 279 789 274 789 b 265 810 278 807 274 811 z m 188 708 b 156 699 176 701 165 699 b 119 831 97 699 60 788 b 142 817 142 847 153 840 b 196 744 118 769 149 728 b 188 708 224 754 217 726 z m 533 836 b 536 835 535 836 536 836 b 533 832 536 832 535 832 b 531 835 532 832 531 832 b 533 836 531 836 532 836 z m 461 833 b 458 818 468 832 467 824 b 447 819 451 813 450 813 b 461 833 442 829 450 839 z m 399 756 b 401 753 400 756 401 754 b 399 750 401 751 400 750 b 396 753 397 750 396 751 b 399 756 396 754 397 756 z m 133 639 b 139 642 135 640 138 642 b 143 639 142 642 143 640 b 138 636 143 638 140 636 b 133 639 135 636 133 638 z m 290 568 b 288 565 290 567 289 565 b 285 568 286 565 285 567 b 288 571 285 569 286 571 b 290 568 289 571 290 569 z m 211 553 b 207 560 207 553 206 554 b 215 561 208 568 215 569 b 211 553 215 557 214 554 z m 176 485 b 161 485 172 478 164 478 b 176 496 156 499 171 510 b 176 485 178 492 178 489 z m 442 444 b 446 439 446 444 447 443 b 436 439 444 429 436 429 b 442 444 436 442 439 444 z m 314 371 b 300 347 308 371 300 358 b 292 350 300 329 293 332 b 283 360 292 358 290 360 b 285 372 272 361 272 361 b 294 386 290 376 294 383 b 304 389 294 400 301 403 b 311 378 306 383 307 379 b 314 371 318 375 319 371 z m 521 203 b 510 214 514 203 510 207 b 521 224 510 219 514 224 b 531 214 528 224 531 219 b 521 203 531 207 528 203 z m 147 181 b 131 186 143 175 131 178 b 147 189 131 193 143 196 b 147 181 150 186 150 183 z m 300 82 b 278 93 283 72 275 76 b 300 106 281 107 290 113 b 300 82 310 97 310 88 z m 600 63 b 585 60 596 56 586 54 b 599 71 582 67 593 75 b 600 63 601 67 601 65 z m 614 13 b 611 15 613 13 611 14 b 614 18 611 17 613 18 b 617 15 615 18 617 17 b 614 13 617 14 615 13 z "},"F":{"ha":628,"x_min":0,"x_max":0,"o":"m 93 176 b 111 183 100 169 111 175 b 101 188 111 188 110 188 b 93 176 90 188 88 182 z m 74 92 b 246 115 124 83 181 92 b 304 163 306 138 304 136 l 304 185 l 265 185 b 124 206 213 185 153 193 b 114 200 107 213 103 211 b 115 168 125 189 125 179 b 78 181 104 156 78 165 b 90 210 78 192 85 207 b 81 229 100 213 96 219 l 65 238 l 65 226 b 74 92 60 165 64 93 z m 469 525 b 418 508 432 529 433 529 b 375 369 388 469 378 433 l 374 326 l 386 329 b 431 333 393 329 413 332 b 464 338 447 336 463 338 b 465 371 465 338 465 353 b 493 506 465 419 476 471 b 469 525 503 524 506 521 z m 418 529 l 389 532 b 319 517 332 538 333 538 b 299 336 279 458 271 393 b 317 321 303 325 310 321 b 344 324 322 322 335 324 l 361 326 l 363 367 b 407 514 365 433 378 476 z m 535 519 b 499 486 513 521 511 519 b 478 346 485 450 472 368 b 518 343 479 339 483 339 b 556 454 553 347 547 332 b 535 519 560 522 561 518 z m 307 521 b 314 538 317 535 318 538 b 308 556 310 538 308 540 l 307 575 l 281 565 b 167 544 236 549 215 544 b 128 536 126 544 114 542 b 132 532 129 536 132 533 b 135 522 132 529 132 525 b 108 500 142 510 124 493 b 107 533 96 506 94 521 b 111 546 114 540 115 546 b 71 551 108 546 78 550 b 71 428 63 554 63 440 b 274 283 118 360 190 308 b 292 324 314 272 315 276 b 307 521 258 389 264 458 z m 110 513 b 124 515 113 508 122 510 b 119 521 124 517 122 519 b 110 513 114 522 107 517 z m 300 124 b 204 90 272 113 218 93 b 197 68 183 85 181 78 b 179 24 221 53 208 24 b 172 79 154 24 149 64 b 161 79 174 81 169 81 b 106 78 154 79 129 78 l 63 79 l 63 49 b 153 -1 64 1 54 7 b 250 -8 185 -3 229 -7 b 292 -12 272 -10 290 -11 b 303 58 301 -12 301 -8 b 300 124 304 124 304 125 z m 171 38 b 192 38 176 32 183 32 b 194 56 197 42 199 51 b 171 38 179 68 158 51 z m 299 265 b 274 272 296 265 283 269 b 258 263 249 278 244 275 b 242 232 269 253 258 232 b 232 268 222 232 217 251 b 210 296 243 281 244 279 b 69 410 150 325 107 361 b 65 335 65 414 65 407 l 65 254 l 85 240 b 197 200 119 218 144 208 l 197 200 b 304 201 249 193 300 193 b 299 265 310 218 307 264 z m 222 593 b 238 601 228 590 236 594 b 221 610 238 608 229 614 b 222 593 217 608 217 597 z m 343 692 b 406 710 347 692 404 708 b 403 721 407 711 406 717 b 418 907 386 764 394 878 b 369 904 422 913 421 913 b 310 888 313 896 315 897 b 335 701 288 843 300 743 b 343 692 339 696 343 692 z m 268 636 b 308 657 307 626 308 628 b 319 685 308 674 313 683 b 319 701 329 688 329 688 b 293 875 290 740 278 824 b 215 882 300 897 311 896 b 118 868 169 875 126 869 b 103 853 108 867 103 861 b 268 636 103 761 182 660 z m 153 554 b 308 603 226 553 307 578 b 292 619 308 613 303 618 b 256 628 282 621 265 625 b 246 614 232 635 231 635 b 213 585 260 594 233 571 b 208 613 206 590 203 604 b 213 622 211 615 213 621 b 218 629 213 625 215 628 b 210 649 229 633 226 639 b 92 846 150 683 99 769 b 68 861 90 865 88 867 b 75 564 58 857 65 565 b 153 554 88 560 128 556 z m 236 246 b 250 250 240 242 249 244 b 243 257 250 256 250 257 b 236 246 235 257 231 251 z m 418 717 b 425 714 419 714 422 713 b 467 725 428 714 446 719 b 501 750 513 738 507 735 b 506 913 483 797 485 871 b 475 921 514 926 515 926 b 433 908 442 915 439 915 b 418 717 406 874 396 760 z m 608 779 b 604 849 608 785 606 817 b 594 935 599 931 599 931 b 533 928 590 938 543 932 b 515 747 501 914 489 797 b 524 742 518 743 521 740 b 561 751 526 742 543 747 b 608 779 608 764 611 765 z "},"G":{"ha":1031,"x_min":0,"x_max":0,"o":"m 915 418 b 917 444 944 435 944 432 l 894 456 l 893 444 b 890 418 892 439 892 428 b 915 418 889 400 888 400 z m 618 569 l 572 569 b 525 567 543 569 526 569 b 531 424 524 565 528 449 b 551 433 532 407 531 407 b 613 553 582 475 601 514 z m 644 456 b 638 476 646 456 642 465 b 625 513 633 489 628 504 b 607 506 618 531 618 531 l 599 483 l 621 469 b 644 456 633 463 644 456 z m 551 415 b 547 400 540 403 540 401 b 567 403 561 397 568 397 b 563 417 565 404 564 411 b 551 415 563 424 558 422 z m 558 83 b 592 110 561 83 592 107 b 556 124 593 111 557 125 b 557 103 556 124 556 114 b 558 83 557 92 558 83 z m 957 429 b 953 428 956 431 953 431 b 882 385 950 425 886 385 b 881 428 878 385 878 390 b 881 464 882 446 882 463 b 867 475 881 464 874 469 b 804 560 836 496 807 536 b 707 571 801 572 804 572 b 642 497 610 569 614 574 b 622 457 668 428 668 428 b 590 472 603 468 592 474 b 579 454 590 471 585 463 b 575 414 574 444 572 431 b 553 388 582 382 582 381 b 532 382 539 390 532 389 b 643 367 532 363 524 364 b 750 367 701 367 750 367 b 708 317 750 363 725 332 b 325 414 557 167 340 221 b 331 486 324 433 326 475 b 311 474 332 488 322 482 b 231 419 285 453 258 435 b 203 381 218 413 208 399 b 150 350 183 318 189 322 b 106 365 131 363 115 368 b 63 356 97 363 78 358 b 36 351 49 353 36 351 b 39 333 35 350 36 343 b 124 161 56 271 83 211 l 139 142 l 154 149 b 693 69 278 211 543 172 b 728 63 717 53 711 54 b 776 106 764 81 774 89 b 915 249 790 181 853 246 b 993 396 936 250 974 321 l 1000 419 l 979 424 b 957 429 969 426 958 429 z m 157 358 b 178 344 167 351 176 344 b 194 397 179 344 194 392 b 139 374 194 400 139 376 b 157 358 139 372 147 365 z m 1010 564 b 813 569 1007 574 813 579 b 974 438 813 524 892 458 b 1000 431 986 433 997 431 b 1010 564 1006 431 1014 538 z m 86 371 b 340 521 178 394 332 485 b 353 551 342 525 347 539 b 747 678 435 724 636 788 l 764 661 l 785 679 b 819 710 797 689 813 703 l 833 719 l 818 731 b 749 913 761 774 729 856 b 749 929 753 925 753 926 b 625 963 736 938 644 963 b 606 947 619 963 615 958 b 464 817 572 903 517 851 b 453 800 446 806 443 800 b 460 799 456 800 458 800 b 467 796 460 797 464 796 b 468 746 488 796 489 757 b 433 776 444 733 432 744 l 435 797 l 419 789 b 307 735 392 772 333 744 b 276 717 283 726 279 724 b 244 669 269 699 249 669 b 224 688 243 669 233 678 b 185 704 211 700 199 706 b 131 700 172 703 149 701 l 97 699 l 81 665 b 31 376 38 581 17 458 b 86 371 33 363 44 361 z m 243 714 b 233 696 219 708 219 708 b 258 707 246 682 244 682 b 243 714 264 717 258 719 z m 253 129 b 265 153 254 133 261 144 b 265 167 271 163 271 167 b 244 164 261 165 251 164 b 233 158 235 163 232 161 b 240 136 235 156 238 146 b 253 129 247 117 246 117 z m 824 742 b 878 758 843 726 839 725 b 906 814 924 797 922 794 b 788 910 878 847 828 888 b 758 906 763 922 763 922 b 824 742 743 854 771 783 z m 593 950 l 606 965 l 586 967 b 114 724 417 982 221 882 l 106 713 l 129 713 b 593 950 283 713 493 819 z m 903 231 b 796 114 857 219 806 164 b 900 208 793 97 864 161 b 903 231 919 233 919 235 z m 604 103 b 581 85 603 101 592 93 b 544 103 550 61 547 63 l 543 129 l 524 136 b 419 160 492 144 428 160 b 419 133 415 160 415 139 b 422 125 421 129 422 126 b 425 117 421 124 422 121 b 411 79 436 104 429 85 b 375 101 393 72 378 82 b 400 138 374 113 372 110 b 338 167 419 158 408 164 l 288 168 l 275 147 b 260 117 269 135 261 121 b 233 122 247 93 240 94 b 215 158 225 150 219 160 b 196 153 213 158 204 156 b 164 142 188 151 174 146 l 149 135 l 160 122 b 428 0 221 60 328 11 l 428 0 b 686 42 511 -8 610 8 l 703 50 l 681 64 b 604 103 651 83 608 104 z "},"H":{"ha":851,"x_min":0,"x_max":0,"o":"m 567 926 b 600 931 578 929 589 931 b 629 924 614 931 625 928 b 629 843 633 917 633 872 b 633 822 626 829 626 822 b 685 839 642 822 656 828 b 728 847 721 853 721 853 b 731 803 736 843 736 829 b 749 724 721 760 728 726 b 768 724 753 724 761 724 l 781 724 l 781 974 l 675 974 b 567 972 607 974 568 974 b 567 926 563 967 563 925 z m 81 856 b 103 858 83 856 94 857 b 135 867 111 860 125 864 b 151 871 142 869 147 871 b 165 813 164 871 164 857 l 167 768 l 182 779 b 240 814 214 803 229 814 b 272 792 250 814 257 807 l 297 768 l 289 865 b 281 965 285 918 281 963 b 81 964 281 968 103 967 b 74 908 76 963 74 944 b 81 856 74 872 75 854 z m 619 592 l 617 551 l 632 568 b 690 618 664 603 679 618 b 706 606 697 618 701 614 b 735 560 713 590 732 560 b 758 569 735 560 746 564 l 781 579 l 782 643 l 782 707 l 763 707 b 715 814 714 707 699 742 b 704 828 719 833 719 833 b 625 803 664 811 639 803 b 614 856 607 803 608 819 b 607 914 621 897 618 913 b 563 904 588 915 563 910 b 558 817 563 900 560 861 b 554 721 556 772 554 729 l 554 704 l 575 706 b 619 592 622 710 625 703 z m 174 547 b 194 544 182 519 182 519 b 244 600 215 583 229 600 b 272 585 253 600 261 594 b 321 544 290 568 318 544 b 347 615 324 544 350 615 b 329 615 346 617 338 615 b 304 682 308 615 310 608 l 300 740 l 271 768 b 240 797 256 785 242 797 b 203 772 239 799 222 786 b 158 746 179 756 165 746 b 149 800 149 746 149 761 b 136 850 149 857 150 854 b 100 842 129 847 114 844 b 74 838 86 840 74 838 b 71 732 74 838 72 790 l 69 626 l 92 636 b 117 643 101 640 110 643 b 174 547 139 643 150 619 z m 760 551 b 731 543 746 546 738 543 b 721 547 726 543 724 544 b 690 596 715 553 693 589 b 644 556 688 603 678 593 b 611 529 629 539 619 529 b 604 624 599 529 597 560 b 574 690 611 683 606 693 l 553 689 l 551 656 b 549 622 550 638 549 622 b 458 619 547 621 507 619 l 368 618 l 360 593 b 318 531 346 550 335 531 b 257 575 304 531 285 546 b 246 582 253 579 249 582 b 208 533 238 582 229 569 b 181 500 196 511 188 500 b 160 532 172 500 167 511 b 121 629 151 561 124 628 b 94 619 118 629 107 625 l 71 608 l 71 572 b 69 506 71 551 69 522 l 67 475 l 83 472 b 183 439 169 464 178 461 b 192 418 188 425 189 418 b 210 431 196 418 200 422 b 238 447 222 440 231 447 b 293 386 249 447 261 431 b 340 354 311 358 318 354 b 385 419 360 354 361 358 b 410 454 393 443 401 454 b 424 447 414 454 419 451 b 463 379 432 438 460 389 b 489 385 465 368 467 369 b 601 446 546 425 582 446 b 621 400 619 446 624 431 b 622 317 614 347 615 317 b 678 286 631 317 653 304 b 690 231 701 268 703 264 b 697 182 676 192 678 186 b 732 181 703 181 718 181 b 769 182 744 182 761 182 l 782 182 l 782 371 b 781 560 782 475 782 560 b 760 551 781 560 771 556 z m 133 292 b 194 225 139 292 175 253 b 214 229 208 204 208 204 b 247 308 225 286 233 308 b 261 303 251 308 256 306 b 339 267 275 294 338 265 b 331 335 340 269 333 333 b 318 340 329 336 324 339 b 286 365 303 344 297 349 b 239 431 278 378 246 422 b 199 399 238 432 207 407 b 186 390 193 393 189 390 b 172 418 181 390 176 399 b 164 443 169 431 165 442 b 69 458 161 446 71 460 b 68 253 68 457 67 253 b 99 272 69 253 83 263 b 133 292 114 283 129 292 z m 674 236 b 649 285 683 263 685 260 b 614 301 629 297 619 301 b 604 417 599 301 596 336 b 603 431 606 425 604 431 b 504 374 594 431 543 401 l 485 361 l 539 360 l 538 339 b 532 188 536 304 532 207 b 542 169 532 176 535 169 b 593 181 556 169 579 175 b 614 174 608 188 614 185 b 597 56 614 163 600 67 b 600 46 596 47 596 46 b 678 67 604 46 653 58 b 694 32 696 71 697 68 l 693 3 l 782 3 l 782 165 l 740 165 b 674 236 660 165 651 174 z m 397 407 b 382 369 393 394 386 378 l 375 356 l 413 357 b 426 410 458 358 458 354 b 411 425 421 419 417 425 b 397 407 407 425 401 418 z m 231 108 b 274 86 247 97 272 85 b 303 129 275 88 288 107 b 339 178 319 153 335 174 b 344 203 346 185 346 186 b 322 256 340 253 343 249 b 254 289 296 267 257 285 b 229 219 249 297 239 271 b 213 181 224 193 219 181 b 182 213 206 181 197 192 b 158 242 176 221 167 233 b 139 265 151 250 142 261 b 106 257 133 271 122 268 b 72 236 92 247 76 238 b 65 147 68 233 65 204 l 65 63 l 75 71 b 92 81 81 76 86 81 b 147 35 104 81 118 67 b 167 18 157 24 163 18 b 185 69 174 18 176 32 b 207 119 192 106 196 119 b 231 108 213 119 219 115 z m 675 47 b 631 36 672 47 653 42 b 588 26 608 31 596 26 b 581 57 575 26 576 35 b 594 161 583 74 594 156 b 579 158 594 161 588 160 b 546 153 571 157 556 154 b 529 143 535 153 529 149 b 526 72 529 139 528 107 b 526 3 524 18 524 7 b 678 3 529 0 675 0 b 675 47 682 8 679 49 z m 336 147 b 275 68 289 76 283 68 b 225 92 267 68 243 79 b 211 99 218 96 214 99 b 201 65 207 99 206 90 b 182 1 194 33 186 7 b 358 1 178 -4 354 -3 b 349 154 361 3 358 53 b 336 147 349 161 344 158 z m 92 67 l 78 53 b 76 -3 58 35 57 0 b 156 -1 82 -4 154 -3 b 125 33 157 -1 142 14 z "},"I":{"ha":456,"x_min":0,"x_max":0,"o":"m 128 940 b 142 929 129 939 136 933 b 156 919 147 924 154 919 b 149 897 157 919 154 910 b 140 858 138 871 135 861 b 161 856 144 856 151 854 b 176 868 163 857 169 863 b 207 890 193 885 200 890 b 225 883 211 890 217 888 b 281 864 251 871 269 864 b 269 918 299 864 296 882 b 288 951 261 931 264 936 b 256 971 307 964 296 971 b 213 986 235 971 221 976 b 194 1003 204 997 199 1003 b 178 982 189 1003 185 996 b 149 965 172 971 163 965 b 128 940 118 965 106 951 z m 225 836 b 211 847 222 843 217 847 b 192 831 204 847 197 842 b 135 685 185 815 135 689 b 140 679 135 683 138 681 b 174 599 161 671 174 640 b 176 560 174 579 175 563 b 188 590 181 547 183 554 b 233 667 192 635 213 667 b 246 661 238 667 242 665 b 276 667 257 651 257 651 b 297 679 286 674 296 679 b 265 753 299 681 286 710 b 225 836 246 793 228 829 z m 92 465 b 115 432 135 464 132 467 b 101 401 107 415 101 403 b 169 339 151 401 169 393 b 181 294 169 328 176 301 b 194 307 189 283 194 289 b 242 392 194 358 219 392 b 272 354 254 392 267 381 b 282 328 276 338 278 328 b 293 351 285 328 288 336 b 335 386 304 386 315 394 b 351 424 364 375 368 385 b 369 454 336 460 335 458 b 401 465 399 450 404 451 b 308 664 401 471 311 660 b 281 647 306 665 296 658 b 256 636 269 639 263 636 b 240 643 250 636 246 638 b 222 636 233 649 228 646 b 203 578 208 614 206 607 b 182 538 200 547 196 539 b 157 594 164 536 157 551 b 138 661 157 631 153 644 b 131 667 135 664 132 667 b 88 574 125 667 118 649 b 92 465 40 457 40 468 z m 369 371 b 329 369 358 368 335 367 b 310 344 321 375 315 368 b 279 308 301 321 289 308 b 257 340 268 308 260 319 b 240 375 254 364 247 375 b 211 303 229 375 215 349 b 190 268 208 279 200 268 b 154 329 176 268 160 292 b 124 389 149 371 142 389 b 99 382 117 389 108 386 b 19 219 86 376 15 229 b 94 208 24 210 21 211 l 161 207 l 160 113 b 181 7 158 6 158 8 b 308 0 222 7 267 4 b 324 111 322 -3 324 13 l 324 203 l 339 201 b 438 201 360 200 435 199 b 369 371 446 206 378 372 z "},"J":{"ha":708,"x_min":0,"x_max":0,"o":"m 97 161 b 65 196 100 165 78 189 b 1 135 50 204 1 157 b 97 161 1 126 88 149 z m 93 103 b 121 135 128 121 128 119 b 99 147 111 153 110 154 b 0 119 83 139 18 119 b 0 85 -1 119 -1 92 b 93 103 3 74 56 85 z m 601 710 b 681 901 674 719 704 794 b 396 986 664 972 618 986 b 211 889 239 986 211 971 b 319 733 211 790 244 744 b 340 675 333 731 333 732 b 261 242 367 469 333 290 b 133 207 232 221 185 208 b 100 181 72 204 74 207 b 139 18 143 138 158 71 b 133 1 135 11 133 3 b 329 28 133 -12 322 13 b 499 167 363 113 425 164 b 557 225 531 168 531 169 b 588 690 614 342 626 528 b 601 710 583 708 582 707 z m 218 135 b 208 136 215 131 213 132 b 208 143 207 139 207 140 b 218 135 213 146 221 139 z m 240 54 b 235 58 236 54 235 54 b 240 63 235 61 238 63 b 246 58 243 63 246 61 b 240 54 247 54 246 54 z m 656 878 b 665 885 656 926 658 929 b 653 757 676 822 672 778 b 638 743 647 750 638 742 b 640 756 638 744 639 750 b 656 878 649 778 656 833 z m 307 753 b 238 819 275 754 249 779 b 278 965 217 901 232 958 l 290 968 l 290 922 b 304 782 290 875 294 826 b 307 753 307 764 308 753 z m 360 211 b 365 217 357 214 363 219 b 368 211 367 217 368 214 b 360 211 368 207 363 207 z m 378 744 b 353 747 376 744 365 746 b 318 794 326 751 326 750 b 308 968 307 857 300 964 b 339 971 310 969 324 971 l 365 971 l 365 908 b 378 765 365 844 368 815 b 378 744 382 744 382 743 z m 407 349 b 414 357 406 354 408 357 b 418 351 418 357 419 356 b 407 349 418 346 410 343 z m 436 576 b 424 561 432 575 426 568 b 408 560 418 547 408 546 b 403 569 408 563 407 567 b 403 586 394 575 394 578 b 411 601 406 589 410 596 b 424 603 414 611 422 614 b 433 593 425 600 429 596 b 436 576 443 589 444 583 z m 463 733 b 401 742 443 735 403 740 b 382 967 389 756 374 943 b 446 969 385 971 432 974 b 467 792 456 967 464 883 b 463 733 468 736 467 732 z m 508 260 b 504 271 503 258 500 264 b 515 265 508 276 517 274 b 508 260 514 263 513 260 z m 536 454 b 518 461 531 444 517 450 b 526 468 519 467 521 468 b 536 454 536 468 540 461 z m 532 593 b 538 601 529 597 532 601 b 540 597 539 601 540 599 b 532 593 539 592 535 589 z m 551 732 b 544 728 551 729 549 728 b 511 731 542 728 526 729 l 483 732 l 482 796 b 468 960 481 851 475 926 b 549 957 465 974 544 971 b 551 732 561 911 563 760 z m 579 728 b 574 731 579 729 576 731 b 574 758 569 731 569 732 b 565 957 579 806 574 926 b 600 957 563 964 565 964 b 639 888 639 949 639 949 b 607 728 640 808 625 735 b 579 728 596 725 579 724 z m 135 88 b 113 99 132 110 132 110 b 38 72 94 88 68 79 b 13 67 26 71 15 68 b 14 49 4 65 4 65 b 53 39 22 33 24 33 b 135 88 104 50 136 68 z m 111 47 b 40 26 90 36 53 26 b 74 3 29 25 53 10 b 119 4 83 0 117 0 b 132 43 125 10 131 31 l 135 58 z m 476 154 b 463 136 456 149 457 150 b 468 114 465 129 468 119 b 501 138 471 101 475 106 b 476 154 521 160 517 163 z m 344 38 b 364 36 340 26 340 26 b 400 85 406 54 411 61 b 344 38 389 110 367 90 z m 425 132 b 406 97 397 113 397 113 b 415 75 411 92 415 81 l 417 64 l 436 78 b 456 119 458 92 460 96 b 425 132 453 142 444 144 z "},"K":{"ha":819,"x_min":0,"x_max":0,"o":"m 557 772 b 576 778 568 775 576 776 b 556 799 576 781 557 800 b 539 769 554 797 539 771 b 557 772 539 769 547 771 z m 599 935 b 590 924 589 931 586 926 b 610 928 601 915 603 917 b 599 935 617 942 615 942 z m 286 326 b 306 319 286 325 294 322 b 321 344 336 308 333 307 l 311 374 l 299 350 b 286 326 290 338 285 326 z m 482 424 b 467 444 486 451 488 451 b 461 415 447 438 447 440 b 482 424 475 392 475 392 z m 399 589 b 413 583 406 569 406 571 b 404 600 415 590 413 596 b 392 604 397 603 392 606 b 399 589 392 604 394 597 z m 172 119 b 174 174 128 139 128 138 b 199 203 197 192 199 193 b 186 378 199 208 193 286 b 174 549 179 469 174 546 b 169 553 174 551 172 553 b 97 586 153 553 97 578 b 163 642 97 590 157 642 b 153 810 167 642 168 619 b 140 979 147 900 140 976 b 111 983 140 983 139 983 b 68 968 78 982 65 978 b 68 113 69 965 69 299 b 69 29 68 69 68 32 b 143 18 71 21 74 21 b 208 17 178 17 207 17 b 213 18 210 15 213 17 b 206 103 214 19 208 101 b 172 119 206 104 190 111 z m 113 713 b 118 701 119 713 122 706 b 107 701 114 696 108 696 b 113 713 104 707 107 713 z m 124 415 b 110 415 119 410 114 410 b 124 426 106 421 117 429 b 124 415 129 422 129 419 z m 671 67 b 681 49 671 67 675 58 b 692 31 686 39 692 31 b 710 60 693 31 711 60 b 671 67 708 61 671 68 z m 526 171 b 576 189 585 181 582 181 b 556 224 574 193 564 210 b 538 247 543 244 539 250 b 518 172 533 235 518 175 b 526 171 518 171 522 169 z m 394 553 l 379 589 b 403 621 357 643 358 646 b 426 610 415 614 426 608 b 592 900 431 614 592 897 b 575 913 592 901 585 907 b 560 938 557 924 553 932 b 624 963 565 940 613 960 b 638 979 629 964 639 978 b 600 983 636 979 619 982 b 542 989 579 985 553 988 b 514 988 526 990 518 990 b 396 767 507 985 511 992 b 319 619 354 686 319 619 b 313 714 317 615 315 626 b 307 824 310 765 307 815 b 303 908 307 833 304 871 b 244 990 299 1001 304 994 b 157 981 147 985 156 986 b 163 913 158 976 160 947 l 167 851 l 210 826 b 217 761 279 785 279 788 b 178 743 197 751 179 743 b 186 596 176 742 181 678 l 197 451 l 225 436 b 204 369 268 413 268 415 b 214 249 204 368 211 260 b 307 399 215 238 208 225 z m 451 750 b 460 733 456 750 461 739 b 446 736 457 728 451 729 b 451 750 442 742 444 750 z m 321 526 b 326 519 325 526 326 525 b 314 515 326 513 317 510 b 321 526 311 522 315 528 z m 225 913 b 214 908 222 908 217 906 b 215 922 211 913 211 919 b 225 913 221 928 229 919 z m 250 585 b 229 585 242 576 229 578 b 243 596 229 592 235 596 b 250 585 251 596 254 589 z m 804 46 b 776 104 794 65 782 92 b 697 272 769 118 735 193 b 611 457 660 353 621 435 b 547 593 582 518 556 575 b 554 639 542 604 544 619 b 686 890 569 667 607 738 b 683 975 731 975 731 972 l 657 976 l 614 901 b 568 821 590 860 569 824 b 583 796 567 817 569 813 b 564 757 611 767 610 767 l 526 750 l 463 638 b 399 522 426 575 399 524 b 439 454 399 521 438 457 b 465 461 439 454 451 457 b 497 417 510 475 508 476 l 489 371 l 543 279 b 603 181 574 228 600 183 b 632 131 604 176 618 154 b 660 86 646 106 658 86 b 728 74 665 86 724 76 b 718 39 736 71 735 67 b 744 -6 696 1 699 -4 b 792 -7 760 -6 782 -7 b 804 46 824 -7 825 0 z m 646 894 b 651 888 650 893 651 892 b 640 883 651 879 644 878 b 646 894 636 889 639 896 z m 496 533 b 482 532 492 529 485 529 b 492 544 476 538 482 544 b 496 533 496 544 499 538 z m 626 274 b 614 275 619 271 615 271 b 624 286 611 281 617 286 b 626 274 631 286 632 275 z m 182 158 b 182 133 160 140 161 143 b 204 142 207 122 206 122 b 182 158 203 175 203 175 z m 601 149 b 589 165 596 157 590 165 b 553 158 588 165 572 163 b 511 214 490 147 493 143 b 526 271 519 243 526 269 b 385 501 526 281 388 506 b 353 444 383 499 368 474 l 324 394 l 339 346 b 310 300 360 282 360 283 l 276 311 l 217 207 l 231 17 l 282 15 b 336 14 310 14 333 14 b 339 125 343 17 344 26 l 335 221 l 350 249 b 376 301 357 263 369 286 b 393 328 385 315 392 326 b 474 167 394 328 431 256 b 557 4 535 40 553 6 b 621 1 560 4 589 1 b 683 -1 653 0 681 -1 b 650 67 690 -3 690 -1 b 601 149 629 101 607 139 z m 293 115 b 281 124 286 108 279 113 b 294 124 282 131 293 131 b 293 115 296 121 294 118 z m 456 288 b 450 297 449 286 444 293 b 461 293 453 301 461 299 b 456 288 461 290 460 288 z m 583 74 b 579 71 582 72 579 71 b 572 81 575 71 571 76 b 579 85 572 83 575 85 b 583 74 586 85 589 78 z m 174 768 b 182 764 174 761 174 761 b 235 788 211 776 233 786 b 204 810 236 789 222 799 b 171 801 165 833 168 833 b 174 768 172 786 174 771 z m 231 414 b 214 424 229 414 221 419 l 199 432 l 200 419 b 201 397 201 413 201 403 b 217 400 201 392 207 392 b 231 414 225 406 232 413 z m 124 588 b 144 579 124 588 132 583 b 169 596 174 568 172 567 b 167 624 169 611 168 622 b 124 588 167 625 124 590 z "},"L":{"ha":725,"x_min":0,"x_max":0,"o":"m 224 904 b 233 913 224 904 229 908 b 278 931 247 925 264 931 b 310 888 304 931 324 914 b 272 869 304 875 289 869 b 242 875 263 869 253 871 b 222 854 224 883 222 882 b 314 746 222 813 269 758 b 365 750 329 742 360 744 b 358 958 369 754 363 942 b 275 978 351 979 356 978 l 206 978 l 206 961 b 224 904 206 939 217 904 z m 207 693 b 242 681 210 686 221 682 b 288 674 267 681 275 679 b 303 667 296 669 303 667 b 315 675 303 667 308 671 b 349 692 322 679 338 688 b 369 719 363 697 369 706 b 364 736 369 738 369 738 b 211 856 297 717 211 783 b 214 885 211 869 213 882 b 211 900 217 889 217 892 b 193 958 201 914 194 938 b 185 976 192 972 189 978 b 164 975 181 976 171 975 b 146 965 153 975 151 975 b 82 889 132 936 106 906 b 71 832 75 885 71 865 l 71 782 l 94 778 b 207 693 156 769 193 742 z m 74 899 b 133 964 90 908 118 939 l 140 975 l 111 975 b 71 931 72 975 72 976 b 74 899 71 903 71 897 z m 300 894 b 278 921 307 910 294 921 b 253 913 269 921 261 918 b 253 883 228 897 228 892 b 300 894 276 876 293 881 z m 71 171 b 113 200 89 185 101 194 b 126 207 119 203 125 206 b 124 225 126 207 125 215 b 161 343 118 267 131 307 b 175 367 171 354 175 361 b 361 524 175 439 264 514 l 378 525 l 376 553 b 374 635 375 569 374 606 b 369 686 372 663 371 686 b 326 668 365 686 335 674 l 317 661 l 325 651 b 297 564 361 611 343 557 b 283 635 267 568 263 593 l 296 658 l 282 664 b 240 672 267 669 253 672 b 210 656 222 672 210 667 b 135 547 210 599 171 547 b 117 553 129 547 122 549 b 179 674 75 578 114 651 b 192 703 200 679 201 683 b 82 768 172 742 129 768 l 71 768 l 71 626 b 69 326 71 549 69 414 b 71 171 68 190 68 169 z m 192 665 b 125 561 135 653 88 578 b 196 636 153 549 185 583 b 192 665 203 664 201 667 z m 304 649 b 288 582 288 635 276 592 b 304 575 293 576 299 575 b 332 618 322 575 339 594 b 304 649 328 632 310 653 z m 361 125 b 344 128 360 131 354 132 b 313 121 333 122 322 121 b 272 161 283 121 263 138 b 308 186 279 178 292 186 b 356 163 324 186 342 178 l 365 151 l 381 167 b 414 225 394 182 410 208 b 403 229 415 231 415 232 b 383 360 388 228 389 215 b 364 513 378 526 379 515 b 188 382 278 501 194 440 b 189 371 188 375 188 369 b 211 381 190 371 200 376 b 256 392 226 389 242 392 b 299 289 315 392 354 332 b 253 271 283 276 268 271 b 178 338 222 271 194 294 b 135 254 171 356 136 289 b 158 213 133 214 133 213 b 232 160 203 210 240 183 b 201 140 228 146 215 140 b 135 188 178 140 146 158 b 126 194 132 193 129 194 b 82 164 117 190 94 175 l 68 151 l 68 79 b 71 3 68 32 69 6 b 85 -1 74 -3 75 -3 b 111 0 92 -1 103 0 b 128 6 125 0 126 0 b 182 46 135 33 158 46 b 233 10 204 46 226 35 b 283 0 235 3 251 0 l 329 0 l 339 14 b 361 125 357 44 367 92 z m 231 288 b 310 347 271 271 326 313 b 257 383 297 371 279 383 b 200 363 240 383 221 376 b 188 346 188 354 186 353 b 231 288 192 324 213 296 z m 660 214 b 714 224 674 207 714 215 b 676 239 717 240 718 239 b 636 238 656 239 638 239 b 660 214 635 235 650 218 z m 706 153 b 717 183 713 157 717 168 b 703 204 717 210 717 210 b 681 200 696 201 688 200 b 628 226 660 200 640 210 b 581 238 622 235 606 238 b 496 222 500 233 501 235 b 494 157 489 204 488 157 b 511 167 496 157 503 161 b 565 183 529 178 549 183 b 615 151 590 183 610 172 b 565 100 622 119 597 100 b 504 125 546 100 522 108 l 492 138 l 483 125 b 472 15 467 99 463 50 l 476 0 l 536 -1 b 615 -1 569 -1 606 -1 l 635 -1 l 636 31 b 706 153 639 83 665 121 z m 476 135 b 482 158 486 149 486 149 b 482 217 478 172 478 199 b 456 232 488 235 489 233 b 424 219 436 231 426 226 b 385 156 418 199 401 172 b 372 126 375 144 371 135 b 351 14 379 97 369 46 l 344 0 l 404 0 b 464 3 439 0 464 1 b 460 22 464 4 461 13 b 476 135 450 60 458 110 z m 192 151 b 213 181 218 146 232 164 b 143 200 196 196 151 208 b 192 151 135 192 171 157 z m 293 136 b 351 144 306 129 351 136 b 307 175 351 156 322 175 b 293 136 283 175 272 146 z m 549 113 b 585 168 597 100 629 151 b 506 140 558 178 494 156 b 549 113 511 132 536 117 z m 715 144 b 657 78 707 144 671 101 b 647 -1 647 58 642 6 b 713 3 651 -4 708 -1 b 715 144 717 6 719 144 z m 208 25 b 182 35 201 32 192 35 b 139 3 161 35 139 22 b 182 0 139 1 149 0 b 208 25 231 0 233 3 z "},"M":{"ha":1147,"x_min":0,"x_max":0,"o":"m 1115 72 b 1040 544 1110 108 1076 321 b 976 958 1006 768 976 954 b 871 965 975 963 940 965 l 767 964 l 754 932 b 557 394 738 881 558 396 b 385 779 556 393 388 769 b 453 819 382 794 419 817 b 549 775 496 824 564 793 b 588 699 519 743 549 686 b 594 776 618 710 622 756 b 585 790 588 782 585 786 b 519 917 585 825 556 881 b 339 988 471 965 404 988 b 132 858 249 988 161 942 b 122 846 129 849 128 846 b 114 840 117 846 115 843 b 38 13 111 819 38 21 b 51 -1 38 0 40 -1 b 179 1 53 0 111 0 l 303 1 l 304 447 l 375 300 b 456 131 414 218 450 143 b 496 93 467 103 474 97 b 517 67 510 90 514 83 b 540 44 518 44 522 42 b 556 33 550 46 554 42 b 578 3 558 13 568 3 b 603 38 588 3 599 15 b 624 65 607 61 610 65 b 671 125 640 65 671 104 b 829 486 671 138 826 490 b 828 281 831 485 829 393 b 826 39 826 169 826 60 l 826 -1 l 868 0 b 911 10 919 0 922 1 b 910 81 889 28 889 63 b 910 96 915 85 915 89 b 889 150 882 131 875 150 b 904 132 892 150 897 144 b 919 117 915 113 919 108 b 939 144 919 125 928 138 b 946 156 949 150 950 150 b 946 182 942 163 942 174 b 950 190 947 186 950 190 b 911 176 950 197 917 185 b 886 181 903 165 886 169 b 896 193 886 188 890 193 b 913 206 897 193 906 199 b 958 226 925 219 942 226 b 997 204 975 226 990 219 b 1004 189 1000 200 1003 193 b 1007 165 1007 183 1008 178 b 1011 149 1006 151 1006 150 b 1035 122 1021 144 1033 132 b 1051 129 1036 117 1042 118 b 1076 138 1067 146 1075 149 b 1058 113 1076 133 1072 126 b 1047 88 1046 99 1042 90 b 1064 15 1068 74 1078 36 b 1089 4 1061 8 1069 6 b 1122 6 1107 4 1121 4 b 1115 72 1124 7 1121 32 z m 363 971 b 504 849 461 960 504 922 b 490 839 504 832 494 826 b 350 964 481 869 407 935 b 363 971 332 972 333 974 z m 368 786 b 357 776 365 779 363 776 b 332 788 351 776 344 779 b 308 797 321 794 314 797 b 294 782 301 797 299 793 b 271 758 289 767 279 758 b 250 794 260 758 250 772 b 239 822 250 814 246 822 b 192 751 228 822 208 796 b 182 733 189 743 185 736 b 169 729 178 731 174 729 b 153 785 157 729 150 749 b 149 829 154 814 153 818 b 185 908 142 846 156 879 b 219 919 192 915 204 919 b 313 900 242 919 274 913 b 429 833 376 878 454 833 b 368 786 411 833 375 806 z m 901 856 b 904 869 897 858 899 867 b 914 858 911 872 918 865 b 901 856 911 854 904 853 z m 544 851 b 564 808 546 858 560 829 b 553 807 568 794 568 794 b 544 851 539 818 538 825 z m 936 772 b 943 765 942 772 943 771 b 929 761 943 757 935 756 b 936 772 925 767 928 774 z m 769 729 b 743 728 764 724 747 722 b 760 751 735 736 747 754 b 769 729 774 747 778 739 z m 354 639 b 332 650 344 633 332 640 b 357 661 332 660 349 668 b 354 639 361 656 360 642 z m 258 590 b 235 561 246 582 239 572 b 215 565 228 543 215 546 b 201 586 215 578 213 581 b 206 606 192 592 193 597 b 222 640 217 613 222 625 b 233 656 222 649 226 656 b 243 636 239 656 243 647 b 257 615 243 624 246 621 b 258 590 272 610 272 601 z m 146 617 b 132 617 143 613 135 613 b 138 628 131 622 133 628 b 146 617 143 628 147 622 z m 407 615 b 421 611 413 621 421 618 b 414 603 421 606 419 604 b 407 615 407 603 403 608 z m 956 583 b 949 581 954 582 951 581 b 946 594 940 581 939 592 b 956 583 951 597 957 589 z m 879 568 b 861 565 875 563 867 561 b 863 583 857 569 858 578 b 879 568 869 594 888 579 z m 740 460 b 719 465 733 453 719 456 b 731 483 719 476 724 483 b 740 460 742 483 749 468 z m 439 447 b 419 463 426 435 410 450 b 439 465 426 472 433 474 b 439 447 444 458 444 453 z m 167 411 b 178 419 167 417 172 421 b 178 404 183 417 183 407 b 167 411 171 401 167 403 z m 956 375 b 940 358 950 371 943 364 b 921 361 931 342 917 344 b 917 369 922 367 921 368 b 908 376 913 371 908 374 b 922 393 907 381 907 382 b 929 406 925 394 928 400 b 946 408 931 421 940 422 b 957 396 947 401 951 397 b 956 375 968 390 968 382 z m 667 351 b 651 332 661 349 656 342 b 636 317 646 322 640 317 b 628 336 632 317 628 324 b 621 349 628 343 626 346 b 619 365 611 353 611 360 b 640 400 631 374 640 390 b 658 397 640 424 657 421 b 668 372 660 382 661 379 b 667 351 678 363 678 358 z m 489 392 b 474 392 485 386 478 386 b 482 403 469 397 474 403 b 489 392 490 403 493 397 z m 1024 293 b 1003 290 1021 285 1008 283 b 1011 313 997 297 1003 313 b 1024 293 1022 313 1028 303 z m 233 286 b 226 297 226 286 224 292 b 239 294 229 304 239 301 b 233 286 239 289 238 288 z m 1049 244 b 1036 244 1044 240 1039 240 b 1043 256 1035 250 1038 256 b 1049 244 1050 256 1053 250 z m 521 172 b 492 183 510 163 492 168 b 521 193 492 196 510 201 b 521 172 528 189 528 179 z m 201 163 b 172 175 189 151 172 158 b 192 193 172 185 181 193 b 201 163 207 193 214 174 z m 590 158 b 603 163 590 164 596 165 b 607 154 606 160 608 157 b 590 158 606 143 590 147 z m 499 58 b 478 89 499 78 488 89 b 456 60 467 89 457 79 b 488 8 456 42 453 46 b 513 7 497 -1 504 -3 b 508 36 522 15 521 24 b 499 58 500 44 499 47 z m 104 57 b 90 64 96 54 90 56 b 106 72 90 69 100 75 b 104 57 110 71 110 60 z m 643 57 b 629 4 622 36 618 18 b 639 0 632 1 636 0 b 672 54 653 0 665 21 b 665 71 675 65 671 71 b 643 57 660 71 651 67 z m 529 -3 b 547 -1 533 -7 543 -6 b 544 18 551 3 549 15 b 529 -3 533 25 521 7 z "},"N":{"ha":801,"x_min":0,"x_max":0,"o":"m 726 919 b 711 910 726 900 717 894 b 689 886 707 922 689 904 b 683 869 690 869 690 868 b 675 878 679 869 676 872 b 664 886 674 886 672 886 b 649 900 651 886 644 893 b 661 903 651 904 653 904 b 686 918 669 901 671 903 b 694 935 697 928 700 933 b 688 943 689 936 688 938 b 715 951 688 949 704 954 b 726 958 717 950 722 953 b 615 963 735 967 731 967 b 518 960 579 961 535 960 b 483 958 501 960 486 958 b 503 575 481 956 497 632 b 501 561 504 563 504 560 b 507 539 490 565 493 551 b 533 524 538 511 536 511 b 531 547 533 529 532 540 b 522 567 529 561 528 563 b 521 582 513 571 513 578 b 518 603 531 586 529 597 b 518 619 507 610 507 619 b 517 633 525 619 525 626 b 522 647 508 639 511 647 b 536 650 526 647 533 649 b 543 638 543 653 547 646 b 547 619 538 629 539 619 b 549 604 557 619 557 611 b 550 583 540 597 542 578 b 554 567 564 590 567 576 b 549 540 550 563 547 554 b 569 546 551 518 549 518 b 574 571 575 556 576 564 b 586 582 567 589 579 600 b 599 589 589 578 593 579 b 603 611 606 597 607 606 b 604 631 596 624 596 631 b 614 625 608 631 611 629 b 625 625 617 617 619 617 b 626 636 628 629 628 632 b 625 644 625 639 624 643 b 640 643 626 650 638 650 b 649 638 640 640 644 639 b 650 625 657 638 658 629 b 642 603 638 619 631 603 b 646 592 647 603 650 596 b 632 589 643 589 640 588 b 606 567 624 590 600 571 b 604 549 622 558 621 551 b 575 525 590 547 590 546 l 560 504 l 575 506 b 599 518 594 507 594 507 b 614 518 604 531 614 531 b 621 513 614 513 615 511 b 643 528 632 513 636 515 b 660 524 654 544 667 542 b 668 518 657 519 661 517 b 690 529 688 521 689 522 b 708 533 694 546 711 550 b 713 524 707 526 708 525 b 715 510 719 522 721 515 b 714 503 713 507 713 504 b 717 494 715 503 717 499 b 699 497 717 486 707 486 b 661 496 690 506 658 506 b 644 489 665 481 657 478 b 617 488 633 500 611 499 b 601 482 624 472 613 469 b 567 486 593 490 574 493 b 629 439 560 481 618 438 b 642 424 650 442 661 428 b 675 399 626 421 656 399 b 685 386 692 399 700 388 b 701 367 674 383 688 367 b 714 356 710 367 715 363 b 703 353 713 354 708 353 b 693 343 694 353 694 351 b 678 347 693 326 682 329 b 654 374 675 364 654 388 b 644 360 654 364 651 360 b 639 376 639 360 639 361 b 629 404 639 393 639 394 b 615 400 618 414 617 414 b 603 411 613 383 601 393 b 581 449 603 422 596 435 l 557 469 l 558 449 b 571 417 560 433 564 424 b 568 400 588 403 585 389 b 564 400 561 404 561 404 b 565 386 564 397 565 390 b 581 368 565 376 565 375 b 578 350 601 356 600 340 b 569 346 571 354 568 353 b 585 328 571 339 574 335 b 594 310 599 319 600 314 b 581 313 592 307 589 307 b 560 311 568 321 569 321 b 550 324 549 297 538 308 b 546 343 557 332 554 349 b 540 358 531 332 525 343 b 542 390 551 371 554 396 b 536 410 532 385 529 394 b 539 471 544 422 544 438 b 528 458 539 472 533 467 b 519 431 521 449 518 439 b 514 410 524 417 522 410 b 508 417 511 410 508 413 b 494 390 503 438 490 413 b 494 369 497 376 497 372 b 482 374 492 365 485 368 b 469 376 479 385 475 385 b 461 350 461 365 461 363 b 446 346 464 322 450 318 b 424 363 444 357 446 356 b 432 374 410 365 415 374 b 456 400 451 374 467 392 b 464 413 447 407 451 413 b 483 436 478 413 489 426 b 490 449 478 443 481 449 b 521 481 499 449 525 476 b 497 471 518 485 499 478 b 472 449 493 461 478 447 b 474 468 464 450 465 458 b 479 475 479 474 481 476 b 458 472 476 475 467 474 b 436 460 442 471 442 471 b 414 439 428 446 421 439 b 413 456 404 439 404 444 b 404 465 422 467 422 467 b 385 454 392 464 390 463 b 369 460 376 440 363 446 b 367 474 374 465 372 467 b 376 486 353 488 361 499 b 411 490 389 475 421 479 b 407 500 407 493 406 499 b 426 494 408 507 418 504 b 454 489 432 489 440 486 b 471 497 475 492 476 493 b 488 501 463 510 476 513 b 521 499 494 494 514 493 b 472 535 526 504 481 539 b 458 547 453 528 440 539 b 439 565 471 553 456 568 b 424 568 431 565 426 565 b 429 581 419 574 422 581 b 428 586 435 581 433 581 b 408 593 424 592 419 593 b 397 606 393 593 388 599 b 394 618 401 608 400 613 b 407 629 376 635 388 644 b 421 626 414 624 419 622 b 435 615 426 642 436 635 b 443 596 433 606 433 604 b 454 593 450 590 454 589 b 465 603 454 603 460 607 b 468 588 468 600 469 597 b 474 569 467 578 467 575 b 485 575 482 561 482 563 b 229 943 486 586 240 940 b 81 967 210 949 83 968 b 79 878 78 964 76 881 b 94 903 83 874 93 889 b 111 908 97 925 113 931 b 122 899 111 901 114 899 b 122 883 139 899 139 886 b 101 872 114 882 107 878 b 104 867 93 864 94 861 b 117 858 108 869 117 864 b 93 847 117 854 106 849 b 76 815 76 846 76 844 b 88 800 76 788 78 786 b 104 797 97 815 114 813 b 129 801 96 783 118 788 b 143 814 135 810 139 814 b 146 797 153 814 154 807 b 168 800 133 786 156 788 b 182 792 185 814 197 807 b 179 778 175 783 175 783 b 185 758 186 768 188 764 b 169 765 181 753 175 756 b 156 767 163 775 150 776 b 154 757 157 761 157 760 b 136 764 150 750 149 751 b 110 768 122 779 97 782 b 114 754 115 761 117 758 b 92 763 110 747 107 749 b 74 757 76 778 74 778 b 103 735 74 736 85 728 b 115 724 125 744 136 733 l 106 719 l 117 713 b 136 710 124 707 131 706 b 157 707 147 717 156 715 b 151 700 157 703 156 701 b 149 679 143 696 143 694 b 149 663 153 667 153 667 b 133 674 143 656 139 660 b 124 689 131 681 128 688 b 110 697 121 690 114 693 b 103 692 104 700 103 699 b 86 700 106 669 90 676 b 75 721 83 713 78 724 b 69 550 74 721 72 643 b 64 325 68 456 65 354 b 68 276 63 274 63 272 b 82 278 74 282 81 282 b 68 253 85 274 75 257 b 64 233 64 251 64 247 b 68 218 64 217 64 215 b 71 200 82 228 85 215 b 61 175 61 190 61 188 b 64 165 61 164 61 163 b 72 169 65 168 69 169 b 71 149 82 169 82 163 b 61 107 63 138 56 107 b 94 160 71 107 93 143 b 108 178 97 178 100 183 b 111 168 110 175 111 171 b 125 194 111 151 124 175 b 142 206 128 219 142 228 b 153 208 142 200 146 200 b 161 233 161 217 164 225 b 176 244 158 254 171 264 b 189 235 178 236 179 236 b 196 217 210 231 215 217 b 168 199 185 217 183 215 b 160 176 150 178 150 179 b 169 161 171 172 175 165 b 151 161 165 158 163 158 b 129 154 143 164 136 163 b 135 138 117 143 118 142 b 142 125 143 136 146 131 b 139 117 140 122 139 118 b 136 106 139 114 138 108 b 144 99 131 97 131 97 b 163 110 157 100 158 101 b 179 107 172 128 188 124 b 189 99 176 101 179 99 b 207 110 201 99 201 99 b 222 108 215 126 229 125 b 229 90 219 100 219 99 b 221 76 246 75 238 61 b 192 79 211 85 188 88 b 171 75 196 68 186 65 b 142 76 157 83 138 83 b 128 68 149 64 138 58 b 85 79 119 78 111 81 l 60 78 l 81 63 b 118 47 93 51 106 47 b 138 44 133 49 136 47 b 125 33 140 39 133 33 b 124 28 121 33 119 31 b 136 25 129 25 132 24 b 161 21 150 31 163 28 b 154 13 161 15 160 14 b 153 6 149 11 149 10 l 153 6 b 296 3 161 0 288 -3 b 281 285 299 4 296 50 b 261 567 269 439 261 567 b 301 489 263 568 279 533 b 438 206 322 446 383 317 l 536 1 l 621 0 b 704 1 667 0 704 1 b 685 13 704 7 694 13 b 678 28 671 14 667 25 b 654 51 689 31 674 44 b 657 67 628 60 631 74 b 664 75 664 65 664 65 b 672 93 664 83 668 93 b 681 74 678 93 681 85 b 686 51 679 63 679 60 l 693 42 l 694 51 b 708 42 697 74 708 65 b 714 17 710 25 711 19 b 731 468 721 11 721 3 b 742 910 736 688 740 886 b 735 944 743 938 740 949 b 726 919 728 938 728 935 z m 111 126 b 79 99 104 126 82 107 b 94 96 79 97 86 96 b 111 126 124 96 139 125 z m 110 18 b 99 13 103 24 99 21 b 110 0 99 4 103 0 b 119 4 117 0 119 1 b 110 18 119 7 115 14 z m 69 49 l 58 56 l 58 29 b 60 1 58 15 60 3 b 83 8 67 -6 83 0 b 69 49 83 32 81 40 z "},"O":{"ha":808,"x_min":0,"x_max":0,"o":"m 343 957 b 246 44 -17 879 -85 249 b 268 44 268 29 269 31 b 264 90 267 51 265 72 b 242 128 260 133 263 129 b 217 157 218 125 215 128 b 219 182 218 169 219 182 b 342 204 224 188 276 197 b 376 217 369 207 381 211 b 375 253 357 235 357 253 b 401 232 386 253 394 246 b 406 228 404 228 406 225 b 453 267 406 238 440 267 b 440 224 476 267 469 246 b 429 213 432 218 426 213 b 497 217 431 213 461 215 b 619 183 582 222 622 211 b 594 158 617 161 617 160 l 574 157 l 571 122 b 565 46 564 53 564 46 b 718 219 593 46 683 149 b 404 964 878 544 686 964 b 343 957 385 964 364 961 z m 474 860 b 485 875 476 863 482 869 b 500 876 490 888 500 889 b 504 865 500 875 501 869 b 504 850 511 858 511 856 b 493 838 501 849 496 843 b 479 836 486 826 482 826 b 472 846 478 840 474 844 b 474 860 465 850 465 856 z m 222 854 b 243 850 238 868 243 867 b 251 817 243 828 243 826 b 285 808 261 807 272 804 b 267 768 315 819 297 782 b 243 763 258 764 250 763 b 222 854 203 763 183 818 z m 465 768 b 469 764 468 768 469 765 b 461 760 468 758 463 757 b 465 768 458 764 461 768 z m 590 739 b 590 746 589 742 589 743 b 603 742 594 750 603 747 b 590 739 603 735 596 733 z m 539 372 b 513 358 533 369 521 364 b 475 350 496 349 496 349 b 425 333 451 353 446 350 b 401 317 418 328 407 319 b 371 314 390 311 382 311 b 354 317 367 315 360 317 b 279 497 321 317 279 417 b 421 700 279 624 349 700 b 542 606 465 700 511 671 b 524 526 561 567 560 563 l 504 508 l 499 526 b 476 551 493 543 485 551 b 457 510 467 551 457 538 b 446 499 457 501 453 497 b 432 508 428 500 428 501 b 371 560 451 536 407 574 b 342 517 353 553 328 517 b 356 524 343 517 350 519 b 375 524 374 536 375 536 b 383 504 375 514 378 510 b 388 492 389 497 390 494 b 386 479 386 489 386 485 b 375 468 386 472 381 468 b 353 483 367 468 356 474 b 338 501 349 496 343 501 b 315 464 328 501 317 488 b 403 374 310 404 343 369 b 475 432 440 376 475 404 b 490 454 475 436 479 443 b 510 479 500 465 508 475 b 558 500 511 488 529 496 b 539 372 581 503 563 383 z m 225 661 b 208 660 219 656 213 654 b 217 676 203 667 208 676 b 225 661 225 676 229 669 z m 432 658 b 421 664 432 665 425 668 b 419 658 419 663 418 660 b 432 658 422 651 432 653 z m 331 604 b 335 600 333 603 335 601 b 338 593 335 597 336 594 b 354 600 343 589 347 590 b 364 613 357 606 361 611 b 357 633 369 618 369 621 b 336 635 343 646 336 646 b 328 621 335 631 332 624 b 331 604 321 614 322 607 z m 465 608 b 469 628 478 608 482 626 b 457 614 461 629 456 622 b 465 608 458 610 461 608 z m 514 600 b 510 607 514 604 513 607 b 503 596 504 608 501 603 b 514 600 506 590 514 593 z m 564 540 b 565 517 565 536 567 517 b 551 514 564 517 558 515 b 533 510 544 514 536 511 b 546 526 531 510 536 517 b 564 540 558 539 563 543 z m 294 515 b 293 508 293 514 292 510 b 306 511 296 501 306 504 b 294 515 306 517 299 519 z m 140 454 b 126 451 133 447 132 447 b 131 476 118 458 121 476 b 140 454 142 476 149 463 z m 700 372 b 688 372 699 363 688 364 b 693 378 688 376 689 378 b 700 372 699 378 700 376 z m 168 360 b 153 361 164 353 151 353 b 167 367 154 367 160 369 b 168 360 169 365 169 364 z m 557 300 b 565 306 556 304 561 308 b 568 300 567 304 568 303 b 557 300 568 296 558 296 z m 581 169 b 608 190 607 171 606 171 b 554 208 610 211 608 213 b 483 204 532 207 500 204 b 286 185 432 201 335 192 b 229 157 226 176 229 178 b 246 140 229 144 235 139 b 267 139 256 142 264 140 b 279 139 268 138 275 138 b 581 169 301 142 558 168 z m 443 143 b 447 21 433 140 435 99 b 458 3 449 8 450 3 b 551 42 475 3 549 29 b 560 154 554 56 561 153 b 443 143 558 156 458 146 z m 274 118 b 286 24 274 89 282 26 b 360 1 293 18 338 6 b 406 7 399 -4 403 -4 b 403 139 407 15 404 138 b 274 118 396 144 274 125 z "},"P":{"ha":826,"x_min":0,"x_max":0,"o":"m 292 204 b 758 750 701 288 921 544 b 394 957 661 874 568 926 b 69 951 283 975 75 972 b 69 3 68 944 68 8 b 172 1 71 0 78 -1 b 294 19 301 3 294 3 b 290 106 293 28 292 67 b 292 204 285 203 285 201 z m 513 329 b 507 329 510 326 508 328 b 508 335 507 331 507 333 b 513 335 510 336 511 336 b 513 329 514 332 514 331 z m 650 454 b 658 467 646 460 650 467 b 665 460 664 467 665 465 b 650 454 665 451 657 447 z m 657 775 b 667 761 664 775 669 768 b 649 761 665 756 651 756 b 657 775 646 768 650 774 z m 565 832 b 585 840 568 838 579 842 b 585 818 588 838 589 822 l 585 818 b 565 832 575 810 560 819 z m 464 888 b 474 897 469 890 474 894 b 485 900 474 904 481 907 b 493 890 486 897 490 893 b 492 875 500 882 500 879 b 479 864 488 874 482 868 b 465 865 474 853 465 854 b 463 872 465 869 464 872 b 464 888 454 876 456 882 z m 354 899 b 354 892 356 896 356 894 b 342 893 350 888 342 889 b 354 899 342 899 350 903 z m 160 725 b 164 721 163 725 164 722 b 160 717 164 718 163 717 b 154 721 157 717 154 718 b 160 725 154 722 157 725 z m 135 367 b 143 374 132 371 138 375 b 146 368 144 374 146 371 b 135 367 146 364 138 363 z m 176 111 b 154 111 169 104 158 104 b 174 132 147 124 160 138 b 176 111 183 129 185 118 z m 186 564 b 171 561 182 560 174 558 b 183 578 165 567 174 578 b 186 564 188 578 190 568 z m 203 881 b 199 872 199 879 199 878 b 193 867 200 865 200 865 b 185 867 188 868 185 868 b 171 865 185 864 183 864 b 165 872 165 867 164 868 b 163 881 165 875 164 879 b 165 888 161 883 163 886 b 168 896 167 889 169 893 b 174 901 168 899 169 900 b 182 907 176 901 179 904 b 188 907 185 910 185 910 b 196 903 190 904 193 903 b 201 897 200 903 201 901 b 204 892 201 894 201 892 b 203 881 210 892 208 882 z m 224 76 b 207 82 218 74 207 76 b 225 82 207 88 221 88 b 224 76 228 79 226 78 z m 250 443 b 271 454 250 449 258 453 b 293 467 282 456 285 458 b 297 482 306 479 306 481 b 304 494 283 483 288 492 b 328 506 315 496 319 499 b 325 517 339 518 339 519 b 314 522 314 515 314 517 b 347 533 315 528 342 536 b 361 554 353 529 364 549 b 354 568 358 558 356 564 b 335 569 351 576 342 578 b 313 550 321 553 317 549 b 315 565 308 551 310 560 b 307 572 322 569 319 572 b 292 564 297 572 296 571 b 276 565 279 544 269 546 b 253 564 281 574 257 572 b 244 554 251 560 247 556 b 242 568 238 550 236 558 b 242 579 246 575 246 576 b 232 590 232 585 231 588 b 251 586 235 594 244 593 b 274 590 263 576 282 581 b 286 594 261 606 272 608 b 308 585 297 583 297 583 b 314 592 315 585 318 588 b 328 596 301 604 313 608 b 358 599 344 583 351 583 b 368 614 363 604 365 611 b 340 650 371 618 346 651 b 313 644 331 646 315 643 b 324 658 306 647 313 654 b 326 671 331 660 332 665 b 299 685 315 685 315 685 b 294 696 281 685 278 694 b 274 726 307 699 288 726 b 249 736 261 726 247 732 b 261 740 249 740 251 740 b 278 757 274 740 275 742 b 288 774 279 772 282 776 b 290 761 292 772 292 771 b 288 744 289 754 288 746 b 314 715 286 733 313 706 b 326 708 318 736 326 731 b 342 685 325 685 339 665 b 350 699 344 699 344 700 b 354 676 354 697 354 693 b 388 625 354 653 375 621 b 383 665 399 629 396 654 b 375 678 376 671 375 675 b 388 676 378 682 382 682 b 393 686 392 674 393 674 b 386 703 393 697 392 699 b 372 719 376 708 372 714 b 383 721 372 728 378 728 b 390 732 390 711 392 713 b 379 764 389 750 389 751 b 374 782 368 778 368 779 b 388 772 376 783 381 781 l 397 761 l 407 772 b 424 781 417 783 421 785 b 408 756 426 776 418 763 b 403 731 403 750 403 747 b 417 718 403 710 406 707 b 431 719 424 726 431 726 b 411 700 431 713 421 703 b 406 682 406 699 406 697 b 414 669 406 665 406 664 b 428 669 421 675 428 675 b 417 657 428 665 424 661 b 408 632 406 651 401 636 b 451 658 424 621 454 640 b 451 694 449 688 449 692 b 461 686 457 699 461 694 b 490 714 463 653 486 676 b 501 722 493 742 501 749 l 501 708 l 515 724 b 531 751 526 736 529 740 b 540 765 532 765 535 769 b 543 753 543 763 544 758 b 551 738 542 743 542 742 b 542 728 569 729 561 719 b 510 694 538 729 507 699 b 522 692 511 693 517 692 b 533 688 529 692 532 690 b 513 681 536 681 529 679 b 489 672 497 682 497 682 b 483 650 469 650 469 651 b 497 639 499 647 503 643 b 478 638 494 636 490 636 b 450 614 456 642 438 626 b 458 601 453 611 457 606 b 503 611 463 588 482 592 b 522 625 511 619 521 625 b 519 610 531 625 529 619 b 508 597 514 604 508 599 b 556 604 508 593 550 600 b 574 621 558 607 567 614 b 589 626 585 631 586 631 b 581 611 593 624 593 622 l 568 600 l 589 601 b 629 617 610 603 611 604 b 660 632 646 631 657 635 b 646 614 663 629 658 622 b 638 601 635 606 633 604 b 633 593 642 597 640 593 b 633 576 626 593 626 592 b 633 554 639 564 639 554 b 622 572 632 554 626 563 b 575 588 611 592 611 592 b 571 578 567 588 565 583 b 581 564 576 572 581 567 b 558 572 581 556 571 560 b 524 585 551 581 540 585 b 513 571 497 585 497 585 b 522 556 522 561 524 560 b 496 569 518 551 514 553 b 457 571 476 588 465 588 b 447 556 454 565 450 558 b 475 531 439 546 451 533 b 481 518 499 528 506 515 b 503 497 457 521 475 504 b 529 483 525 493 535 488 b 513 483 528 481 522 481 b 508 471 494 488 494 488 b 538 451 518 458 521 457 b 557 436 558 444 563 442 b 538 438 553 433 551 433 b 514 429 519 444 521 446 b 499 415 508 415 504 411 b 501 433 496 417 496 421 b 506 453 507 446 508 450 b 479 469 485 479 486 479 b 471 479 469 450 461 458 b 468 499 475 486 474 492 b 451 503 456 515 454 515 b 439 492 447 492 443 488 b 440 510 436 494 438 500 b 436 538 446 526 444 529 b 421 539 432 540 431 542 b 421 500 404 535 404 514 b 419 485 435 488 433 475 b 413 474 415 488 413 483 b 422 453 413 458 413 458 b 422 440 432 447 432 439 b 424 407 411 440 411 414 b 417 396 438 397 432 388 b 403 394 410 400 410 400 l 403 394 b 393 404 386 383 378 392 b 403 429 403 411 403 411 b 397 442 403 440 400 444 b 392 454 382 428 378 439 b 392 479 404 468 404 490 b 392 496 381 469 379 483 b 400 510 396 501 400 507 b 365 531 400 539 382 550 b 358 514 358 524 357 519 b 351 499 364 496 357 483 b 331 475 344 515 325 493 b 324 460 335 461 331 453 b 319 468 321 463 319 467 b 306 461 319 476 317 475 b 294 438 297 451 294 447 b 283 433 294 425 286 421 b 269 440 282 439 281 439 b 250 443 251 440 250 440 z m 276 289 b 272 293 276 292 274 293 b 268 299 269 293 268 296 b 263 306 268 300 265 304 b 263 314 258 308 258 311 b 265 321 265 317 267 319 b 267 332 261 322 263 332 b 272 329 269 332 271 331 b 278 331 274 325 278 326 b 288 333 278 336 283 338 b 296 331 289 331 292 331 b 301 322 301 332 304 328 b 303 317 299 318 299 317 b 304 307 308 317 310 311 b 304 297 301 304 300 303 b 294 290 308 288 303 283 b 288 290 292 294 289 294 b 276 289 286 282 279 282 z "},"Q":{"ha":819,"x_min":0,"x_max":0,"o":"m 736 81 l 683 157 l 697 181 b 588 897 836 411 785 751 b 32 464 335 1086 22 842 b 494 13 40 157 265 -61 b 525 0 521 21 517 21 b 786 -3 528 -7 776 -10 b 736 81 789 0 772 28 z m 111 583 b 97 583 106 579 101 579 b 107 597 93 589 99 599 b 111 583 115 596 118 588 z m 163 239 b 154 250 156 238 151 243 b 169 246 157 257 169 253 b 163 239 169 240 168 239 z m 165 410 b 143 410 160 404 147 404 b 157 438 136 424 143 438 b 165 410 169 438 175 419 z m 563 818 b 561 800 568 814 567 804 b 546 811 551 796 546 800 b 563 818 546 819 556 824 z m 464 869 b 471 861 468 871 474 865 b 464 858 471 860 467 858 b 464 869 458 858 458 868 z m 415 692 b 504 665 429 713 471 700 b 504 611 535 633 535 635 b 396 501 476 589 415 528 b 379 490 382 485 383 485 b 415 692 361 513 383 638 z m 368 472 b 318 444 368 471 331 449 b 293 461 290 433 293 432 b 299 531 293 485 294 511 b 307 526 300 535 303 533 b 351 482 317 508 333 490 b 368 472 361 476 368 472 z m 246 706 b 250 717 243 711 246 717 b 261 706 256 717 263 710 b 246 706 260 700 247 700 z m 285 864 b 294 878 290 868 294 872 b 315 878 297 890 308 890 b 325 865 317 872 322 867 b 324 847 335 861 333 851 b 306 832 315 844 306 836 b 300 826 306 831 303 828 b 288 835 290 821 288 824 b 282 844 288 840 286 843 b 285 864 274 849 275 857 z m 336 110 b 325 88 332 107 328 97 b 301 89 317 64 307 64 b 290 100 300 94 297 97 b 288 126 278 106 278 111 b 299 147 292 132 296 142 b 321 149 304 169 313 169 b 333 131 325 142 331 133 b 336 110 342 125 343 119 z m 365 272 b 326 285 349 239 347 240 b 315 349 308 325 307 331 b 369 436 326 369 353 413 l 383 457 l 389 439 b 365 272 403 392 394 332 z m 556 122 b 544 122 553 118 550 118 b 551 135 538 128 542 135 b 556 122 558 135 561 128 z m 576 401 b 574 376 575 390 574 379 b 569 360 574 374 572 367 b 567 346 568 354 567 347 l 567 346 b 558 347 571 336 564 338 b 422 472 518 421 467 468 l 408 475 l 419 485 b 568 526 457 517 553 544 b 576 401 575 517 581 435 z m 647 660 b 639 668 646 665 644 668 b 639 688 631 671 631 678 b 653 706 643 692 649 700 b 672 706 660 721 667 721 b 682 692 675 700 679 693 b 682 674 690 688 689 676 b 665 656 675 671 671 667 b 647 660 658 642 650 643 z m 665 358 b 679 340 676 372 689 356 b 664 338 675 333 671 333 b 665 358 658 340 658 349 z m 671 61 b 671 74 667 65 667 69 b 685 63 676 78 686 68 b 671 61 682 57 675 57 z "},"R":{"ha":838,"x_min":0,"x_max":0,"o":"m 649 338 b 671 358 649 340 656 347 b 758 746 817 476 851 628 b 207 964 613 932 428 964 b 78 954 149 964 99 961 l 68 951 l 68 476 b 69 -1 68 217 69 1 b 178 -4 71 -6 79 -6 b 296 -3 236 -3 290 -1 b 319 164 317 -3 319 14 l 319 204 l 339 208 b 389 222 350 211 372 217 b 419 229 406 226 419 231 b 478 117 419 229 446 178 b 538 0 508 54 536 3 b 786 0 543 -4 786 -4 b 718 168 786 3 754 78 b 649 338 681 258 650 335 z m 360 881 b 379 889 369 883 378 886 b 394 900 389 901 390 901 b 401 892 397 899 400 894 b 419 888 403 888 404 886 b 426 871 442 888 446 881 b 417 858 417 865 415 864 b 400 840 424 833 421 831 b 374 838 390 844 382 843 b 356 846 353 822 346 825 b 361 860 360 853 363 860 b 351 865 361 861 357 863 b 360 881 336 871 339 876 z m 282 878 b 285 872 285 878 285 875 b 275 872 283 868 276 868 b 282 878 272 875 278 881 z m 522 828 b 529 810 528 828 533 817 b 513 810 526 804 515 804 b 522 828 511 818 515 828 z m 351 769 b 353 789 342 769 343 772 b 386 815 364 807 375 815 b 429 774 400 815 414 801 b 424 768 438 760 436 758 b 410 774 418 772 414 774 b 385 747 401 774 393 765 b 378 718 382 740 378 728 b 374 708 376 703 375 701 b 374 725 372 713 372 721 b 351 769 378 746 367 769 z m 208 772 b 200 758 204 767 200 761 b 196 754 200 757 199 754 b 188 761 189 751 188 753 b 179 771 188 767 185 768 b 178 786 171 775 169 779 b 185 796 182 789 185 793 b 200 801 185 808 196 813 b 210 792 201 797 206 793 b 208 772 219 789 219 785 z m 589 794 b 594 790 592 794 594 793 b 589 786 594 789 592 786 b 585 790 586 785 585 786 b 589 794 585 794 586 796 z m 299 694 b 324 736 308 708 319 728 b 344 754 333 753 336 754 b 357 724 354 756 357 749 b 378 682 357 697 368 682 b 393 710 385 682 392 690 b 421 749 396 743 408 761 b 438 743 425 743 429 742 b 457 731 447 743 449 743 b 485 696 461 724 475 708 b 539 618 529 644 539 631 b 521 596 539 604 533 596 b 494 603 514 596 506 599 b 464 610 482 607 471 610 b 458 563 439 610 435 590 b 465 549 474 546 475 540 b 438 544 457 556 444 553 b 424 511 431 538 429 532 b 415 521 422 501 419 504 b 385 563 408 549 397 563 b 346 508 365 563 349 525 b 338 524 342 493 340 496 b 317 564 336 553 332 558 b 318 585 301 569 301 569 b 322 607 333 599 335 604 b 306 611 318 607 311 610 b 289 613 301 613 293 613 b 299 694 261 613 264 639 z m 600 671 b 594 667 600 668 599 667 b 590 671 592 667 590 668 b 600 671 592 678 600 678 z m 682 596 b 689 604 685 597 688 600 b 701 601 692 613 699 611 b 708 592 703 597 706 593 b 701 575 714 589 713 583 b 683 576 689 565 683 565 b 682 582 683 581 682 582 b 682 596 678 582 678 594 z m 246 560 b 254 554 250 563 257 558 b 250 550 254 551 251 550 b 246 560 244 550 243 556 z m 490 428 b 421 394 436 436 422 429 b 408 350 421 360 419 356 b 388 346 400 347 393 346 b 358 388 368 346 358 360 b 349 439 357 435 358 433 b 329 443 344 442 338 443 b 292 439 321 443 308 442 b 257 476 242 431 229 444 b 288 528 274 494 279 504 b 308 553 293 544 301 553 b 321 529 315 553 321 544 b 343 475 322 496 332 475 b 361 499 350 475 357 482 b 383 543 369 529 376 543 b 399 517 389 543 394 535 b 425 482 404 494 415 482 b 438 496 431 482 435 486 b 444 519 439 501 442 513 b 461 531 449 536 450 536 b 481 528 467 528 472 526 b 507 518 493 529 494 529 b 490 428 563 475 553 418 z m 157 528 b 144 528 153 524 149 524 b 153 544 139 535 144 546 b 157 528 158 543 161 533 z m 654 510 b 661 514 656 513 658 514 b 667 497 667 514 671 503 b 654 510 658 489 649 499 z m 717 497 b 713 494 717 496 715 494 b 710 497 711 494 710 496 b 713 501 710 500 711 501 b 717 497 715 501 717 500 z m 372 278 b 353 275 361 267 358 267 b 346 285 351 279 347 283 b 347 297 340 286 340 292 b 351 307 350 300 351 304 b 369 304 351 315 360 314 b 372 278 382 292 382 290 z m 210 296 b 206 301 206 296 204 297 b 215 303 207 310 215 311 b 210 296 215 297 214 296 z m 560 292 b 550 293 558 281 550 282 b 554 299 550 297 551 299 b 560 292 558 299 560 297 z m 610 132 b 593 114 603 128 596 121 b 578 115 588 99 578 99 b 571 131 578 124 576 126 b 583 150 561 136 567 144 b 586 160 585 150 586 156 b 588 171 588 164 588 169 b 600 167 588 179 597 175 b 611 153 601 161 606 156 b 610 132 624 144 622 142 z m 213 126 b 199 122 210 121 204 118 b 201 147 193 126 196 147 b 213 126 213 147 218 138 z m 635 75 b 622 78 628 72 626 72 b 635 90 618 82 628 93 b 635 75 639 88 639 76 z m 682 78 b 683 85 682 81 682 82 b 693 81 686 88 694 85 b 682 78 692 76 685 75 z "},"S":{"ha":763,"x_min":0,"x_max":0,"o":"m 556 893 b 625 976 567 904 625 974 b 551 975 625 978 607 978 b 440 960 504 972 436 964 b 497 924 442 958 467 942 b 556 893 540 897 554 890 z m 576 890 l 628 889 b 681 886 656 888 679 886 b 689 885 682 885 685 885 b 690 968 700 885 701 964 b 667 974 681 971 674 974 b 613 932 650 974 638 963 z m 365 846 b 383 883 372 846 372 847 b 400 936 390 904 397 928 b 404 951 403 944 404 951 b 290 921 401 954 322 932 b 181 867 253 907 176 871 b 365 846 188 867 365 846 z m 425 861 b 522 883 442 867 506 883 b 424 947 526 885 429 947 b 393 854 422 947 397 871 b 425 861 392 850 389 850 z m 608 506 b 515 575 553 549 536 560 b 446 638 489 593 454 624 b 665 757 406 701 538 774 b 696 757 686 756 692 756 b 697 863 699 761 701 857 b 624 872 693 869 663 872 b 499 863 583 872 536 869 b 315 544 279 825 186 664 b 432 460 335 528 343 521 b 575 229 575 360 611 301 b 153 64 535 144 315 64 b 90 68 131 64 110 65 b 75 31 75 71 76 72 b 154 -18 74 -10 76 -11 b 522 33 281 -29 428 -8 b 608 506 757 136 799 364 z m 249 718 b 340 821 264 757 299 796 b 351 831 349 826 354 831 b 258 840 350 831 307 836 b 168 850 208 846 168 850 b 206 778 167 850 185 817 b 249 718 231 731 246 710 z m 147 843 b 83 781 143 843 99 800 b 31 610 44 729 22 656 b 35 600 32 604 33 600 b 231 692 39 600 231 690 b 147 843 231 697 150 843 z m 597 835 b 603 796 611 828 615 807 b 585 788 597 790 590 788 b 561 807 574 788 563 794 b 597 835 557 829 578 844 z m 406 761 b 424 792 403 775 411 789 b 449 750 449 799 467 768 b 431 742 443 744 436 742 b 406 761 419 742 408 749 z m 351 643 b 321 649 342 638 328 640 b 339 690 306 668 319 690 b 357 683 344 690 351 689 b 351 643 368 672 365 650 z m 236 674 l 138 628 b 60 582 72 597 46 582 b 160 581 71 582 115 581 b 251 578 203 579 244 578 l 263 578 l 254 594 b 239 660 246 610 243 624 z m 460 518 b 442 518 450 514 451 514 b 450 567 415 529 422 567 b 460 518 479 567 486 529 z m 192 394 b 221 381 207 386 219 381 b 258 561 222 381 260 560 b 149 564 257 561 208 563 l 40 565 l 46 553 b 192 394 69 490 119 438 z m 365 485 b 285 551 335 504 293 539 b 276 558 281 556 278 560 b 238 374 276 558 238 376 b 243 375 238 372 240 374 b 317 421 247 378 279 397 b 386 465 353 443 385 463 b 365 485 389 467 385 471 z m 503 178 b 474 407 601 246 592 318 b 410 449 419 447 411 454 b 372 304 401 422 372 307 b 425 233 374 303 397 271 b 483 168 464 183 474 168 b 503 178 489 168 493 172 z m 285 353 b 350 315 311 340 344 322 b 354 314 351 313 353 313 b 389 444 357 315 390 443 b 261 365 389 446 261 367 b 285 353 261 364 272 358 z m 604 399 b 572 403 592 390 583 392 b 588 444 557 417 568 443 b 604 399 613 444 625 413 z m 646 260 b 642 303 629 269 626 292 b 656 308 646 307 651 308 b 674 265 675 308 690 283 b 646 260 665 256 657 254 z m 446 175 b 381 263 449 175 428 203 b 367 265 371 275 367 276 b 332 228 367 260 344 236 l 321 221 l 332 217 b 393 193 338 214 365 204 b 446 175 421 183 446 175 z m 82 142 b 128 208 83 142 129 208 b 88 218 128 210 90 218 b 82 164 86 218 85 200 b 82 142 81 151 81 142 z m 263 114 b 282 171 265 124 274 149 b 290 210 296 208 296 211 b 210 203 272 204 243 203 b 178 194 185 203 174 200 b 219 143 181 192 200 168 l 257 99 z m 454 151 b 313 204 451 154 314 206 b 293 149 311 204 303 179 l 274 94 l 293 97 b 454 151 344 107 460 146 z m 103 82 b 240 90 131 79 235 85 b 201 139 240 90 224 113 b 144 200 144 207 147 204 b 110 150 143 197 128 175 b 103 82 68 90 68 88 z m 600 118 b 563 146 579 107 558 124 b 588 164 565 157 576 164 b 606 157 594 164 600 163 b 600 118 617 146 614 125 z m 471 44 b 433 65 453 35 433 46 b 457 90 433 81 444 90 b 474 85 463 90 468 89 b 471 44 486 74 486 51 z m 342 15 b 325 7 336 10 331 7 b 301 24 315 7 306 14 b 336 54 293 44 317 65 b 342 15 351 47 354 28 z m 208 7 b 189 -1 203 1 196 -1 b 168 13 181 -1 172 4 b 183 49 160 28 167 42 b 208 7 207 56 226 24 z "},"T":{"ha":789,"x_min":0,"x_max":0,"o":"m 779 963 b 633 957 771 969 632 965 b 740 839 640 922 682 878 b 768 836 764 824 767 822 b 779 963 772 869 781 961 z m 696 782 b 675 839 669 764 664 776 b 667 875 678 854 675 867 b 619 950 639 904 628 922 l 614 965 l 563 965 b 511 964 535 965 511 964 b 519 950 511 963 515 957 b 531 921 524 943 529 931 b 558 885 535 904 536 903 b 599 831 599 854 608 839 b 521 797 590 822 531 799 b 507 775 519 797 513 788 b 421 672 492 743 476 726 b 296 510 346 600 314 558 b 290 451 289 489 285 451 b 340 481 296 451 326 469 b 360 492 350 488 356 492 b 371 465 367 492 369 483 b 386 390 372 451 378 399 b 529 414 389 390 528 414 b 510 565 529 414 521 482 b 493 717 500 647 492 717 b 524 719 493 718 507 718 b 549 699 557 719 564 714 b 542 685 544 694 542 689 b 538 674 542 681 540 675 b 535 629 531 667 528 643 b 563 615 539 619 551 615 b 594 631 575 615 589 621 b 582 682 603 646 596 674 b 578 689 579 683 578 686 b 574 697 578 692 575 694 b 569 710 571 699 569 704 b 636 721 569 721 582 722 l 667 721 l 667 688 b 660 647 668 665 665 653 b 650 635 654 643 650 638 b 646 621 650 632 649 626 b 676 569 632 596 653 569 b 694 575 682 569 689 571 b 699 633 715 590 717 611 b 683 710 683 650 679 671 l 685 725 l 715 725 b 756 728 744 725 754 725 b 764 806 758 729 765 803 b 696 782 760 811 719 797 z m 263 711 l 299 713 l 297 694 b 290 550 296 676 290 560 b 304 565 290 546 294 550 b 333 607 313 578 325 596 b 342 694 350 626 353 658 b 347 721 336 713 339 721 b 365 715 353 721 358 719 b 414 692 386 704 411 692 b 483 767 419 692 472 749 b 508 932 513 817 525 896 b 338 963 493 965 508 963 b 140 911 143 963 158 967 b 115 864 129 876 124 864 b 103 869 111 864 108 865 b 74 889 99 874 85 882 l 53 901 l 38 892 b 31 800 14 878 15 883 b 46 719 39 760 46 722 b 78 708 47 707 49 707 b 103 694 106 710 118 704 b 94 667 99 693 97 688 b 114 646 93 656 103 646 b 129 651 119 646 125 647 b 132 682 138 657 139 676 b 125 694 131 683 126 693 b 163 710 111 706 119 708 b 204 708 186 710 204 708 b 190 683 204 707 194 689 b 214 631 172 660 189 631 b 231 635 219 631 225 632 b 232 689 250 644 251 675 b 228 694 229 690 228 693 b 224 703 228 696 225 700 b 263 711 217 710 224 711 z m 118 954 l 138 963 l 71 963 b 3 956 26 963 4 961 b 11 901 1 950 7 917 b 18 899 13 896 17 896 b 118 954 22 904 83 939 z m 92 896 b 113 883 103 889 113 882 b 129 940 117 885 132 940 b 71 910 125 940 71 913 b 92 896 71 910 81 903 z m 574 835 b 554 868 588 840 586 840 l 536 885 l 531 854 b 524 819 526 838 524 822 b 574 835 524 815 536 819 z m 721 813 l 736 819 l 715 836 b 693 850 703 844 693 851 b 686 803 692 849 686 810 b 696 800 686 797 689 797 b 721 813 700 804 711 810 z m 367 697 b 360 690 357 704 356 703 b 364 661 361 685 363 672 l 365 642 l 382 658 b 388 686 403 679 403 678 b 367 697 381 689 371 694 z m 101 654 b 108 664 100 660 103 664 b 114 657 113 664 114 663 b 101 654 114 650 104 649 z m 235 653 b 238 644 236 651 238 647 b 225 644 235 640 229 640 b 235 653 219 651 228 658 z m 576 647 b 588 640 582 650 588 646 b 576 635 586 635 579 632 b 576 647 574 638 574 646 z m 656 585 b 658 594 650 589 653 596 b 665 589 663 594 665 592 b 656 585 665 583 658 581 z m 336 397 b 364 393 349 393 364 392 b 361 415 364 394 363 404 b 356 454 358 428 357 444 b 344 464 354 465 350 468 b 296 436 335 456 300 436 b 336 397 281 436 313 404 z m 436 53 b 453 118 429 110 433 128 b 539 89 463 113 533 89 b 546 78 544 89 547 82 b 556 83 544 76 549 79 b 568 93 563 89 568 93 b 556 192 569 96 557 190 b 533 207 554 193 544 200 b 529 251 504 224 504 228 l 547 268 l 540 324 b 525 396 531 403 532 397 b 379 376 463 383 415 376 b 294 401 339 376 313 385 b 289 407 292 404 290 407 b 281 310 285 407 283 388 b 318 213 278 232 275 239 b 292 125 371 182 369 176 b 274 110 282 118 274 113 b 271 54 274 108 272 83 b 269 -3 269 24 268 -1 b 294 -8 272 -7 281 -8 b 440 24 339 -8 425 8 b 436 53 440 24 439 38 z m 542 221 b 553 229 554 214 554 214 b 539 238 551 246 550 247 b 542 221 528 229 528 228 z m 326 171 l 338 181 l 310 199 b 281 217 294 208 282 217 b 275 169 278 218 276 204 b 276 136 275 151 275 136 b 326 171 279 136 315 161 z m 449 100 b 454 39 447 99 453 47 b 460 35 456 36 457 35 b 504 53 465 35 476 39 l 538 69 l 506 81 b 463 96 489 86 469 93 b 449 100 456 99 449 100 z m 560 64 b 469 18 540 50 518 39 l 424 -3 l 499 -3 b 578 28 589 -3 582 -6 b 569 71 574 61 574 71 b 560 64 568 71 564 68 z "},"U":{"ha":924,"x_min":0,"x_max":0,"o":"m 882 985 b 744 979 881 993 890 994 b 617 967 681 972 622 967 b 603 914 601 965 601 967 b 368 379 611 581 472 264 b 321 960 293 461 274 692 b 190 967 324 974 332 974 b 64 958 81 961 68 960 b 54 904 63 957 58 933 b 389 4 -11 456 142 44 b 551 31 443 -6 499 4 b 890 760 738 121 869 408 b 882 985 894 833 890 957 z m 138 826 b 153 833 149 826 150 826 b 179 832 160 851 169 851 b 197 831 181 829 185 829 b 204 818 221 833 222 831 l 192 810 l 200 789 b 207 767 204 778 207 768 b 179 778 204 763 199 765 l 161 790 l 146 781 b 133 792 125 767 124 769 b 135 808 138 804 138 806 b 138 826 117 818 118 825 z m 172 681 b 158 678 172 672 161 671 b 167 686 157 683 160 686 b 172 681 171 686 172 685 z m 146 542 b 133 554 125 528 124 531 b 135 569 138 565 138 568 b 138 588 117 581 118 588 b 153 594 149 588 150 588 b 181 592 160 613 181 610 b 188 592 181 590 183 590 b 204 579 215 597 222 592 l 192 571 l 200 551 b 207 529 204 540 207 531 b 179 539 204 525 199 526 l 161 551 z m 168 463 b 175 474 167 468 169 474 b 179 465 178 472 179 469 b 168 463 179 458 171 456 z m 257 372 l 244 364 l 253 343 b 260 321 257 332 261 322 b 233 332 257 317 251 319 l 214 344 l 199 335 b 186 346 179 321 176 322 b 188 363 190 358 192 360 b 190 379 171 372 171 379 b 206 388 201 379 203 381 b 233 386 213 406 222 406 b 250 385 235 383 238 383 b 257 372 274 388 275 385 z m 285 251 b 290 263 279 257 283 264 b 296 256 294 263 296 260 b 285 251 296 249 289 246 z m 429 204 b 428 179 422 201 422 193 b 435 157 432 168 436 157 b 408 167 432 153 426 154 l 389 179 l 374 169 b 361 182 354 156 351 158 b 363 197 365 193 365 196 b 365 215 344 207 346 215 b 381 222 376 215 378 215 b 407 222 388 240 397 240 b 425 219 410 218 413 218 b 429 204 449 224 450 217 z m 500 214 b 488 214 496 208 490 208 b 494 225 486 219 489 225 b 500 214 501 225 504 219 z m 618 286 b 618 260 613 282 613 274 b 625 238 622 249 625 239 b 597 247 622 233 617 236 l 579 260 l 564 250 b 551 263 543 238 542 239 b 553 278 556 275 556 276 b 556 296 535 289 536 296 b 571 304 567 296 568 297 b 597 303 578 322 588 322 b 615 301 599 300 603 300 b 618 286 638 304 640 297 z m 643 363 b 639 372 638 361 635 369 b 649 368 642 376 650 374 b 643 363 649 365 646 363 z m 713 483 l 700 475 l 708 456 b 715 432 714 444 717 433 b 689 443 714 428 708 431 l 669 456 l 656 446 b 642 458 635 432 632 435 b 644 474 647 469 647 472 b 646 492 626 483 628 492 b 661 499 657 492 658 492 b 689 497 669 517 678 517 b 706 496 690 494 694 494 b 713 483 729 500 732 496 z m 699 565 b 711 561 703 569 711 567 b 706 556 711 557 710 556 b 699 565 699 554 694 561 z m 764 678 l 751 669 l 760 650 b 767 628 764 639 768 629 b 740 638 764 624 758 625 l 721 650 l 706 640 b 693 653 686 628 683 629 b 694 668 697 665 697 667 b 697 686 676 679 678 686 b 713 694 708 686 710 688 b 739 693 719 713 729 713 b 757 692 742 690 744 689 b 764 678 781 694 782 690 z m 721 772 b 733 765 726 778 733 774 b 728 760 733 763 732 761 b 721 772 719 760 715 767 z m 774 868 b 772 843 767 865 767 857 b 779 821 776 832 781 821 b 753 831 776 817 771 818 l 733 843 l 718 833 b 706 846 699 819 696 822 b 707 861 710 857 711 860 b 710 879 690 871 690 879 b 725 886 721 879 722 879 b 753 886 732 904 742 904 b 769 883 754 882 757 882 b 774 868 793 888 794 881 z "},"V":{"ha":889,"x_min":0,"x_max":0,"o":"m 704 971 b 508 989 521 993 513 994 b 501 899 504 983 497 903 b 543 897 503 896 511 896 l 582 899 l 549 863 b 478 771 469 781 461 768 b 553 771 494 772 550 772 b 515 675 558 767 556 761 l 475 590 l 500 590 b 522 583 522 589 524 589 b 497 460 522 581 511 525 b 472 340 485 396 474 342 b 392 586 471 339 392 581 b 413 590 392 588 400 589 l 433 590 l 406 635 b 374 768 313 782 317 765 b 367 822 422 769 422 765 b 313 879 347 843 322 868 l 293 900 l 322 900 b 360 950 363 901 363 900 b 350 985 358 972 356 985 b 7 967 339 985 11 967 b 83 658 6 965 35 849 b 204 193 128 490 182 281 b 247 31 226 106 246 32 b 413 22 250 28 294 26 b 651 21 622 17 649 15 b 729 328 654 24 685 142 b 808 651 736 353 771 497 b 876 940 854 835 878 933 b 704 971 876 947 819 957 z m 114 874 b 96 888 107 865 93 875 b 114 899 96 897 107 904 b 114 874 118 894 119 878 z m 175 599 b 165 601 171 596 169 596 b 172 614 161 606 165 614 b 175 599 178 614 181 603 z m 226 672 b 250 686 226 689 240 696 b 249 658 254 681 254 665 b 226 672 242 650 226 660 z m 274 408 b 254 428 268 417 261 424 b 249 444 243 432 240 442 b 260 475 254 447 258 456 b 278 482 261 501 268 504 b 303 461 285 469 286 467 b 303 447 308 460 308 451 b 293 413 294 440 290 425 b 294 399 294 407 294 400 l 294 399 b 274 408 290 390 282 394 z m 286 288 b 289 300 283 290 285 297 b 300 293 296 304 300 300 b 286 288 299 286 290 283 z m 317 133 b 307 135 313 131 311 131 b 313 146 300 139 303 146 b 317 133 319 144 324 136 z m 382 401 b 371 408 374 397 371 400 b 382 418 371 415 376 421 b 382 401 388 417 388 403 z m 522 83 b 507 83 519 79 511 79 b 517 96 504 89 508 96 b 522 83 524 96 528 89 z m 501 176 b 475 165 488 176 478 172 b 453 165 468 149 460 149 b 404 179 449 176 440 179 b 393 190 394 179 390 183 b 414 207 393 192 403 199 b 435 222 425 214 435 221 b 428 243 435 222 432 232 b 449 260 418 276 425 282 b 467 247 457 254 464 247 b 489 258 468 246 478 251 b 518 260 513 275 529 276 b 501 224 514 254 503 231 b 515 206 500 218 503 215 b 501 176 542 183 539 176 z m 581 613 b 586 601 588 613 590 606 b 572 601 582 596 574 596 b 581 613 569 607 574 613 z m 586 289 b 574 296 581 282 572 286 b 581 301 575 300 576 301 b 586 289 589 301 592 294 z m 618 153 b 601 153 617 147 606 147 b 601 160 599 156 599 157 b 618 153 608 168 622 161 z m 636 390 b 613 390 632 385 619 386 b 619 422 601 397 607 422 b 636 390 635 422 646 400 z m 667 758 b 642 763 663 751 649 754 b 649 781 638 768 640 779 b 667 758 661 785 675 767 z m 711 592 b 704 603 704 592 701 597 b 717 600 707 610 717 607 b 711 592 717 594 715 593 z m 778 871 b 765 867 775 863 767 860 b 778 882 760 878 771 892 b 778 871 781 879 781 876 z "},"W":{"ha":1061,"x_min":0,"x_max":0,"o":"m 947 942 b 833 971 878 961 847 971 b 818 953 821 971 819 964 b 796 846 817 942 807 894 b 763 694 785 799 771 729 b 719 497 742 593 721 499 b 718 503 719 497 718 500 b 690 636 714 519 694 614 b 681 658 685 658 685 661 b 681 646 678 654 678 653 b 665 642 686 632 674 628 b 654 642 660 651 653 651 b 638 643 657 628 643 629 b 631 651 636 647 633 651 b 624 653 629 651 626 651 b 621 646 621 654 621 653 b 608 640 621 636 611 632 b 582 656 604 651 600 654 b 564 657 572 657 564 657 b 594 631 564 651 589 631 b 611 615 611 631 621 622 b 628 603 603 608 617 600 b 639 590 644 608 653 597 b 657 569 628 585 639 571 b 658 556 671 568 672 557 b 650 549 651 554 650 554 b 639 538 650 542 644 536 b 635 550 636 539 635 543 b 619 565 635 564 621 578 b 606 574 615 550 606 556 b 600 593 606 585 604 589 b 594 594 596 599 594 599 b 578 606 594 581 581 589 b 551 642 576 617 558 642 b 550 611 538 642 536 618 b 550 596 563 606 563 594 b 550 574 535 597 535 588 b 561 560 558 567 563 563 b 543 560 558 554 549 554 b 539 553 539 563 539 563 b 549 538 539 543 539 542 b 540 524 567 528 560 515 b 526 524 532 528 531 528 b 515 533 515 514 506 525 b 517 560 524 542 525 564 b 500 561 507 553 500 554 b 513 575 500 567 503 569 b 524 588 521 579 524 583 b 521 590 524 593 522 593 b 506 590 517 588 506 588 b 500 593 506 592 503 593 b 493 601 496 594 494 596 b 482 585 490 615 479 599 b 474 560 485 568 482 560 b 467 574 468 560 467 561 b 451 554 465 588 454 572 b 435 547 449 533 435 528 b 419 565 435 558 429 564 b 426 579 406 568 411 579 b 449 599 444 579 460 592 b 458 611 436 608 444 618 b 474 615 465 608 467 608 b 475 626 482 624 482 626 b 463 635 467 626 463 629 b 479 640 464 639 467 640 b 501 657 500 640 507 646 b 475 656 496 668 483 667 b 460 660 467 640 453 646 b 460 667 461 664 461 667 b 450 668 460 667 454 667 b 433 657 444 669 442 668 b 419 644 426 646 424 643 b 417 661 411 646 410 653 b 408 671 425 671 424 671 b 389 661 396 671 394 671 b 378 672 376 643 365 653 b 378 692 386 683 386 685 b 358 633 371 699 374 704 b 328 524 331 496 332 504 b 221 963 292 676 224 958 b 215 967 219 965 219 967 b 169 956 211 967 200 964 b 75 928 144 949 103 936 b 19 913 47 921 22 914 b 17 876 11 910 11 903 b 89 583 19 867 51 733 b 164 278 126 432 160 294 l 172 247 l 189 253 b 215 258 199 257 207 258 b 256 240 228 258 240 253 b 311 206 282 219 297 210 b 338 200 321 201 329 200 b 389 228 354 200 368 208 b 467 268 418 253 443 267 b 485 278 482 269 483 269 b 506 361 486 282 496 319 b 525 435 515 403 525 436 b 574 235 526 435 574 238 b 631 221 574 232 610 222 b 722 246 661 219 675 224 b 821 276 767 267 796 276 b 879 256 842 276 858 269 b 890 261 885 253 889 254 b 965 567 893 268 926 404 b 1043 879 1006 728 1040 869 b 946 942 1051 915 1061 910 z m 379 706 b 393 699 382 707 386 706 b 411 689 399 693 404 689 b 418 690 418 688 419 688 b 418 706 413 694 414 704 b 433 696 421 707 426 704 b 449 690 443 683 456 679 b 453 704 443 699 446 704 b 464 710 456 704 460 707 b 472 718 467 714 471 717 b 449 732 483 722 461 736 b 440 746 432 728 424 739 b 440 758 449 750 449 750 b 422 765 436 763 431 765 b 419 781 406 767 404 779 b 432 790 429 781 429 782 b 447 788 436 807 449 806 b 451 769 446 778 446 775 b 461 774 458 764 458 764 b 475 772 465 785 474 785 b 474 757 475 768 475 761 b 478 744 471 753 472 750 b 486 747 482 739 485 740 b 503 751 490 758 501 761 b 510 747 503 747 504 746 b 521 746 513 747 518 747 b 528 756 525 743 532 753 b 518 764 528 757 524 760 b 524 779 503 775 507 786 b 521 797 532 776 529 789 b 514 810 517 801 514 807 b 528 814 514 818 521 819 b 540 815 531 810 535 810 b 550 803 553 828 563 817 b 550 790 542 793 542 782 b 553 771 563 803 564 783 b 543 756 547 765 543 758 b 547 754 543 750 544 750 b 556 757 549 756 553 758 b 553 735 564 756 563 747 b 547 700 543 722 539 700 b 557 722 553 700 556 706 b 571 732 558 740 569 749 b 585 744 572 718 583 729 b 600 761 585 765 593 775 b 618 781 604 753 615 764 b 629 799 622 797 622 799 b 636 790 635 799 636 797 b 633 781 636 790 635 786 b 642 769 632 774 633 772 b 638 754 656 763 653 754 b 614 735 624 756 601 738 b 608 721 632 733 626 718 b 588 714 596 721 594 721 b 589 707 583 710 583 707 b 604 697 600 707 604 704 b 582 692 604 692 604 692 b 582 674 554 693 556 676 b 613 681 606 671 606 671 b 628 676 621 693 636 690 b 632 669 624 669 624 669 b 644 676 638 669 640 671 b 658 675 650 688 660 686 b 671 671 658 665 665 663 b 676 676 672 674 675 676 b 671 732 682 676 682 676 b 651 824 664 760 656 800 b 638 889 646 846 640 876 b 628 940 635 903 631 925 l 624 967 l 525 968 b 428 967 471 968 428 968 b 424 946 426 965 425 956 b 414 901 421 935 417 915 b 392 792 411 888 401 838 b 379 706 371 696 372 704 z m 151 875 b 144 888 151 882 150 885 b 144 906 133 892 133 899 b 160 921 150 908 157 915 b 176 925 167 931 172 932 b 181 886 190 899 192 892 b 168 872 178 885 172 879 b 151 875 158 857 151 857 z m 500 921 b 503 903 507 919 508 908 b 488 901 500 899 490 899 b 500 921 481 908 492 924 z m 869 863 b 854 892 846 856 838 872 b 865 910 860 897 864 906 b 883 914 868 921 878 924 b 878 864 889 901 885 864 b 869 863 878 864 874 863 z m 83 821 b 64 818 81 817 68 814 b 65 836 61 821 63 832 b 83 821 75 844 89 833 z m 978 813 b 967 813 972 810 968 810 b 976 826 961 818 969 829 b 978 813 983 825 983 815 z m 211 782 b 222 774 217 783 222 781 b 214 768 222 769 221 768 b 211 782 206 768 203 778 z m 526 713 b 515 729 526 724 525 724 b 503 739 510 732 504 738 b 500 732 501 743 501 742 b 511 710 500 722 501 719 b 526 713 524 697 526 699 z m 478 701 b 475 689 469 697 468 693 b 497 699 494 674 514 682 b 478 701 492 704 485 706 z m 906 654 b 892 649 903 650 897 649 b 892 679 875 649 874 669 b 906 654 906 688 918 667 z m 119 653 b 111 653 114 651 115 651 b 117 665 106 657 108 665 b 119 653 124 667 126 656 z m 508 615 b 515 610 508 607 511 604 b 522 639 524 617 528 639 b 508 615 515 639 508 626 z m 781 604 b 785 615 778 610 781 615 b 793 604 790 615 796 608 b 781 604 792 600 782 600 z m 929 568 b 924 567 928 568 925 567 b 914 575 919 565 914 569 b 928 582 914 579 922 583 b 929 568 932 579 933 568 z m 250 496 b 235 496 243 488 235 488 b 226 508 235 499 231 504 b 224 507 219 515 217 514 b 217 494 229 500 226 494 b 208 492 213 494 208 493 b 193 493 206 488 194 489 b 196 503 192 496 193 500 b 197 508 203 510 203 514 b 164 508 190 501 167 501 b 179 519 163 514 169 519 b 189 528 189 519 196 526 b 179 526 186 529 182 529 b 169 539 174 522 168 529 b 181 544 172 544 172 546 b 186 549 189 543 189 543 b 178 556 185 551 181 556 b 179 571 171 557 171 565 b 194 567 186 576 194 575 b 207 554 194 558 206 549 b 207 563 208 556 208 560 b 211 575 203 569 206 575 b 224 560 218 575 221 571 b 229 557 225 553 225 553 b 244 557 233 564 242 564 b 240 542 249 549 246 542 b 233 539 238 542 233 540 b 238 539 232 538 233 538 b 254 531 251 543 254 542 b 253 515 254 524 254 518 b 251 513 250 514 250 513 b 250 496 257 513 257 504 z m 842 422 b 828 411 838 421 831 415 b 819 401 825 407 821 403 b 814 397 818 399 815 397 b 807 413 808 397 808 401 b 800 424 806 419 804 422 b 801 439 790 425 790 436 b 822 460 811 443 819 450 b 840 457 826 475 840 474 b 847 442 840 451 843 446 b 842 422 854 432 853 426 z m 418 436 b 407 436 413 433 413 433 b 413 449 401 439 406 447 b 418 436 421 449 425 442 z m 658 361 b 642 360 649 357 647 357 b 640 401 626 368 626 382 b 667 401 654 419 658 419 b 658 361 676 379 675 368 z m 194 346 b 201 357 193 351 196 358 b 206 350 204 357 206 354 b 194 346 206 343 197 339 z m 286 322 b 279 342 276 321 271 335 b 292 333 286 349 292 344 b 286 322 292 325 290 324 z m 474 332 b 461 333 472 328 463 329 b 468 342 460 338 463 342 b 474 332 472 342 476 336 z m 868 313 b 864 324 861 311 858 318 b 875 318 869 329 876 326 b 868 313 875 315 872 313 z m 353 282 b 346 293 344 282 342 288 b 358 288 351 299 358 294 b 353 282 358 282 357 282 z m 876 238 b 822 258 858 251 843 258 b 726 228 799 258 769 249 b 636 204 690 211 664 204 b 596 208 622 204 610 206 b 581 213 588 211 581 213 b 592 164 579 211 585 190 b 618 56 599 138 610 88 l 633 -6 l 661 -4 b 758 0 676 -3 721 -1 b 842 56 839 4 826 -4 b 868 168 847 83 860 133 b 876 238 879 210 882 233 z m 413 225 b 383 200 404 218 392 207 b 335 183 369 189 353 183 b 261 215 311 183 286 193 b 213 240 239 233 226 240 b 189 235 206 240 199 239 b 194 149 174 229 172 239 b 222 38 206 107 218 57 l 231 3 l 268 1 b 361 1 288 1 331 1 l 418 1 l 426 35 b 476 243 453 142 475 236 b 468 251 478 249 475 251 b 413 225 456 251 432 240 z "},"X":{"ha":764,"x_min":0,"x_max":0,"o":"m 360 456 b 363 436 354 453 356 444 b 378 438 369 429 376 429 b 360 456 379 443 365 457 z m 639 242 b 524 472 575 367 524 469 b 632 713 524 474 572 582 b 740 956 692 843 740 953 b 504 954 739 960 508 960 b 446 846 501 953 476 904 b 389 739 415 789 390 740 b 332 847 388 738 363 786 b 263 958 294 919 272 957 b 31 968 222 963 33 971 b 40 931 25 964 25 964 b 251 479 100 806 251 482 b 54 97 251 476 208 393 b 8 -4 7 8 4 1 b 172 0 11 -7 46 -7 b 315 19 321 7 310 6 b 392 185 335 64 390 185 b 471 18 393 185 464 35 b 579 7 474 11 510 8 b 715 3 636 6 699 4 b 754 10 747 1 754 1 b 639 242 754 11 701 115 z m 600 761 b 606 772 594 765 597 772 b 611 767 610 772 611 771 b 600 761 611 760 607 757 z m 504 901 b 528 904 515 897 517 897 b 578 915 543 914 561 918 b 599 919 589 913 590 913 b 613 925 606 926 608 926 b 613 908 617 922 617 919 b 618 901 611 906 613 904 b 619 885 626 897 626 888 b 615 879 615 883 614 882 b 601 863 624 861 615 851 b 590 867 594 869 593 869 b 535 851 579 851 554 844 b 517 844 528 854 521 851 b 506 831 513 839 508 832 b 494 831 500 828 500 828 b 494 851 489 835 489 843 b 494 861 499 860 499 861 b 488 879 483 861 481 872 b 488 889 492 882 492 886 b 504 901 475 897 486 907 z m 472 783 b 483 785 474 790 483 792 b 478 778 483 781 482 779 b 472 783 474 778 472 778 z m 503 638 b 529 703 536 678 540 692 b 493 692 518 714 493 706 b 481 688 493 686 486 683 b 533 721 461 703 508 735 b 518 628 561 707 557 681 b 485 585 504 611 490 590 b 463 576 476 572 467 568 b 503 638 461 581 475 603 z m 436 621 b 436 610 440 617 440 614 b 422 614 429 603 422 604 b 436 621 422 619 431 625 z m 326 733 b 335 725 332 735 336 731 b 325 721 335 721 328 718 b 326 733 322 724 322 732 z m 253 903 b 261 896 258 904 263 901 b 251 890 261 890 254 888 b 253 903 249 894 249 901 z m 100 910 b 82 910 93 903 86 903 b 100 931 69 922 88 943 b 100 910 107 924 107 917 z m 183 713 b 189 726 179 719 182 726 b 196 721 196 728 196 726 b 183 713 196 713 188 708 z m 203 844 b 179 825 188 851 178 843 b 164 821 181 808 169 806 b 221 853 153 854 196 878 b 265 761 233 839 269 767 b 231 803 257 751 254 754 b 203 844 214 836 210 842 z m 214 353 b 224 340 222 353 228 344 b 204 340 219 336 207 336 b 214 353 203 347 206 353 z m 151 83 b 144 94 144 83 142 89 b 157 92 147 101 157 99 b 151 83 157 86 156 85 z m 190 193 b 185 178 189 188 188 181 l 185 178 b 168 185 179 165 168 169 b 160 194 168 194 168 194 b 154 210 150 193 147 203 b 153 217 158 214 158 215 b 144 231 146 218 142 226 b 160 235 144 232 153 233 b 185 244 171 236 176 239 b 231 265 199 257 221 267 b 247 276 239 264 240 265 b 268 288 260 296 263 297 b 267 275 269 285 269 282 b 269 264 264 269 265 265 b 275 247 278 261 281 250 b 278 236 272 247 274 243 b 257 224 288 219 276 213 b 235 222 250 228 243 228 b 207 210 228 218 215 213 b 190 193 193 204 192 203 z m 294 33 b 281 33 292 29 283 29 b 272 69 279 35 275 51 b 254 121 267 108 264 115 b 228 94 240 128 226 114 b 214 90 228 82 218 79 b 268 131 201 124 240 153 b 294 33 279 122 300 47 z m 311 392 b 294 399 304 385 294 389 b 313 406 294 410 308 415 b 311 392 317 399 315 396 z m 332 167 b 333 178 329 169 331 176 b 343 171 339 181 344 176 b 332 167 342 165 336 163 z m 333 604 b 321 613 326 599 321 601 b 308 628 321 625 313 633 b 308 614 306 624 306 621 b 310 601 310 610 310 604 b 296 603 307 596 297 597 b 283 588 293 615 283 604 b 268 588 283 571 274 571 b 260 597 268 593 265 596 b 265 611 247 601 253 614 b 272 621 274 608 278 615 b 281 633 263 628 267 633 b 294 643 293 633 301 639 b 288 644 293 644 289 646 b 274 656 275 639 263 647 b 264 661 281 660 272 665 b 254 675 251 656 244 665 b 260 689 258 678 260 682 b 264 701 260 696 261 700 b 275 688 268 703 275 696 b 285 679 275 679 285 672 b 301 672 288 692 299 688 b 311 669 304 650 314 647 b 324 679 310 683 315 689 b 332 689 329 672 332 676 b 346 693 332 700 342 703 b 357 685 347 690 353 686 b 356 669 369 682 368 669 b 343 660 343 669 336 664 b 336 647 356 654 351 647 b 324 644 325 649 322 647 b 340 640 324 640 328 640 b 351 626 358 640 364 633 b 368 613 343 622 360 608 b 372 597 382 617 385 603 b 364 588 367 594 364 592 b 351 579 364 582 357 576 b 349 590 350 579 349 583 b 333 604 349 603 340 611 z m 368 360 b 354 360 364 357 357 357 b 360 374 353 364 356 372 b 368 360 369 376 375 367 z m 354 440 b 361 489 347 454 351 481 b 368 503 364 490 367 497 b 407 506 371 526 407 528 b 417 496 407 501 410 499 b 411 425 444 485 442 440 b 354 440 393 415 364 424 z m 525 265 b 507 261 535 249 519 246 b 489 263 497 272 492 274 b 499 249 489 257 490 254 b 496 233 511 240 510 225 b 488 229 489 236 488 236 b 494 218 488 225 490 221 b 486 206 506 208 499 199 b 474 204 481 207 478 207 b 464 215 461 196 453 206 b 465 232 472 222 474 235 b 465 250 454 228 453 243 b 472 261 471 253 472 256 b 460 258 472 271 469 271 b 446 249 454 251 450 249 b 442 261 438 249 436 254 b 428 265 449 271 443 272 b 415 276 411 257 400 267 b 417 285 419 281 419 281 b 435 290 408 296 422 300 b 447 290 442 283 447 283 b 461 293 447 299 456 300 b 474 290 467 285 471 285 b 465 304 476 297 475 299 b 467 321 449 313 450 326 b 472 331 478 315 482 324 b 464 350 465 335 460 344 b 478 347 467 354 475 353 b 486 349 479 343 481 344 b 494 336 500 363 508 350 b 496 326 486 326 488 318 b 504 328 500 329 501 329 b 500 307 513 324 511 318 b 496 286 489 296 488 289 b 504 294 499 286 501 289 b 519 296 508 307 519 307 b 535 296 519 286 531 286 b 550 292 540 307 551 304 b 554 276 549 285 550 282 b 558 267 557 274 558 269 b 542 265 557 260 547 260 b 525 265 535 274 519 274 z m 624 154 b 610 161 617 138 604 144 b 606 189 613 172 611 186 b 568 92 593 193 588 179 b 560 67 565 81 561 69 b 549 85 550 50 542 63 b 561 136 550 94 557 118 b 604 206 575 192 582 206 b 624 154 621 206 633 176 z m 650 58 b 643 78 639 57 635 71 b 656 69 650 85 656 81 b 650 58 656 61 656 60 z m 678 54 b 674 65 671 53 668 60 b 685 60 678 69 686 67 b 678 54 685 57 682 54 z "},"Y":{"ha":700,"x_min":0,"x_max":0,"o":"m 546 931 b 672 979 600 944 678 975 b 465 953 671 981 468 954 b 436 881 464 951 458 938 b 439 878 435 876 435 875 b 546 931 474 906 500 918 z m 411 788 l 403 800 l 372 731 b 339 661 356 692 340 661 b 321 743 339 661 331 697 b 297 821 301 833 303 829 b 203 715 290 811 263 779 b 108 594 132 636 108 607 b 138 471 108 585 135 475 b 151 467 139 469 146 467 b 308 525 192 458 231 474 b 553 610 432 607 474 621 b 581 657 558 610 568 625 l 600 706 l 567 711 b 411 788 475 725 433 746 z m 219 569 b 206 571 217 565 207 567 b 213 582 204 576 207 582 b 219 569 218 582 222 574 z m 461 651 b 454 663 456 650 451 656 b 467 658 457 669 467 665 b 461 651 467 654 465 651 z m 507 596 b 315 508 457 596 421 579 b 171 450 242 460 218 450 b 142 447 156 450 142 449 b 158 372 142 446 149 413 b 175 296 168 332 175 299 b 115 160 175 294 149 232 b 61 14 51 17 53 22 b 190 7 65 10 108 7 b 336 46 335 7 318 3 b 285 129 351 83 350 85 b 211 242 225 169 211 190 b 396 372 211 318 243 340 b 472 390 436 381 471 389 b 553 589 476 394 553 585 b 507 596 553 594 536 596 z m 167 85 b 169 97 163 89 165 96 b 179 89 176 99 181 96 b 167 85 178 85 169 82 z m 376 461 b 383 471 374 467 376 471 b 388 465 386 471 388 469 l 388 465 b 376 461 386 458 378 456 z m 461 368 b 396 354 460 368 431 361 b 229 265 271 329 242 313 b 301 139 217 217 235 183 b 342 107 318 128 336 114 b 354 96 347 101 354 96 b 464 368 356 96 464 364 b 461 368 464 369 463 369 z m 343 221 b 328 221 338 217 332 217 b 331 232 322 225 324 226 b 343 221 340 238 351 229 z m 106 628 b 199 736 118 646 135 665 b 296 853 267 810 296 846 b 271 963 296 861 274 961 b 126 925 254 981 172 960 b 57 854 108 911 68 871 b 100 628 51 844 64 772 b 106 628 101 624 103 624 z m 167 839 b 174 832 172 839 174 839 b 163 826 174 824 167 821 b 167 839 157 832 160 839 z m 681 964 b 561 917 654 947 613 932 b 572 725 369 863 376 757 b 656 844 610 719 600 706 b 681 964 714 990 713 982 z m 574 783 b 558 783 572 779 560 779 b 564 796 556 789 558 796 b 574 783 571 796 576 789 z m 157 964 b 99 969 164 967 144 969 b 24 954 18 971 13 971 b 33 918 25 951 31 935 b 43 878 38 901 42 883 l 46 868 l 54 878 b 157 964 78 910 126 950 z "},"Z":{"ha":771,"x_min":0,"x_max":0,"o":"m 157 58 b 150 31 153 58 150 49 b 157 4 150 4 150 4 b 161 18 163 4 163 6 b 176 43 160 35 164 43 b 192 18 185 43 190 35 b 199 4 192 6 192 4 b 206 33 204 4 206 14 l 206 61 l 185 60 b 157 58 174 58 161 58 z m 563 228 b 379 236 463 232 381 235 b 740 943 378 238 713 894 b 751 982 756 969 758 979 b 164 975 747 983 426 979 b 129 964 140 974 129 971 b 178 772 129 954 175 779 b 297 767 181 768 189 767 b 411 761 375 767 413 765 b 206 396 407 757 263 500 b 110 225 194 376 153 301 b 10 49 79 171 26 76 b -3 11 -4 25 -7 17 b 67 6 -1 8 22 7 l 135 4 l 135 31 b 128 58 135 49 133 58 b 143 113 115 60 118 68 b 214 119 183 188 178 186 b 229 61 238 72 240 63 b 224 32 224 60 224 60 l 224 4 l 239 4 b 251 13 249 4 253 7 b 257 39 249 19 251 33 b 250 49 258 42 257 43 b 256 65 238 58 242 74 b 265 71 261 61 261 61 b 274 82 268 76 271 82 b 274 89 276 83 276 85 b 272 104 272 92 272 99 b 251 104 274 119 263 119 b 232 101 246 94 239 94 b 236 118 226 107 228 114 b 251 129 239 119 246 125 b 314 104 278 156 317 140 b 318 82 314 90 315 85 b 322 69 321 79 322 74 b 329 68 322 64 325 64 b 339 72 332 71 336 74 b 335 53 347 71 346 63 b 329 35 325 43 325 43 b 331 10 333 26 333 17 b 489 3 326 4 360 3 l 589 3 l 589 14 b 590 28 589 19 589 26 b 585 33 592 31 589 32 b 576 40 579 33 576 35 b 597 46 575 53 590 58 b 610 44 601 36 606 36 b 621 47 613 54 617 56 b 631 44 624 44 625 43 b 636 39 636 46 636 44 b 629 31 636 33 635 32 b 622 19 621 29 621 29 b 624 7 624 15 624 10 b 639 1 624 3 626 3 b 692 4 676 -1 686 0 b 753 207 700 10 754 194 b 563 228 750 222 758 221 z m 206 883 b 210 896 201 886 204 896 b 215 890 213 896 215 893 b 206 883 217 883 211 881 z m 228 794 b 228 801 226 797 226 800 b 240 796 232 804 240 801 b 228 794 240 790 231 788 z m 669 931 b 678 918 678 931 682 924 b 663 918 674 914 665 913 b 669 931 660 925 663 931 z m 567 683 l 567 683 b 554 679 567 676 557 674 b 561 690 551 686 556 692 b 567 683 565 690 567 689 z m 517 901 b 532 915 525 906 529 908 b 550 915 538 931 550 929 b 557 901 550 913 553 906 b 551 881 565 892 564 886 b 536 864 546 876 539 871 b 518 868 526 847 518 850 b 511 882 518 876 517 879 b 517 901 501 889 503 896 z m 472 565 b 490 564 481 571 483 571 b 489 536 497 557 497 540 b 481 532 486 533 482 532 b 472 565 467 532 461 557 z m 433 665 b 443 654 440 665 444 660 b 428 654 442 650 429 650 b 433 665 425 660 428 665 z m 369 826 b 363 821 368 822 367 821 b 361 838 354 821 353 833 b 369 826 368 840 371 835 z m 404 933 b 410 944 400 938 404 944 b 414 933 415 944 418 938 b 404 933 410 928 407 928 z m 383 354 b 397 349 389 360 397 357 b 390 342 397 344 396 343 b 383 354 383 342 379 347 z m 69 54 b 57 54 65 49 60 49 b 64 65 56 60 58 65 b 69 54 71 65 74 60 z m 115 181 b 103 181 114 176 104 176 b 110 190 101 186 104 190 b 115 181 114 190 117 185 z m 232 301 b 236 314 226 304 229 313 b 242 303 243 314 246 308 b 232 301 238 299 236 297 z m 253 199 b 246 194 253 196 249 194 b 243 208 238 194 236 206 b 253 199 249 211 256 204 z m 322 475 b 304 456 314 471 310 467 b 286 458 294 435 282 436 b 279 474 288 469 288 469 b 281 493 268 478 268 485 b 293 511 289 499 292 503 b 318 519 301 542 315 546 b 326 497 319 507 321 503 b 322 475 335 488 335 482 z m 425 69 b 431 81 422 75 426 81 b 435 74 433 79 435 76 b 425 69 435 65 428 63 z m 433 192 b 428 203 428 192 425 199 b 439 197 432 207 439 203 b 433 192 439 194 438 192 z m 526 96 b 522 107 522 96 518 103 b 532 101 526 110 533 107 b 526 96 532 99 529 97 z m 571 178 b 554 172 569 169 557 165 b 565 185 553 178 558 185 b 571 178 571 185 571 183 z m 603 142 b 615 128 610 142 617 132 b 611 126 614 125 613 124 b 606 129 608 128 607 129 b 600 122 604 129 603 125 b 596 119 597 115 596 115 b 593 128 596 124 594 126 b 603 142 589 132 594 142 z m 583 117 b 594 118 589 126 592 128 b 604 117 596 110 604 110 b 610 121 604 124 607 126 b 615 122 611 119 613 119 b 624 121 618 126 619 126 b 629 99 635 107 636 103 b 626 90 625 94 624 93 b 626 85 628 88 628 86 b 622 86 625 83 624 85 b 614 82 619 90 617 89 b 611 86 613 78 611 78 b 599 89 611 99 603 100 l 599 89 b 596 76 597 85 596 79 b 594 78 594 72 594 72 b 588 85 593 81 592 85 b 586 89 585 86 583 88 b 583 97 590 92 589 96 b 583 117 576 99 576 104 z m 631 64 b 629 56 626 63 626 60 b 622 51 633 47 626 43 b 607 49 619 57 611 56 b 599 49 604 42 601 42 b 586 60 597 51 592 57 b 579 79 575 67 574 71 b 592 75 583 85 592 83 b 594 71 592 72 593 71 b 599 75 597 71 599 72 b 607 93 599 82 604 93 b 608 83 608 93 608 89 b 615 78 608 72 614 69 b 625 82 617 82 619 82 b 631 64 635 81 638 69 z m 661 158 b 646 156 660 154 649 153 b 649 172 643 160 644 169 b 661 158 658 176 667 168 z m 674 121 b 668 126 668 121 667 122 b 674 132 668 131 669 132 b 679 126 676 132 679 131 b 674 121 681 122 679 121 z m 192 124 l 181 144 l 172 131 b 154 96 168 124 160 108 l 142 75 l 217 75 l 210 89 b 192 124 206 96 197 111 z "},"[":{"ha":481,"x_min":0,"x_max":0,"o":"m 431 154 b 354 169 428 158 413 161 b 281 181 314 175 282 181 b 289 861 279 182 288 860 b 404 849 290 864 400 851 b 417 856 411 846 417 849 b 381 1039 417 874 385 1038 b 372 1042 379 1039 375 1040 b 75 1056 363 1047 82 1060 b 69 538 71 1053 69 879 b 82 19 69 -18 68 15 b 211 15 86 19 144 18 b 400 17 389 8 396 8 b 431 154 406 26 433 150 z "},"\\":{"ha":760,"x_min":0,"x_max":0,"o":"m 253 1051 b 149 1097 243 1075 256 1069 b 69 1108 79 1115 72 1117 b 233 688 69 1106 179 832 b 413 218 288 543 368 332 b 493 6 456 103 492 7 b 599 17 496 -1 497 -1 b 690 36 661 28 689 33 b 253 1051 693 40 581 301 z "},"]":{"ha":481,"x_min":0,"x_max":0,"o":"m 411 538 b 406 1056 411 881 408 1053 b 108 1042 399 1060 118 1047 b 99 1039 106 1040 101 1039 b 64 857 96 1038 64 874 b 76 849 64 849 69 846 b 192 861 81 851 190 864 b 200 181 193 860 201 182 b 125 169 199 181 165 175 b 50 154 68 161 53 158 b 81 17 47 150 75 26 b 257 15 86 8 78 8 b 400 19 333 18 397 19 b 411 538 411 14 411 -11 z "},"^":{"ha":581,"x_min":0,"x_max":0,"o":"m 386 1067 b 226 1058 381 1072 233 1065 b 168 911 225 1057 199 990 b 76 674 138 832 97 725 b 43 575 49 599 42 578 b 97 571 46 569 49 569 b 183 574 125 572 164 574 b 257 685 226 574 217 560 b 292 786 275 740 290 786 b 369 589 293 786 369 593 b 454 579 369 582 379 581 b 535 583 506 578 533 579 b 386 1067 538 592 396 1057 z "},"_":{"ha":547,"x_min":0,"x_max":0,"o":"m 506 68 l 504 121 l 446 119 b 139 110 388 119 307 117 b 44 94 43 106 40 106 b 42 40 44 93 44 68 b 40 -14 40 13 40 -11 b 94 -15 43 -18 50 -19 b 172 -10 111 -14 146 -12 b 315 -1 200 -8 264 -6 b 454 7 367 1 429 6 b 506 68 511 11 507 4 z "},"`":{"ha":276,"x_min":0,"x_max":0,"o":"m 231 899 b 128 988 231 975 228 978 b 46 908 63 993 54 985 b 151 753 40 844 83 781 b 164 776 168 746 174 757 b 153 822 158 790 151 821 b 176 826 154 824 164 825 b 231 899 232 832 231 831 z "},"a":{"ha":943,"x_min":0,"x_max":0,"o":"m 763 -3 b 904 14 919 -4 903 -7 b 181 794 968 732 482 1258 b 56 17 61 611 6 263 b 178 1 58 7 53 8 b 290 -7 239 -3 289 -7 b 300 -6 292 -8 296 -8 b 292 44 303 -4 301 4 b 265 213 275 111 265 178 b 274 226 265 225 265 225 b 657 238 281 226 639 238 b 633 31 669 238 654 103 b 763 -3 622 -7 607 -3 z m 643 453 b 469 439 642 451 564 446 b 286 426 374 433 292 428 b 282 463 272 425 274 424 b 618 544 346 761 522 804 b 643 453 628 519 644 454 z "},"b":{"ha":739,"x_min":0,"x_max":0,"o":"m 76 979 b 71 492 72 978 71 815 l 71 6 l 86 1 b 182 -15 107 -4 156 -12 b 586 517 611 -60 874 288 l 569 529 l 586 544 b 396 969 751 694 658 903 b 76 979 297 996 165 999 z m 494 292 b 371 197 521 250 465 207 b 314 197 342 194 340 194 b 290 267 292 199 292 197 b 315 333 288 335 286 329 b 494 292 390 344 474 325 z m 390 681 b 335 674 378 678 360 675 l 299 672 l 299 721 b 303 771 299 758 300 769 b 415 765 313 775 400 771 b 390 681 479 744 465 700 z "},"c":{"ha":792,"x_min":0,"x_max":0,"o":"m 457 -10 l 457 -10 b 756 18 561 -21 747 -3 b 758 151 756 22 758 81 l 758 276 l 682 276 b 347 394 501 278 386 318 b 686 690 296 500 453 639 b 721 722 721 697 722 699 b 713 939 719 739 713 929 b 460 882 713 954 553 918 b 457 -10 -122 653 -124 54 z "},"d":{"ha":813,"x_min":0,"x_max":0,"o":"m 85 957 l 65 954 l 65 892 b 71 422 65 857 68 646 b 75 8 74 199 75 13 b 192 -18 75 -1 118 -11 b 764 576 574 -54 872 254 b 85 957 679 829 372 1003 z m 318 661 b 374 279 639 631 682 326 b 332 276 360 278 340 276 b 303 453 313 275 317 254 b 288 636 296 542 289 624 b 318 661 285 665 283 664 z "},"e":{"ha":708,"x_min":0,"x_max":0,"o":"m 331 674 b 481 725 333 675 401 699 b 633 779 561 753 629 778 b 640 824 639 782 640 796 b 642 908 640 846 642 885 b 626 961 644 956 642 965 b 346 917 624 961 497 940 b 69 872 194 893 69 874 b 67 550 68 872 68 728 b 64 129 65 374 65 185 b 71 26 63 64 65 29 b 364 3 78 22 129 18 b 651 -15 521 -7 650 -15 b 672 -1 656 -17 671 -7 b 682 160 675 11 683 158 b 508 185 681 161 603 172 l 338 208 l 336 224 b 335 282 335 232 335 258 l 335 325 l 451 344 b 578 429 593 368 578 357 b 579 508 578 461 578 497 b 447 547 581 535 593 531 l 326 561 l 326 615 b 331 674 326 665 326 671 z "},"f":{"ha":635,"x_min":0,"x_max":0,"o":"m 318 683 l 339 689 b 485 733 350 693 417 713 b 614 774 553 754 611 772 b 592 964 618 776 597 958 b 76 876 590 965 111 885 b 67 869 72 876 69 872 b 71 21 63 860 67 26 b 176 7 74 18 93 15 l 176 7 b 306 1 276 -3 301 -4 b 311 161 307 3 308 72 b 314 321 313 249 314 321 b 431 335 314 321 367 328 b 550 350 496 342 549 349 b 556 411 551 351 554 376 b 561 494 558 443 560 481 b 438 540 564 528 575 524 b 317 554 372 547 318 554 b 318 619 317 556 317 585 z "},"g":{"ha":1056,"x_min":0,"x_max":0,"o":"m 422 10 b 1035 544 738 -18 1032 239 b 1033 588 1035 567 1033 588 b 936 588 1032 589 989 589 b 689 581 885 585 774 582 b 532 575 604 578 535 575 b 535 367 526 574 528 369 b 631 367 538 364 568 364 b 756 368 682 368 738 368 l 789 368 l 767 349 b 329 439 589 179 321 235 b 797 692 339 651 644 817 l 807 682 l 874 740 b 939 819 954 811 950 806 b 171 785 761 1038 386 1021 b 422 10 -104 483 38 43 z "},"h":{"ha":857,"x_min":0,"x_max":0,"o":"m 521 358 l 533 358 l 525 183 b 526 -1 517 1 517 3 b 781 6 539 -6 776 0 b 785 976 786 11 790 971 b 561 974 778 983 563 981 b 553 810 560 971 557 897 b 546 640 550 722 546 646 b 431 628 544 633 506 629 b 315 625 367 625 315 625 b 301 785 314 625 308 697 b 288 958 294 871 288 950 l 285 972 l 179 972 b 72 968 101 972 74 971 b 76 3 67 960 71 7 b 358 7 85 -3 353 1 b 350 178 363 11 361 29 b 338 346 342 269 336 344 b 521 358 339 347 499 358 z "},"i":{"ha":347,"x_min":0,"x_max":0,"o":"m 269 4 b 278 883 272 7 278 654 b 272 972 278 940 276 971 b 100 975 263 975 101 978 b 51 3 97 971 50 6 b 269 4 54 0 267 1 z "},"j":{"ha":597,"x_min":0,"x_max":0,"o":"m 544 733 b 513 871 536 771 518 851 b 497 925 508 883 503 907 b 446 968 486 971 486 971 b 271 958 424 965 288 958 b 257 939 257 958 253 953 b 268 896 258 933 264 914 b 281 835 271 878 278 850 b 29 164 363 479 224 108 b 0 163 15 168 3 168 b 6 -14 -1 157 4 -11 b 57 -22 8 -15 31 -19 b 546 426 306 -49 501 131 b 544 733 560 518 558 660 z "},"k":{"ha":814,"x_min":0,"x_max":0,"o":"m 813 1 b 682 285 813 3 754 131 b 546 578 610 440 549 571 b 626 756 543 585 569 644 b 700 933 686 872 711 931 b 606 954 694 933 653 943 b 517 972 560 964 519 972 b 458 871 513 972 501 951 b 319 610 343 654 321 611 b 308 783 318 608 314 688 b 297 963 303 881 299 961 b 75 957 293 971 76 965 b 67 6 72 949 65 8 b 346 6 69 1 343 1 b 344 103 349 8 347 36 l 339 196 l 365 246 b 392 296 379 274 392 296 b 468 149 393 296 428 231 b 544 0 510 68 543 0 b 631 -4 544 -1 583 -3 b 813 1 800 -10 813 -8 z "},"l":{"ha":721,"x_min":0,"x_max":0,"o":"m 707 8 b 708 243 714 13 715 240 b 549 240 706 244 633 243 b 392 238 463 238 392 238 b 372 604 390 239 382 403 b 353 969 363 804 354 968 b 213 972 351 971 289 971 l 75 972 l 74 953 b 71 576 72 942 71 772 b 67 114 69 381 68 172 l 65 7 l 315 6 b 633 4 454 6 597 4 b 707 8 692 4 701 4 z "},"m":{"ha":1163,"x_min":0,"x_max":0,"o":"m 832 -4 l 832 -4 b 990 -4 833 -10 818 -10 b 1138 15 1143 1 1138 0 b 1085 367 1138 18 1114 176 b 1011 838 1056 557 1022 768 b 989 967 1000 910 992 964 b 771 969 986 969 776 974 b 565 442 768 968 582 489 b 560 436 563 432 561 432 b 440 708 558 439 504 561 l 322 975 l 289 976 b 139 968 213 978 142 974 b 35 8 138 964 38 50 b 313 4 35 0 307 -4 b 313 214 313 6 313 100 l 311 421 l 321 403 b 406 231 326 393 364 315 b 499 40 447 146 489 60 l 517 4 l 575 4 b 635 7 618 4 633 4 b 733 231 636 8 681 110 b 831 454 786 351 831 453 b 832 229 832 457 833 360 b 832 -4 831 103 831 -3 z "},"n":{"ha":822,"x_min":0,"x_max":0,"o":"m 386 767 b 260 943 319 861 263 940 b 92 969 257 947 118 969 b 71 482 85 969 83 949 b 60 4 61 157 58 7 b 325 4 63 0 319 0 b 311 265 328 6 325 49 b 293 531 300 408 293 528 b 418 275 293 533 347 425 l 543 15 l 563 14 b 657 1 574 13 615 7 l 657 1 b 731 -8 697 -4 731 -8 b 751 482 742 -11 740 -28 b 761 968 757 750 761 968 b 496 968 758 971 499 971 b 500 799 494 967 496 913 b 508 614 504 708 508 625 b 386 767 508 601 468 653 z "},"o":{"ha":817,"x_min":0,"x_max":0,"o":"m 181 864 b 364 -3 -86 601 31 50 b 761 635 638 -46 851 296 b 181 864 679 944 381 1063 z m 436 300 b 288 382 383 279 322 314 b 474 667 194 572 343 800 b 436 300 574 565 551 344 z "},"p":{"ha":822,"x_min":0,"x_max":0,"o":"m 75 100 b 79 0 75 15 75 4 b 89 -1 82 -1 86 -3 b 303 7 101 1 299 10 b 315 14 310 3 315 7 b 292 235 315 22 294 219 b 325 250 290 242 301 246 b 725 817 728 318 929 604 b 108 985 603 944 347 1014 b 65 969 64 979 64 979 b 75 100 68 960 75 256 z m 307 760 b 568 646 332 831 526 746 b 379 440 606 554 538 481 b 304 442 331 428 310 428 b 307 760 301 451 303 749 z "},"q":{"ha":821,"x_min":0,"x_max":0,"o":"m 299 946 b 361 1 -87 797 -39 64 b 524 21 415 -7 472 0 b 543 17 533 25 540 24 b 715 6 549 4 582 3 b 707 126 800 8 801 -8 l 686 156 l 700 179 b 299 946 924 546 644 1079 z m 524 413 l 518 397 l 501 422 b 418 458 451 494 460 490 b 379 429 400 444 383 432 b 396 357 368 422 369 419 b 419 300 410 326 419 300 l 419 300 b 382 299 417 296 394 296 b 301 660 263 328 214 543 b 524 413 410 804 585 611 z "},"r":{"ha":826,"x_min":0,"x_max":0,"o":"m 93 965 b 58 938 56 956 57 957 b 74 467 60 928 67 717 b 89 11 81 218 88 13 b 110 7 90 10 100 7 b 218 0 121 7 169 4 b 313 -8 268 -4 310 -8 b 319 86 322 -8 324 -6 b 322 233 315 221 315 232 b 364 240 325 235 344 238 b 407 247 385 243 404 246 b 468 128 414 249 415 244 b 525 4 497 61 524 6 b 650 1 526 4 582 1 b 774 35 799 0 792 -3 b 638 346 722 147 636 344 b 660 365 639 347 649 356 b 93 965 1015 656 606 1088 z m 350 431 b 283 432 304 422 290 422 b 274 736 278 440 269 726 b 474 747 285 761 410 768 b 350 431 664 685 583 476 z "},"s":{"ha":764,"x_min":0,"x_max":0,"o":"m 125 215 b 99 218 110 218 99 219 b 79 7 94 215 76 10 b 171 -8 82 4 138 -6 b 575 526 647 -44 929 328 b 449 654 474 583 449 608 b 638 771 449 722 526 771 b 675 772 657 771 674 771 b 694 971 676 776 696 967 b 419 964 689 985 504 981 b 276 349 -24 879 -111 501 b 360 274 350 319 371 301 b 125 215 340 224 219 193 z "},"t":{"ha":793,"x_min":0,"x_max":0,"o":"m 268 3 b 365 -1 269 0 288 0 b 524 -3 417 -1 488 -3 b 592 1 583 -3 589 -3 b 551 358 593 4 579 124 b 510 711 528 551 508 711 b 636 714 510 711 567 714 b 764 721 754 717 761 717 b 775 843 768 725 769 749 b 785 965 779 913 783 963 b 774 978 790 972 785 979 b 392 974 769 978 597 976 b 1 957 -7 969 1 969 b 29 843 1 954 14 903 b 60 721 44 782 58 728 l 61 707 l 179 708 l 297 710 l 296 693 b 268 3 290 621 265 6 z "},"u":{"ha":921,"x_min":0,"x_max":0,"o":"m 850 969 b 706 975 836 969 771 972 b 583 975 593 981 581 981 b 542 539 614 926 588 654 b 319 921 406 197 217 524 b 326 957 325 939 328 956 b 75 975 325 960 92 976 b 58 932 68 974 63 960 b 385 14 -15 486 132 71 b 882 938 675 -51 935 432 b 850 969 878 969 879 968 z "},"v":{"ha":888,"x_min":0,"x_max":0,"o":"m 493 581 b 469 163 474 207 472 161 b 400 557 469 164 438 340 b 322 972 335 918 326 968 b 168 965 321 972 251 969 b 15 958 85 961 17 958 b 103 589 1 958 -1 969 b 229 126 157 393 214 185 b 258 15 246 68 258 18 b 433 3 258 7 261 7 b 660 0 646 -3 658 -3 b 872 924 663 4 872 917 b 871 935 872 929 872 933 b 526 978 869 936 533 978 b 493 581 513 976 514 986 z "},"w":{"ha":1072,"x_min":0,"x_max":0,"o":"m 288 -4 b 363 -7 318 -6 351 -6 b 425 -4 414 -8 422 -8 b 476 196 426 -1 450 88 b 528 394 504 303 528 393 b 582 201 529 399 550 326 b 636 0 610 92 635 1 b 829 7 640 -6 824 1 b 860 117 831 10 844 58 b 972 564 874 175 925 376 b 1058 908 1019 751 1058 906 b 942 946 1058 913 1060 913 b 828 965 833 976 828 976 b 724 563 828 964 735 606 b 675 760 721 550 726 528 b 629 964 651 871 631 963 b 435 965 624 969 440 971 b 385 754 432 963 413 878 b 336 546 360 640 338 547 b 281 754 336 544 311 639 b 217 969 225 968 225 969 b 14 911 210 969 17 914 b 228 4 11 908 222 17 b 288 -4 231 0 250 -3 z "},"x":{"ha":790,"x_min":0,"x_max":0,"o":"m 8 3 b 31 1 11 1 19 0 b 186 10 40 1 111 6 b 328 18 275 14 325 17 b 369 104 329 21 349 58 b 410 188 390 149 408 188 b 447 114 410 189 428 156 b 488 32 467 71 485 35 b 533 25 490 26 493 26 b 617 19 558 24 596 21 b 776 13 774 4 776 4 b 661 244 776 15 725 119 b 546 478 599 371 546 475 b 658 721 546 479 597 589 b 772 963 721 853 772 961 b 646 975 772 972 767 972 b 525 969 568 975 528 974 b 465 864 521 967 494 919 b 408 760 436 808 410 763 b 351 861 406 756 399 767 b 294 968 322 919 297 967 b 43 976 285 974 46 981 b 215 597 36 968 24 996 b 264 494 242 542 263 497 b 90 174 264 492 249 467 b 8 3 4 14 0 7 z "},"y":{"ha":713,"x_min":0,"x_max":0,"o":"m 476 944 b 401 797 465 943 474 957 b 339 658 369 725 340 663 b 307 806 336 654 332 672 b 278 960 292 889 278 958 b 86 963 276 960 193 961 b 24 957 44 963 24 961 b 54 819 24 954 38 892 b 178 304 140 467 178 308 b 113 156 178 301 149 235 b 50 0 51 21 46 6 b 88 0 51 0 68 0 b 224 4 107 1 168 3 b 328 11 310 7 324 8 b 454 319 329 14 388 153 b 696 914 638 774 674 863 b 713 976 714 961 718 972 b 476 944 710 978 496 949 z "},"z":{"ha":768,"x_min":0,"x_max":0,"o":"m 749 968 b 440 975 750 974 647 976 b 126 964 111 975 119 975 b 154 863 128 963 140 918 b 185 760 168 808 182 763 b 299 757 188 757 203 756 b 408 756 360 757 408 757 b 375 694 408 754 394 728 b 321 600 357 663 333 619 b 279 525 310 579 290 546 b 199 383 267 504 231 440 b 68 154 167 326 108 222 b 0 13 -8 19 -7 21 b 276 4 4 8 96 6 b 619 3 425 4 579 3 b 696 7 668 1 694 4 b 749 210 700 14 749 200 b 582 226 749 219 754 219 b 410 233 493 229 415 232 b 574 597 403 233 458 354 b 749 968 674 803 749 964 z "},"{":{"ha":415,"x_min":0,"x_max":0,"o":"m 308 1004 b 188 1042 251 1058 236 1063 b 113 815 122 1013 106 963 b 65 542 119 675 104 586 b 72 496 53 528 54 517 b 122 221 113 447 128 363 b 229 -18 114 54 132 15 b 332 10 293 -39 332 -29 b 336 54 332 18 333 39 b 329 144 346 125 346 135 b 274 306 288 171 279 196 b 243 514 267 468 265 479 b 244 554 231 533 231 531 b 268 719 264 586 265 597 b 344 926 272 863 285 900 b 308 1004 372 940 371 944 z "},"|":{"ha":360,"x_min":0,"x_max":0,"o":"m 294 1110 b 60 1110 290 1114 61 1114 b 81 578 60 1107 68 868 b 101 33 92 288 101 42 b 101 14 100 24 100 15 l 101 14 b 272 21 104 11 267 17 b 294 1110 276 24 297 1104 z "},"}":{"ha":415,"x_min":0,"x_max":0,"o":"m 342 532 b 293 806 301 579 286 664 b 183 1046 300 974 283 1013 b 83 1018 121 1067 83 1056 b 79 974 83 1008 81 989 b 85 883 68 903 69 893 b 140 722 128 857 136 832 b 171 514 147 558 149 547 b 169 474 183 494 183 496 b 146 310 150 442 149 429 b 140 192 144 251 142 199 b 69 100 132 154 103 115 b 57 74 53 92 49 86 b 161 -22 67 57 150 -19 b 294 63 211 -36 279 7 b 301 213 303 92 304 140 b 350 486 294 354 310 442 b 342 532 363 500 360 510 z "},"~":{"ha":811,"x_min":0,"x_max":0,"o":"m 686 750 b 604 756 650 751 613 754 b 579 739 582 758 579 757 b 421 690 579 646 514 626 b 118 715 306 768 196 776 b 60 538 67 674 22 538 b 128 524 63 538 93 531 b 204 515 199 507 204 507 b 238 563 204 524 225 554 b 397 546 279 593 326 589 b 499 503 424 531 468 513 b 717 565 576 481 664 506 b 764 718 742 593 764 665 b 686 750 764 747 767 746 z "}," ":{"ha":446,"x_min":0,"x_max":0,"o":""},"¡":{"ha":333,"x_min":0,"x_max":0,"o":"m 253 749 b 108 742 249 753 119 746 b 79 353 100 739 101 763 b 64 -11 64 53 61 -8 b 265 -12 68 -17 261 -18 b 253 749 269 -7 257 744 z m 250 800 b 243 947 253 804 246 943 b 132 925 239 950 139 932 b 114 785 126 919 108 789 b 250 800 117 781 244 796 z "},"¢":{"ha":610,"x_min":0,"x_max":0,"o":"m 517 383 b 451 385 496 382 478 382 b 518 669 171 408 215 603 b 524 721 524 671 525 688 b 521 804 522 749 521 786 l 519 838 l 506 836 b 407 817 486 836 439 826 b 376 808 393 813 379 810 b 371 842 372 808 371 818 b 363 932 371 876 367 929 b 208 953 360 936 214 956 b 208 833 201 949 201 949 b 199 714 215 713 215 726 b 233 214 -15 553 3 289 b 246 201 244 210 246 208 b 258 32 247 149 256 35 b 325 17 261 29 289 24 b 410 100 421 -1 411 -11 l 407 185 l 419 185 b 514 194 435 185 492 190 b 538 199 522 196 532 199 b 551 296 549 201 550 203 b 517 383 554 397 557 388 z "},"£":{"ha":682,"x_min":0,"x_max":0,"o":"m 636 222 b 293 175 631 222 313 179 b 289 194 288 175 286 181 b 297 361 293 222 297 301 b 344 410 297 414 292 410 b 454 418 408 411 451 414 b 456 474 456 419 456 443 l 456 525 l 381 526 b 308 569 293 526 301 522 b 415 804 325 674 369 771 b 429 890 432 815 431 814 b 336 950 428 979 415 986 b 126 549 206 890 142 767 l 124 528 l 97 525 b 57 465 63 524 65 526 b 60 403 51 414 51 403 b 96 403 61 403 78 403 l 129 403 l 131 372 b 129 194 135 315 133 221 b 103 151 124 168 121 164 b 97 18 90 143 85 33 l 97 18 b 124 13 103 11 103 11 b 385 24 135 14 251 19 b 628 36 547 31 626 35 b 636 81 629 38 633 57 b 646 146 639 104 643 133 b 636 222 654 200 651 222 z "},"¥":{"ha":760,"x_min":0,"x_max":0,"o":"m 665 167 b 567 189 663 192 667 190 b 479 197 471 188 475 188 b 488 225 479 200 483 214 l 494 247 l 581 247 b 669 313 686 247 679 242 b 665 357 668 329 665 349 b 594 379 663 381 664 381 b 535 381 550 378 535 379 b 619 671 535 383 572 513 b 700 967 710 975 706 963 b 518 949 693 974 524 957 b 461 796 515 946 489 876 b 408 649 432 714 408 649 b 372 713 407 649 392 676 b 288 874 354 747 317 819 l 236 971 l 178 971 b 56 963 88 969 58 968 b 132 796 54 957 57 949 b 214 626 169 718 207 642 b 319 414 282 483 315 418 b 314 379 325 410 322 393 b 160 375 311 376 272 375 b 75 308 68 375 75 381 b 178 250 75 243 63 250 b 268 247 250 250 268 250 b 257 215 267 246 263 232 b 157 185 244 182 253 185 b 75 118 69 185 75 190 b 144 60 75 54 68 60 l 203 60 l 194 40 b 288 1 181 1 174 4 b 399 0 339 1 389 0 b 438 56 422 0 421 -3 b 551 58 438 58 451 60 b 669 122 692 57 679 50 b 665 167 668 139 665 160 z "},"©":{"ha":963,"x_min":0,"x_max":0,"o":"m 571 438 b 465 492 511 439 443 474 b 519 501 475 500 489 503 b 550 560 558 500 558 499 b 490 624 542 619 543 617 b 450 326 268 651 229 375 b 553 329 475 321 533 322 b 582 372 568 333 574 343 b 593 403 583 379 589 393 b 571 438 607 433 604 438 z m 896 574 b 147 690 804 828 364 897 b 417 168 -58 494 92 204 b 896 574 721 133 975 350 z m 597 275 b 492 268 574 269 506 264 b 468 271 489 268 479 269 b 410 678 172 319 122 664 b 597 275 707 693 868 344 z "},"­":{"ha":0,"x_min":0,"x_max":0,"o":""},"®":{"ha":601,"x_min":0,"x_max":0,"o":"m 124 842 b 188 519 3 717 35 551 b 551 779 351 485 550 625 b 124 842 553 968 283 1008 z m 329 588 b 156 751 217 551 121 643 b 413 831 192 863 338 907 b 329 588 486 756 440 622 z m 368 736 b 251 824 399 788 325 842 b 222 681 225 817 224 811 b 240 618 222 621 222 619 b 293 661 292 614 290 613 b 321 663 296 707 299 707 b 371 638 342 622 339 624 b 381 692 403 651 403 649 b 368 736 368 715 364 731 z m 303 757 b 289 760 296 754 290 756 b 293 768 286 767 286 768 b 303 757 306 768 313 761 z "},"¿":{"ha":640,"x_min":0,"x_max":0,"o":"m 382 790 b 479 796 411 794 461 797 b 508 874 508 793 507 792 b 494 953 510 953 510 953 b 372 903 467 953 376 917 b 369 793 371 897 368 811 b 382 790 369 790 372 790 z m 471 246 l 435 265 l 428 251 b 288 235 393 178 288 165 b 379 321 288 264 294 271 b 518 621 478 382 522 475 b 482 740 517 721 513 735 b 446 749 471 743 454 746 b 376 699 371 764 365 760 b 278 472 399 579 371 518 b 224 -21 -6 336 -43 3 b 568 138 344 -31 481 32 b 471 246 601 179 611 169 z "},"À":{"ha":940,"x_min":0,"x_max":0,"o":"m 415 1094 b 433 1063 425 1078 433 1063 b 481 1064 435 1061 457 1061 b 501 1067 494 1065 501 1067 b 401 1219 501 1068 476 1107 b 378 1226 399 1224 403 1222 b 338 1229 363 1229 338 1231 b 375 1165 338 1228 363 1188 b 415 1094 388 1143 406 1111 z m 179 794 b 54 17 60 611 4 263 b 176 0 57 7 51 8 b 289 -7 238 -3 288 -7 b 299 -6 290 -8 294 -8 b 290 44 301 -4 300 4 b 264 213 274 111 264 178 b 272 226 264 225 264 225 b 656 238 279 226 638 238 b 632 31 668 238 653 103 b 761 -3 621 -7 606 -3 b 903 14 918 -4 901 -7 b 179 794 967 732 481 1258 z m 642 453 b 468 439 640 451 563 446 b 285 426 372 433 290 428 b 281 463 271 425 272 424 b 617 544 344 761 521 804 b 642 453 626 519 643 454 z "},"Á":{"ha":940,"x_min":0,"x_max":0,"o":"m 451 1063 b 471 1094 453 1063 461 1078 b 511 1165 481 1111 499 1143 b 549 1229 524 1188 549 1228 b 508 1226 549 1231 524 1229 b 483 1219 483 1222 486 1224 b 385 1067 410 1107 383 1068 b 406 1064 385 1067 392 1065 b 451 1063 429 1061 451 1061 z m 179 794 b 54 17 60 611 4 263 b 176 1 57 7 51 8 b 289 -7 238 -3 288 -7 b 299 -6 290 -8 294 -8 b 290 44 301 -4 300 4 b 264 213 274 111 264 178 b 272 226 264 225 264 225 b 656 238 279 228 638 238 b 632 31 668 238 653 103 b 761 -3 621 -7 606 -3 b 903 14 918 -4 901 -7 b 179 794 967 732 481 1258 z m 642 453 b 468 439 640 451 563 446 b 285 426 372 433 290 428 b 281 463 271 425 272 424 b 617 544 344 761 521 804 b 642 453 626 519 643 454 z "},"Â":{"ha":940,"x_min":0,"x_max":0,"o":"m 354 1051 b 399 1053 368 1051 389 1051 b 438 1086 422 1053 417 1049 b 456 1115 447 1103 456 1115 b 497 1057 457 1115 497 1058 b 542 1054 497 1054 503 1054 b 585 1056 569 1054 583 1054 b 506 1200 586 1057 511 1197 b 422 1197 503 1201 425 1200 b 392 1153 421 1197 407 1178 b 343 1082 375 1129 353 1097 b 325 1053 328 1060 324 1054 b 354 1051 326 1051 328 1051 z m 179 794 b 54 17 60 611 4 263 b 176 0 57 7 51 8 b 289 -7 238 -3 288 -7 b 299 -6 290 -8 294 -8 b 290 44 301 -4 300 4 b 264 213 274 111 264 178 b 272 226 264 225 264 225 b 656 238 279 226 638 238 b 632 31 668 238 653 103 b 761 -3 621 -7 606 -3 b 903 14 918 -4 901 -7 b 179 794 967 732 481 1258 z m 642 453 b 468 439 640 451 563 446 b 285 426 372 433 290 428 b 281 463 271 425 272 424 b 617 544 344 761 521 804 b 642 453 626 519 643 454 z "},"Ã":{"ha":940,"x_min":0,"x_max":0,"o":"m 251 1074 b 288 1067 253 1074 269 1071 b 328 1063 325 1058 328 1057 b 346 1088 328 1067 339 1082 b 431 1078 368 1103 393 1100 b 483 1056 444 1069 467 1060 b 599 1089 525 1044 571 1057 b 624 1169 611 1103 624 1142 b 582 1186 624 1185 625 1183 b 539 1189 563 1186 543 1188 b 525 1181 528 1190 525 1189 b 442 1154 525 1131 492 1121 b 283 1167 382 1196 324 1200 b 251 1074 256 1146 232 1074 z m 179 794 b 54 17 60 611 4 263 b 176 1 57 7 51 8 b 289 -7 238 -3 288 -7 b 299 -6 290 -8 294 -8 b 290 44 301 -4 300 4 b 264 213 274 111 264 178 b 272 226 264 225 264 225 b 656 238 279 228 638 238 b 632 31 668 238 653 103 b 761 -3 621 -7 606 -3 b 903 14 918 -4 901 -7 b 179 794 967 732 481 1258 z m 642 453 b 468 439 640 451 563 446 b 285 426 372 433 290 428 b 281 463 271 425 272 424 b 617 544 344 761 521 804 b 642 453 626 519 643 454 z "},"Ä":{"ha":940,"x_min":0,"x_max":0,"o":"m 379 1094 b 443 1146 408 1085 443 1113 b 358 1143 442 1196 374 1193 b 379 1094 353 1122 363 1100 z m 490 1099 b 549 1165 528 1090 567 1136 b 472 1149 532 1192 488 1182 b 490 1099 460 1125 469 1103 z m 179 794 b 54 17 60 611 4 263 b 176 0 57 7 51 8 b 289 -7 238 -3 288 -7 b 299 -6 290 -8 294 -8 b 290 44 301 -4 300 4 b 264 213 274 111 264 178 b 272 226 264 225 264 225 b 656 238 279 226 638 238 b 632 31 668 238 653 103 b 761 -3 621 -7 606 -3 b 903 14 918 -4 901 -7 b 179 794 967 732 481 1258 z m 642 453 b 468 439 640 451 563 446 b 285 426 372 433 290 428 b 281 463 271 425 272 424 b 617 544 344 761 521 804 b 642 453 626 519 643 454 z "},"Å":{"ha":940,"x_min":0,"x_max":0,"o":"m 407 1028 b 515 1119 463 1018 515 1063 b 350 1169 517 1208 403 1242 b 407 1028 310 1115 342 1038 z m 439 1151 b 426 1086 460 1139 451 1093 b 407 1093 418 1085 413 1086 b 439 1151 388 1119 414 1168 z m 179 794 b 54 17 60 611 4 263 b 176 1 57 7 51 8 b 289 -7 238 -3 288 -7 b 299 -6 290 -8 294 -8 b 290 44 301 -4 300 4 b 264 213 274 111 264 178 b 272 226 264 225 264 225 b 656 238 279 228 638 238 b 632 31 668 238 653 103 b 761 -3 621 -7 606 -3 b 903 14 918 -4 901 -7 b 179 794 967 732 481 1258 z m 642 453 b 468 439 640 451 563 446 b 285 426 372 433 290 428 b 281 463 271 425 272 424 b 617 544 344 761 521 804 b 642 453 626 519 643 454 z "},"Æ":{"ha":1358,"x_min":0,"x_max":0,"o":"m 1332 160 b 1158 185 1331 161 1253 172 l 988 208 l 986 224 b 985 282 985 232 985 258 l 985 325 l 1101 344 b 1228 429 1243 368 1228 357 b 1229 508 1228 461 1228 497 b 1097 547 1231 535 1243 531 l 976 561 l 976 615 b 981 674 976 665 976 671 b 1131 725 983 675 1051 699 b 1283 779 1211 753 1279 778 b 1290 824 1289 782 1290 796 b 1292 908 1290 846 1292 885 b 1278 961 1294 956 1292 965 b 996 917 1274 961 1147 940 b 719 872 844 893 719 874 b 718 800 718 872 718 844 b 179 794 563 1006 343 1047 b 54 17 60 611 4 263 b 176 0 57 7 51 8 b 289 -7 238 -3 288 -7 b 299 -6 290 -8 294 -8 b 290 44 301 -4 300 4 b 264 213 274 111 264 178 b 272 226 264 225 264 225 b 656 238 279 226 638 238 b 632 31 668 238 653 103 b 761 -3 621 -7 606 -3 b 903 11 908 -4 903 -7 b 1014 3 935 8 971 6 b 1301 -15 1171 -7 1300 -15 b 1322 -1 1306 -17 1321 -7 b 1332 160 1325 11 1333 158 z m 642 453 b 468 439 640 451 563 446 b 285 426 372 433 290 428 b 281 463 271 425 272 424 b 617 544 344 761 521 804 b 642 453 626 519 643 454 z "},"Ç":{"ha":792,"x_min":0,"x_max":0,"o":"m 682 276 b 347 394 501 278 385 318 b 686 690 296 500 453 639 b 721 722 721 697 722 699 b 713 939 719 739 713 929 b 460 882 713 954 553 918 b 410 -3 -106 660 -124 88 b 367 -67 392 -28 378 -50 b 332 -121 347 -96 336 -114 b 329 -125 331 -124 329 -125 b 331 -125 329 -125 331 -125 b 360 -162 329 -142 329 -140 b 388 -185 375 -174 388 -183 b 325 -218 388 -185 326 -218 b 317 -262 322 -218 322 -224 b 313 -304 313 -289 311 -303 b 465 -244 315 -307 463 -249 b 474 -160 468 -242 475 -164 b 433 -125 474 -160 456 -143 b 411 -106 426 -118 419 -112 b 415 -97 413 -103 414 -100 b 456 -28 425 -81 443 -49 b 467 -10 458 -22 463 -17 b 754 18 572 -19 747 -3 b 758 151 756 22 757 81 l 758 276 z "},"È":{"ha":708,"x_min":0,"x_max":0,"o":"m 286 1094 b 304 1063 296 1078 304 1063 b 351 1064 306 1061 328 1061 b 372 1067 365 1065 372 1067 b 272 1219 372 1068 347 1107 b 249 1226 269 1224 274 1222 b 208 1229 233 1229 208 1231 b 246 1165 208 1228 233 1188 b 286 1094 258 1143 276 1111 z m 682 160 b 508 185 681 161 603 172 l 338 208 l 336 224 b 335 282 335 232 335 258 l 335 325 l 451 344 b 578 429 593 368 578 357 b 579 508 578 461 578 497 b 447 547 581 535 593 531 l 326 561 l 326 615 b 331 674 326 665 326 671 b 481 725 333 675 401 699 b 633 779 561 753 629 778 b 640 824 639 782 640 796 b 642 908 640 846 642 885 b 626 961 644 956 642 965 b 346 917 624 961 497 940 b 69 872 194 893 69 874 b 67 550 68 872 68 728 b 64 129 65 374 65 185 b 71 26 63 64 65 29 b 364 3 78 22 129 18 b 651 -15 521 -7 650 -15 b 672 -1 656 -17 671 -7 b 682 160 675 11 683 158 z "},"É":{"ha":708,"x_min":0,"x_max":0,"o":"m 393 1063 b 411 1094 393 1063 401 1078 b 453 1165 421 1111 440 1143 b 489 1229 465 1188 489 1228 b 449 1226 489 1231 465 1229 b 425 1219 424 1222 428 1224 b 325 1067 350 1107 325 1068 b 346 1064 325 1067 332 1065 b 393 1063 369 1061 392 1061 z m 682 160 b 508 185 681 161 603 172 l 338 208 l 336 224 b 335 282 335 232 335 258 l 335 325 l 451 344 b 578 429 593 368 578 357 b 579 508 578 461 578 497 b 447 547 581 535 593 531 l 326 561 l 326 615 b 331 674 326 665 326 671 b 481 725 333 675 401 699 b 633 779 561 753 629 778 b 640 824 639 782 640 796 b 642 908 640 846 642 885 b 626 961 644 956 642 965 b 346 917 624 961 497 940 b 69 872 194 893 69 874 b 67 550 68 872 68 728 b 64 129 65 374 65 185 b 71 26 63 64 65 29 b 364 3 78 22 129 18 b 651 -15 521 -7 650 -15 b 672 -1 656 -17 671 -7 b 682 160 675 11 683 158 z "},"Ê":{"ha":708,"x_min":0,"x_max":0,"o":"m 281 1051 b 326 1053 296 1051 317 1051 b 365 1086 349 1053 344 1049 b 383 1115 375 1103 383 1115 b 425 1057 385 1115 425 1058 b 469 1054 425 1054 431 1054 b 513 1056 497 1054 511 1054 b 433 1200 514 1057 439 1197 b 349 1197 431 1201 353 1200 b 318 1153 349 1197 335 1178 b 271 1082 303 1129 281 1097 b 253 1053 256 1060 251 1054 b 281 1051 254 1051 256 1051 z m 682 160 b 508 185 681 161 603 172 l 338 208 l 336 224 b 335 282 335 232 335 258 l 335 325 l 451 344 b 578 429 593 368 578 357 b 579 508 578 461 578 497 b 447 547 581 535 593 531 l 326 561 l 326 615 b 331 674 326 665 326 671 b 481 725 333 675 401 699 b 633 779 561 753 629 778 b 640 824 639 782 640 796 b 642 908 640 846 642 885 b 626 961 644 956 642 965 b 346 917 624 961 497 940 b 69 872 194 893 69 874 b 67 550 68 872 68 728 b 64 129 65 374 65 185 b 71 26 63 64 65 29 b 364 3 78 22 129 18 b 651 -15 521 -7 650 -15 b 672 -1 656 -17 671 -7 b 682 160 675 11 683 158 z "},"Ë":{"ha":708,"x_min":0,"x_max":0,"o":"m 228 1094 b 292 1146 258 1085 292 1113 b 208 1143 292 1196 224 1193 b 229 1094 201 1122 211 1100 z m 340 1099 b 399 1165 376 1090 415 1136 b 321 1149 382 1192 338 1182 b 340 1099 310 1125 318 1103 z m 682 160 b 508 185 681 161 603 172 l 338 208 l 336 224 b 335 282 335 232 335 258 l 335 325 l 451 344 b 578 429 593 368 578 357 b 579 508 578 461 578 497 b 447 547 581 535 593 531 l 326 561 l 326 615 b 331 674 326 665 326 671 b 481 725 333 675 401 699 b 633 779 561 753 629 778 b 640 824 639 782 640 796 b 642 908 640 846 642 885 b 626 961 644 956 642 965 b 346 917 624 961 497 940 b 69 872 194 893 69 874 b 67 550 68 872 68 728 b 64 129 65 374 65 185 b 71 26 63 64 65 29 b 364 3 78 22 129 18 b 651 -15 521 -7 650 -15 b 672 -1 656 -17 671 -7 b 682 160 675 11 683 158 z "},"Ì":{"ha":344,"x_min":0,"x_max":0,"o":"m 135 1094 b 153 1063 144 1078 153 1063 b 199 1064 153 1061 176 1061 b 221 1067 214 1065 219 1067 b 121 1219 221 1068 196 1107 b 97 1226 118 1224 121 1222 b 56 1229 81 1229 57 1231 b 93 1165 56 1228 81 1188 b 135 1094 106 1143 124 1111 z m 271 972 b 99 975 261 975 100 978 b 50 3 96 971 49 6 b 268 4 53 0 265 1 b 276 883 271 7 276 654 b 271 972 276 940 275 971 z "},"Í":{"ha":343,"x_min":0,"x_max":0,"o":"m 201 1063 b 221 1094 203 1063 211 1078 b 261 1165 231 1111 249 1143 b 299 1229 274 1188 299 1228 b 258 1226 297 1231 274 1229 b 233 1219 233 1222 236 1224 b 135 1067 160 1107 133 1068 b 156 1064 135 1067 140 1065 b 201 1063 178 1061 201 1061 z m 271 972 b 99 975 261 975 100 978 b 50 3 96 971 49 6 b 268 4 53 0 265 1 b 276 883 271 7 276 654 b 271 972 276 940 275 971 z "},"Î":{"ha":343,"x_min":0,"x_max":0,"o":"m 231 1200 b 147 1197 228 1201 150 1200 b 117 1153 146 1197 132 1178 b 68 1082 100 1129 78 1097 b 50 1053 53 1060 49 1054 b 79 1051 51 1051 53 1051 b 124 1053 93 1051 114 1051 b 163 1086 147 1053 142 1049 b 181 1115 172 1103 181 1115 b 222 1057 182 1115 222 1058 b 267 1054 222 1054 228 1054 b 310 1056 294 1054 308 1054 b 231 1200 311 1057 236 1197 z m 271 972 b 99 975 261 975 100 978 b 50 3 96 971 49 6 b 268 4 53 0 265 1 b 276 883 271 7 276 654 b 271 972 276 940 275 971 z "},"Ï":{"ha":344,"x_min":0,"x_max":0,"o":"m 125 1094 b 188 1146 154 1085 188 1113 b 104 1143 188 1196 119 1193 b 125 1094 99 1122 108 1100 z m 294 1165 b 217 1149 278 1192 233 1182 b 236 1099 206 1125 215 1103 b 294 1165 274 1090 313 1136 z m 271 972 b 99 975 261 975 100 978 b 50 3 96 971 49 6 b 268 4 53 0 265 1 b 276 883 271 7 276 654 b 271 972 276 940 275 971 z "},"Ñ":{"ha":819,"x_min":0,"x_max":0,"o":"m 226 1074 b 263 1067 228 1074 244 1071 b 303 1063 300 1058 303 1057 b 321 1088 303 1067 314 1082 b 406 1078 343 1103 368 1100 b 458 1056 419 1069 442 1060 b 574 1089 500 1044 546 1057 b 599 1169 586 1103 599 1142 b 557 1186 599 1185 600 1183 b 514 1189 538 1186 518 1188 b 500 1181 503 1190 500 1189 b 417 1154 500 1131 467 1121 b 258 1167 357 1196 299 1200 b 226 1074 231 1146 207 1074 z m 494 968 b 499 799 493 967 494 913 b 507 614 503 708 507 625 b 385 767 507 601 467 653 b 258 943 318 861 261 940 b 90 969 256 947 117 969 b 69 482 83 969 82 949 b 58 4 60 157 57 7 b 324 4 61 1 318 0 b 310 265 326 6 324 49 b 292 531 299 408 292 528 b 417 275 292 533 346 425 l 542 15 l 561 14 b 656 1 572 13 614 7 l 656 1 b 729 -8 696 -4 729 -8 b 750 482 740 -11 739 -28 b 760 968 756 750 760 968 b 494 968 757 971 497 971 z "},"Ò":{"ha":814,"x_min":0,"x_max":0,"o":"m 372 1094 b 390 1063 382 1078 390 1063 b 438 1064 390 1061 414 1061 b 458 1067 451 1065 457 1067 b 358 1219 458 1068 433 1107 b 335 1226 356 1224 358 1222 b 293 1229 318 1229 294 1231 b 331 1165 293 1228 318 1188 b 372 1094 343 1143 363 1111 z m 760 635 b 179 864 678 944 379 1063 b 363 -3 -87 601 29 50 b 760 635 636 -46 850 296 z m 435 300 b 286 382 382 279 321 314 b 472 667 193 572 342 800 b 435 300 572 565 550 344 z "},"Ó":{"ha":814,"x_min":0,"x_max":0,"o":"m 408 1063 b 428 1094 410 1063 418 1078 b 468 1165 438 1111 456 1143 b 506 1229 481 1188 506 1228 b 465 1226 506 1231 481 1229 b 440 1219 440 1222 443 1224 b 342 1067 367 1107 340 1068 b 363 1064 342 1067 349 1065 b 408 1063 385 1061 408 1061 z m 760 635 b 179 864 678 944 379 1063 b 363 -3 -87 601 29 50 b 760 635 636 -46 850 296 z m 435 300 b 286 382 382 279 321 314 b 472 667 193 572 342 800 b 435 300 572 565 550 344 z "},"Ô":{"ha":814,"x_min":0,"x_max":0,"o":"m 328 1051 b 372 1053 342 1051 363 1051 b 413 1086 396 1053 390 1049 b 431 1115 421 1103 429 1115 b 471 1057 431 1115 471 1058 b 515 1054 471 1054 476 1054 b 558 1056 543 1054 557 1054 b 481 1200 560 1057 485 1197 b 396 1197 476 1201 400 1200 b 365 1153 394 1197 381 1178 b 317 1082 349 1129 328 1097 b 299 1053 301 1060 299 1054 b 328 1051 300 1051 301 1051 z m 760 635 b 179 864 678 944 379 1063 b 363 -3 -87 601 29 50 b 760 635 636 -46 850 296 z m 435 300 b 286 382 382 279 321 314 b 472 667 193 572 342 800 b 435 300 572 565 550 344 z "},"Õ":{"ha":814,"x_min":0,"x_max":0,"o":"m 285 1074 b 321 1067 288 1074 303 1071 b 361 1063 358 1058 361 1057 b 379 1088 361 1067 372 1082 b 464 1078 401 1103 426 1100 b 517 1056 478 1069 500 1060 b 632 1089 558 1044 604 1057 b 657 1169 646 1103 657 1142 b 615 1186 657 1185 658 1183 b 572 1189 597 1186 578 1188 b 560 1181 561 1190 560 1189 b 475 1154 560 1131 525 1121 b 317 1167 415 1196 357 1200 b 285 1074 289 1146 265 1074 z m 760 635 b 179 864 678 944 379 1063 b 363 -3 -87 601 29 50 b 760 635 636 -46 850 296 z m 435 300 b 286 382 382 279 321 314 b 472 667 193 572 342 800 b 435 300 572 565 550 344 z "},"Ö":{"ha":814,"x_min":0,"x_max":0,"o":"m 331 1094 b 394 1146 360 1085 394 1113 b 310 1143 394 1196 325 1193 b 331 1094 304 1122 314 1100 z m 443 1099 b 500 1165 479 1090 518 1136 b 424 1149 485 1192 439 1182 b 443 1099 411 1125 421 1103 z m 760 635 b 179 864 678 944 379 1063 b 363 -3 -87 601 29 50 b 760 635 636 -46 850 296 z m 435 300 b 286 382 382 279 321 314 b 472 667 193 572 342 800 b 435 300 572 565 550 344 z "},"×":{"ha":511,"x_min":0,"x_max":0,"o":"m 400 435 b 340 494 367 467 340 493 b 394 600 340 496 364 543 b 446 721 447 700 454 717 b 288 701 443 722 296 704 b 258 647 283 700 275 685 b 235 593 246 618 235 593 b 201 622 233 592 219 606 b 129 683 135 685 135 685 b 46 596 124 682 46 600 b 113 532 46 594 76 565 b 178 467 149 497 179 469 b 108 315 175 457 113 321 b 154 279 100 304 103 301 b 244 318 217 251 208 247 b 278 376 263 350 278 376 b 333 328 279 376 304 354 b 400 285 388 278 396 272 b 454 357 403 290 438 336 b 400 435 468 372 468 372 z "},"Ø":{"ha":817,"x_min":0,"x_max":0,"o":"m 763 635 b 636 861 738 729 692 806 b 710 1051 675 963 710 1050 b 631 1040 707 1060 700 1058 b 526 994 524 1013 536 1018 b 504 944 518 978 511 961 b 182 864 397 982 278 960 b 150 129 -15 671 -3 321 b 89 -21 106 25 88 -19 b 181 -40 90 -24 118 -29 b 286 -51 282 -58 283 -58 b 311 11 286 -50 296 -26 b 365 -3 328 6 346 0 b 763 635 639 -46 853 296 z m 275 418 b 400 707 226 563 304 714 b 275 418 353 596 310 500 z m 438 300 b 418 294 431 297 425 296 b 526 578 453 385 492 489 b 438 300 558 469 525 333 z "},"Ù":{"ha":921,"x_min":0,"x_max":0,"o":"m 435 1094 b 453 1063 444 1078 453 1063 b 500 1064 454 1061 476 1061 b 521 1067 514 1065 521 1067 b 421 1219 521 1068 496 1107 b 397 1226 418 1224 422 1222 b 357 1229 381 1229 357 1231 b 394 1165 357 1228 382 1188 b 435 1094 406 1143 425 1111 z m 882 938 b 850 969 878 969 879 968 b 706 975 836 969 771 972 b 583 975 593 981 581 981 b 542 539 614 926 588 654 b 319 921 406 197 217 524 b 326 957 325 939 328 956 b 75 975 325 960 92 976 b 58 932 68 974 63 960 b 385 14 -15 486 132 71 b 882 938 675 -51 935 432 z "},"Ú":{"ha":921,"x_min":0,"x_max":0,"o":"m 439 1063 b 457 1094 439 1063 447 1078 b 499 1165 468 1111 486 1143 b 536 1229 511 1188 536 1228 b 494 1226 535 1231 511 1229 b 471 1219 471 1222 474 1224 b 371 1067 396 1107 371 1068 b 392 1064 372 1067 378 1065 b 439 1063 415 1061 439 1061 z m 882 938 b 850 969 878 969 879 968 b 706 975 836 969 771 972 b 583 975 593 981 581 981 b 542 539 614 926 588 654 b 319 921 406 197 217 524 b 326 957 325 939 328 956 b 75 975 325 960 92 976 b 58 932 68 974 63 960 b 385 14 -15 486 132 71 b 882 938 675 -51 935 432 z "},"Û":{"ha":921,"x_min":0,"x_max":0,"o":"m 347 1051 b 393 1053 363 1051 383 1051 b 432 1086 415 1053 411 1049 b 450 1115 442 1103 450 1115 b 492 1057 451 1115 492 1058 b 536 1054 492 1054 497 1054 b 578 1056 563 1054 578 1054 b 500 1200 581 1057 504 1197 b 415 1197 497 1201 419 1200 b 385 1153 415 1197 401 1178 b 338 1082 369 1129 347 1097 b 319 1053 322 1060 318 1054 b 347 1051 321 1051 322 1051 z m 882 938 b 850 969 878 969 879 968 b 706 975 836 969 771 972 b 583 975 593 981 581 981 b 542 539 614 926 588 654 b 319 921 406 197 217 524 b 326 957 325 939 328 956 b 75 975 325 960 92 976 b 58 932 68 974 63 960 b 385 14 -15 486 132 71 b 882 938 675 -51 935 432 z "},"Ü":{"ha":921,"x_min":0,"x_max":0,"o":"m 388 1094 b 451 1146 418 1085 451 1113 b 367 1143 451 1196 382 1193 b 388 1094 361 1122 371 1100 z m 500 1099 b 557 1165 536 1090 575 1136 b 481 1149 542 1192 497 1182 b 500 1099 469 1125 478 1103 z m 882 938 b 850 969 878 969 879 968 b 706 975 836 969 771 972 b 583 975 593 981 581 981 b 542 539 614 926 588 654 b 319 921 406 197 217 524 b 326 957 325 939 328 956 b 75 975 325 960 92 976 b 58 932 68 974 63 960 b 385 14 -15 486 132 71 b 882 938 675 -51 935 432 z "},"Ý":{"ha":711,"x_min":0,"x_max":0,"o":"m 396 1063 b 414 1094 396 1063 404 1078 b 454 1165 424 1111 442 1143 b 492 1229 467 1188 492 1228 b 451 1226 492 1231 467 1229 b 428 1219 426 1222 431 1224 b 328 1067 353 1107 328 1068 b 349 1064 328 1067 335 1065 b 396 1063 372 1061 394 1061 z m 711 976 b 475 944 708 978 494 949 b 400 797 464 943 472 957 b 338 658 368 725 339 663 b 306 806 335 653 331 672 b 276 960 290 889 276 958 b 85 963 275 960 192 961 b 22 957 43 963 22 961 b 53 819 22 954 36 892 b 176 304 139 467 176 308 b 111 156 176 301 147 235 b 49 0 50 21 44 6 b 86 0 50 0 67 0 b 222 4 106 1 167 3 b 326 11 308 7 322 8 b 453 319 328 14 386 153 b 694 914 636 774 672 863 b 711 976 713 961 717 972 z "},"ß":{"ha":721,"x_min":0,"x_max":0,"o":"m 613 464 l 593 483 l 606 504 b 340 947 719 700 590 917 b 294 954 328 949 307 951 b 68 939 238 963 79 951 b 75 15 64 932 69 21 b 154 10 79 10 83 10 l 154 10 b 233 10 196 8 231 8 b 242 349 244 11 244 6 b 240 683 239 582 239 678 b 390 788 261 750 310 783 b 514 596 507 792 558 711 b 390 471 493 543 454 503 l 358 456 l 361 414 b 381 364 363 361 361 365 b 421 217 450 357 474 267 b 313 192 393 190 351 181 b 290 175 290 197 290 197 b 289 115 290 167 289 140 b 308 60 288 64 286 68 b 592 96 394 26 519 43 b 613 464 710 183 719 356 z "},"à":{"ha":942,"x_min":0,"x_max":0,"o":"m 417 1094 b 435 1063 426 1078 435 1063 b 482 1064 436 1061 458 1061 b 503 1067 496 1065 503 1067 b 403 1219 503 1068 478 1107 b 379 1226 400 1224 404 1222 b 339 1229 364 1229 339 1231 b 376 1165 339 1228 364 1188 b 417 1094 389 1143 407 1111 z m 181 794 b 56 17 61 611 6 263 b 178 0 58 7 53 8 b 290 -7 239 -3 289 -7 b 300 -6 292 -8 296 -8 b 292 44 303 -4 301 4 b 265 213 275 111 265 178 b 274 226 265 225 265 225 b 657 238 281 226 639 238 b 633 31 669 238 654 103 b 763 -3 622 -7 607 -3 b 904 14 919 -4 903 -7 b 181 794 968 732 482 1258 z m 643 453 b 469 439 642 451 564 446 b 286 426 374 433 292 428 b 282 463 272 425 274 424 b 618 544 346 761 522 804 b 643 453 628 519 644 454 z "},"á":{"ha":942,"x_min":0,"x_max":0,"o":"m 453 1063 b 472 1094 454 1063 463 1078 b 513 1165 482 1111 500 1143 b 550 1229 525 1188 550 1228 b 510 1226 550 1231 525 1229 b 485 1219 485 1222 488 1224 b 386 1067 411 1107 385 1068 b 407 1064 386 1067 393 1065 b 453 1063 431 1061 453 1061 z m 181 794 b 56 17 61 611 6 263 b 178 1 58 7 53 8 b 290 -7 239 -3 289 -7 b 300 -6 292 -8 296 -8 b 292 44 303 -4 301 4 b 265 213 275 111 265 178 b 274 226 265 225 265 225 b 657 238 281 228 639 238 b 633 31 669 238 654 103 b 763 -3 622 -7 607 -3 b 904 14 919 -4 903 -7 b 181 794 968 732 482 1258 z m 643 453 b 469 439 642 451 564 446 b 286 426 374 433 292 428 b 282 463 272 425 274 424 b 618 544 346 761 522 804 b 643 453 628 519 644 454 z "},"â":{"ha":942,"x_min":0,"x_max":0,"o":"m 356 1051 b 400 1053 369 1051 390 1051 b 439 1086 424 1053 418 1049 b 457 1115 449 1103 457 1115 b 499 1057 458 1115 499 1058 b 543 1054 499 1054 504 1054 b 586 1056 571 1054 585 1054 b 507 1200 588 1057 513 1197 b 424 1197 504 1201 426 1200 b 393 1153 422 1197 408 1178 b 344 1082 376 1129 354 1097 b 326 1053 329 1060 325 1054 b 356 1051 328 1051 329 1051 z m 181 794 b 56 17 61 611 6 263 b 178 0 58 7 53 8 b 290 -7 239 -3 289 -7 b 300 -6 292 -8 296 -8 b 292 44 303 -4 301 4 b 265 213 275 111 265 178 b 274 226 265 225 265 225 b 657 238 281 226 639 238 b 633 31 669 238 654 103 b 763 -3 622 -7 607 -3 b 904 14 919 -4 903 -7 b 181 794 968 732 482 1258 z m 643 453 b 469 439 642 451 564 446 b 286 426 374 433 292 428 b 282 463 272 425 274 424 b 618 544 346 761 522 804 b 643 453 628 519 644 454 z "},"ã":{"ha":942,"x_min":0,"x_max":0,"o":"m 253 1074 b 289 1067 254 1074 271 1071 b 329 1063 326 1058 329 1057 b 347 1088 329 1067 340 1082 b 432 1078 369 1103 394 1100 b 485 1056 446 1069 468 1060 b 600 1089 526 1044 572 1057 b 625 1169 613 1103 625 1142 b 583 1186 625 1185 626 1183 b 540 1189 564 1186 544 1188 b 526 1181 529 1190 526 1189 b 443 1154 526 1131 493 1121 b 285 1167 383 1196 325 1200 b 253 1074 257 1146 233 1074 z m 181 794 b 56 17 61 611 6 263 b 178 1 58 7 53 8 b 290 -7 239 -3 289 -7 b 300 -6 292 -8 296 -8 b 292 44 303 -4 301 4 b 265 213 275 111 265 178 b 274 226 265 225 265 225 b 657 238 281 228 639 238 b 633 31 669 238 654 103 b 763 -3 622 -7 607 -3 b 904 14 919 -4 903 -7 b 181 794 968 732 482 1258 z m 643 453 b 469 439 642 451 564 446 b 286 426 374 433 292 428 b 282 463 272 425 274 424 b 618 544 346 761 522 804 b 643 453 628 519 644 454 z "},"ä":{"ha":942,"x_min":0,"x_max":0,"o":"m 381 1094 b 444 1146 410 1085 444 1113 b 360 1143 443 1196 375 1193 b 381 1094 354 1122 364 1100 z m 492 1099 b 550 1165 529 1090 568 1136 b 474 1149 533 1192 489 1182 b 492 1099 461 1125 471 1103 z m 181 794 b 56 17 61 611 6 263 b 178 0 58 7 53 8 b 290 -7 239 -3 289 -7 b 300 -6 292 -8 296 -8 b 292 44 303 -4 301 4 b 265 213 275 111 265 178 b 274 226 265 225 265 225 b 657 238 281 226 639 238 b 633 31 669 238 654 103 b 763 -3 622 -7 607 -3 b 904 14 919 -4 903 -7 b 181 794 968 732 482 1258 z m 643 453 b 469 439 642 451 564 446 b 286 426 374 433 292 428 b 282 463 272 425 274 424 b 618 544 346 761 522 804 b 643 453 628 519 644 454 z "},"å":{"ha":942,"x_min":0,"x_max":0,"o":"m 408 1028 b 517 1119 464 1018 517 1063 b 351 1169 518 1208 404 1242 b 408 1028 311 1115 343 1038 z m 440 1151 b 428 1086 461 1139 453 1093 b 408 1093 419 1085 414 1086 b 440 1151 389 1119 415 1168 z m 181 794 b 56 17 61 611 6 263 b 178 1 58 7 53 8 b 290 -7 239 -3 289 -7 b 300 -6 292 -8 296 -8 b 292 44 303 -4 301 4 b 265 213 275 111 265 178 b 274 226 265 225 265 225 b 657 238 281 228 639 238 b 633 31 669 238 654 103 b 763 -3 622 -7 607 -3 b 904 14 919 -4 903 -7 b 181 794 968 732 482 1258 z m 643 453 b 469 439 642 451 564 446 b 286 426 374 433 292 428 b 282 463 272 425 274 424 b 618 544 346 761 522 804 b 643 453 628 519 644 454 z "},"æ":{"ha":1361,"x_min":0,"x_max":0,"o":"m 1333 160 b 1160 185 1332 161 1254 172 l 989 208 l 988 224 b 986 282 986 232 986 258 l 986 325 l 1103 344 b 1229 429 1244 368 1229 357 b 1231 508 1229 461 1229 497 b 1099 547 1232 535 1244 531 l 978 561 l 978 615 b 982 674 978 665 978 671 b 1132 725 985 675 1053 699 b 1285 779 1213 753 1281 778 b 1292 824 1290 782 1292 796 b 1293 908 1292 846 1293 885 b 1279 961 1296 956 1293 965 b 997 917 1275 961 1149 940 b 721 872 846 893 721 874 b 719 800 719 872 719 844 b 181 794 564 1006 344 1047 b 56 17 61 611 6 263 b 178 0 58 7 53 8 b 290 -7 239 -3 289 -7 b 300 -6 292 -8 296 -8 b 292 44 303 -4 301 4 b 265 213 275 111 265 178 b 274 226 265 225 265 225 b 657 238 281 226 639 238 b 633 31 669 238 654 103 b 763 -3 622 -7 607 -3 b 904 11 910 -4 904 -7 b 1015 3 936 8 972 6 b 1303 -15 1172 -7 1301 -15 b 1324 -1 1307 -17 1322 -7 b 1333 160 1326 11 1335 158 z m 643 453 b 469 439 642 451 564 446 b 286 426 374 433 292 428 b 282 463 272 425 274 424 b 618 544 346 761 522 804 b 643 453 628 519 644 454 z "},"ç":{"ha":792,"x_min":0,"x_max":0,"o":"m 682 276 b 347 394 501 278 385 318 b 686 690 296 500 453 639 b 721 722 721 697 722 699 b 713 939 719 739 713 929 b 460 882 713 954 553 918 b 410 -3 -106 660 -124 88 b 367 -67 392 -28 378 -50 b 332 -121 347 -96 336 -114 b 329 -125 331 -124 329 -125 b 331 -125 329 -125 331 -125 b 360 -162 329 -142 329 -140 b 388 -185 375 -174 388 -183 b 325 -218 388 -185 326 -218 b 317 -262 322 -218 322 -224 b 313 -304 313 -289 311 -303 b 465 -244 315 -307 463 -249 b 474 -160 468 -242 475 -164 b 433 -125 474 -160 456 -143 b 411 -106 426 -118 419 -112 b 415 -97 413 -103 414 -100 b 456 -28 425 -81 443 -49 b 467 -10 458 -22 463 -17 b 754 18 572 -19 747 -3 b 758 151 756 22 757 81 l 758 276 z "},"è":{"ha":710,"x_min":0,"x_max":0,"o":"m 286 1094 b 304 1063 296 1078 304 1063 b 351 1064 306 1061 328 1061 b 372 1067 365 1065 372 1067 b 272 1219 372 1068 347 1107 b 249 1226 269 1224 274 1222 b 208 1229 233 1229 208 1231 b 246 1165 208 1228 233 1188 b 286 1094 258 1143 276 1111 z m 682 160 b 508 185 681 161 603 172 l 338 208 l 336 224 b 335 282 335 232 335 258 l 335 325 l 451 344 b 578 429 593 368 578 357 b 579 508 578 461 578 497 b 447 547 581 535 593 531 l 326 561 l 326 615 b 331 674 326 665 326 671 b 481 725 333 675 401 699 b 633 779 561 753 629 778 b 640 824 639 782 640 796 b 642 908 640 846 642 885 b 626 961 644 956 642 965 b 346 917 624 961 497 940 b 69 872 194 893 69 874 b 67 550 68 872 68 728 b 64 129 65 374 65 185 b 71 26 63 64 65 29 b 364 3 78 22 129 18 b 651 -15 521 -7 650 -15 b 672 -1 656 -17 671 -7 b 682 160 675 11 683 158 z "},"é":{"ha":710,"x_min":0,"x_max":0,"o":"m 393 1063 b 411 1094 393 1063 401 1078 b 453 1165 421 1111 440 1143 b 489 1229 465 1188 489 1228 b 449 1226 489 1231 465 1229 b 425 1219 424 1222 428 1224 b 325 1067 350 1107 325 1068 b 346 1064 325 1067 332 1065 b 393 1063 369 1061 392 1061 z m 682 160 b 508 185 681 161 603 172 l 338 208 l 336 224 b 335 282 335 232 335 258 l 335 325 l 451 344 b 578 429 593 368 578 357 b 579 508 578 461 578 497 b 447 547 581 535 593 531 l 326 561 l 326 615 b 331 674 326 665 326 671 b 481 725 333 675 401 699 b 633 779 561 753 629 778 b 640 824 639 782 640 796 b 642 908 640 846 642 885 b 626 961 644 956 642 965 b 346 917 624 961 497 940 b 69 872 194 893 69 874 b 67 550 68 872 68 728 b 64 129 65 374 65 185 b 71 26 63 64 65 29 b 364 3 78 22 129 18 b 651 -15 521 -7 650 -15 b 672 -1 656 -17 671 -7 b 682 160 675 11 683 158 z "},"ê":{"ha":710,"x_min":0,"x_max":0,"o":"m 281 1051 b 326 1053 296 1051 317 1051 b 365 1086 349 1053 344 1049 b 383 1115 375 1103 383 1115 b 425 1057 385 1115 425 1058 b 469 1054 425 1054 431 1054 b 513 1056 497 1054 511 1054 b 433 1200 514 1057 439 1197 b 349 1197 431 1201 353 1200 b 318 1153 349 1197 335 1178 b 271 1082 303 1129 281 1097 b 253 1053 256 1060 251 1054 b 281 1051 254 1051 256 1051 z m 682 160 b 508 185 681 161 603 172 l 338 208 l 336 224 b 335 282 335 232 335 258 l 335 325 l 451 344 b 578 429 593 368 578 357 b 579 508 578 461 578 497 b 447 547 581 535 593 531 l 326 561 l 326 615 b 331 674 326 665 326 671 b 481 725 333 675 401 699 b 633 779 561 753 629 778 b 640 824 639 782 640 796 b 642 908 640 846 642 885 b 626 961 644 956 642 965 b 346 917 624 961 497 940 b 69 872 194 893 69 874 b 67 550 68 872 68 728 b 64 129 65 374 65 185 b 71 26 63 64 65 29 b 364 3 78 22 129 18 b 651 -15 521 -7 650 -15 b 672 -1 656 -17 671 -7 b 682 160 675 11 683 158 z "},"ë":{"ha":710,"x_min":0,"x_max":0,"o":"m 228 1094 b 292 1146 258 1085 292 1113 b 208 1143 292 1196 224 1193 b 229 1094 201 1122 211 1100 z m 340 1099 b 399 1165 376 1090 415 1136 b 321 1149 382 1192 338 1182 b 340 1099 310 1125 318 1103 z m 682 160 b 508 185 681 161 603 172 l 338 208 l 336 224 b 335 282 335 232 335 258 l 335 325 l 451 344 b 578 429 593 368 578 357 b 579 508 578 461 578 497 b 447 547 581 535 593 531 l 326 561 l 326 615 b 331 674 326 665 326 671 b 481 725 333 675 401 699 b 633 779 561 753 629 778 b 640 824 639 782 640 796 b 642 908 640 846 642 885 b 626 961 644 956 642 965 b 346 917 624 961 497 940 b 69 872 194 893 69 874 b 67 550 68 872 68 728 b 64 129 65 374 65 185 b 71 26 63 64 65 29 b 364 3 78 22 129 18 b 651 -15 521 -7 650 -15 b 672 -1 656 -17 671 -7 b 682 160 675 11 683 158 z "},"ì":{"ha":347,"x_min":0,"x_max":0,"o":"m 136 1094 b 154 1063 146 1078 154 1063 b 200 1064 154 1061 178 1061 b 222 1067 215 1065 221 1067 b 122 1219 222 1068 197 1107 b 99 1226 119 1224 122 1222 b 57 1229 82 1229 58 1231 b 94 1165 57 1228 82 1188 b 136 1094 107 1143 125 1111 z m 272 972 b 100 975 263 975 101 978 b 51 3 97 971 50 6 b 269 4 54 0 267 1 b 278 883 272 7 278 654 b 272 972 278 940 276 971 z "},"í":{"ha":346,"x_min":0,"x_max":0,"o":"m 203 1063 b 222 1094 204 1063 213 1078 b 263 1165 232 1111 250 1143 b 300 1229 275 1188 300 1228 b 260 1226 299 1231 275 1229 b 235 1219 235 1222 238 1224 b 136 1067 161 1107 135 1068 b 157 1064 136 1067 142 1065 b 203 1063 179 1061 203 1061 z m 272 972 b 100 975 263 975 101 978 b 51 3 97 971 50 6 b 269 4 54 0 267 1 b 278 883 272 7 278 654 b 272 972 278 940 276 971 z "},"î":{"ha":346,"x_min":0,"x_max":0,"o":"m 232 1200 b 149 1197 229 1201 151 1200 b 118 1153 147 1197 133 1178 b 69 1082 101 1129 79 1097 b 51 1053 54 1060 50 1054 b 81 1051 53 1051 54 1051 b 125 1053 94 1051 115 1051 b 164 1086 149 1053 143 1049 b 182 1115 174 1103 182 1115 b 224 1057 183 1115 224 1058 b 268 1054 224 1054 229 1054 b 311 1056 296 1054 310 1054 b 232 1200 313 1057 238 1197 z m 272 972 b 100 975 263 975 101 978 b 51 3 97 971 50 6 b 269 4 54 0 267 1 b 278 883 272 7 278 654 b 272 972 278 940 276 971 z "},"ï":{"ha":347,"x_min":0,"x_max":0,"o":"m 126 1094 b 189 1146 156 1085 189 1113 b 106 1143 189 1196 121 1193 b 126 1094 100 1122 110 1100 z m 296 1165 b 218 1149 279 1192 235 1182 b 238 1099 207 1125 217 1103 b 296 1165 275 1090 314 1136 z m 272 972 b 100 975 263 975 101 978 b 51 3 97 971 50 6 b 269 4 54 0 267 1 b 278 883 272 7 278 654 b 272 972 278 940 276 971 z "},"ñ":{"ha":822,"x_min":0,"x_max":0,"o":"m 228 1074 b 264 1067 229 1074 246 1071 b 304 1063 301 1058 304 1057 b 322 1088 304 1067 315 1082 b 407 1078 344 1103 369 1100 b 460 1056 421 1069 443 1060 b 575 1089 501 1044 547 1057 b 600 1169 588 1103 600 1142 b 558 1186 600 1185 601 1183 b 515 1189 539 1186 519 1188 b 501 1181 504 1190 501 1189 b 418 1154 501 1131 468 1121 b 260 1167 358 1196 300 1200 b 228 1074 232 1146 208 1074 z m 496 968 b 500 799 494 967 496 913 b 508 614 504 708 508 625 b 386 767 508 601 468 653 b 260 943 319 861 263 940 b 92 969 257 947 118 969 b 71 482 85 969 83 949 b 60 4 61 157 58 7 b 325 4 63 1 319 0 b 311 265 328 6 325 49 b 293 531 300 408 293 528 b 418 275 293 533 347 425 l 543 15 l 563 14 b 657 1 574 13 615 7 l 657 1 b 731 -8 697 -4 731 -8 b 751 482 742 -11 740 -28 b 761 968 757 750 761 968 b 496 968 758 971 499 971 z "},"ò":{"ha":817,"x_min":0,"x_max":0,"o":"m 374 1094 b 392 1063 383 1078 392 1063 b 439 1064 392 1061 415 1061 b 460 1067 453 1065 458 1067 b 360 1219 460 1068 435 1107 b 336 1226 357 1224 360 1222 b 294 1229 319 1229 296 1231 b 332 1165 294 1228 319 1188 b 374 1094 344 1143 364 1111 z m 761 635 b 181 864 679 944 381 1063 b 364 -3 -86 601 31 50 b 761 635 638 -46 851 296 z m 436 300 b 288 382 383 279 322 314 b 474 667 194 572 343 800 b 436 300 574 565 551 344 z "},"ó":{"ha":817,"x_min":0,"x_max":0,"o":"m 410 1063 b 429 1094 411 1063 419 1078 b 469 1165 439 1111 457 1143 b 507 1229 482 1188 507 1228 b 467 1226 507 1231 482 1229 b 442 1219 442 1222 444 1224 b 343 1067 368 1107 342 1068 b 364 1064 343 1067 350 1065 b 410 1063 386 1061 410 1061 z m 761 635 b 181 864 679 944 381 1063 b 364 -3 -86 601 31 50 b 761 635 638 -46 851 296 z m 436 300 b 288 382 383 279 322 314 b 474 667 194 572 343 800 b 436 300 574 565 551 344 z "},"ô":{"ha":817,"x_min":0,"x_max":0,"o":"m 329 1051 b 374 1053 343 1051 364 1051 b 414 1086 397 1053 392 1049 b 432 1115 422 1103 431 1115 b 472 1057 432 1115 472 1058 b 517 1054 472 1054 478 1054 b 560 1056 544 1054 558 1054 b 482 1200 561 1057 486 1197 b 397 1197 478 1201 401 1200 b 367 1153 396 1197 382 1178 b 318 1082 350 1129 329 1097 b 300 1053 303 1060 300 1054 b 329 1051 301 1051 303 1051 z m 761 635 b 181 864 679 944 381 1063 b 364 -3 -86 601 31 50 b 761 635 638 -46 851 296 z m 436 300 b 288 382 383 279 322 314 b 474 667 194 572 343 800 b 436 300 574 565 551 344 z "},"õ":{"ha":817,"x_min":0,"x_max":0,"o":"m 286 1074 b 322 1067 289 1074 304 1071 b 363 1063 360 1058 363 1057 b 381 1088 363 1067 374 1082 b 465 1078 403 1103 428 1100 b 518 1056 479 1069 501 1060 b 633 1089 560 1044 606 1057 b 658 1169 647 1103 658 1142 b 617 1186 658 1185 660 1183 b 574 1189 599 1186 579 1188 b 561 1181 563 1190 561 1189 b 476 1154 561 1131 526 1121 b 318 1167 417 1196 358 1200 b 286 1074 290 1146 267 1074 z m 761 635 b 181 864 679 944 381 1063 b 364 -3 -86 601 31 50 b 761 635 638 -46 851 296 z m 436 300 b 288 382 383 279 322 314 b 474 667 194 572 343 800 b 436 300 574 565 551 344 z "},"ö":{"ha":817,"x_min":0,"x_max":0,"o":"m 332 1094 b 396 1146 361 1085 396 1113 b 311 1143 396 1196 326 1193 b 332 1094 306 1122 315 1100 z m 444 1099 b 501 1165 481 1090 519 1136 b 425 1149 486 1192 440 1182 b 444 1099 413 1125 422 1103 z m 761 635 b 181 864 679 944 381 1063 b 364 -3 -86 601 31 50 b 761 635 638 -46 851 296 z m 436 300 b 288 382 383 279 322 314 b 474 667 194 572 343 800 b 436 300 574 565 551 344 z "},"÷":{"ha":544,"x_min":0,"x_max":0,"o":"m 285 579 b 492 583 397 581 490 583 b 486 707 496 586 490 693 b 57 690 482 718 67 701 b 53 576 51 683 47 582 b 285 579 54 575 36 575 z m 57 500 b 53 386 51 493 47 392 b 285 389 54 385 36 385 b 492 393 397 390 490 393 b 486 517 496 396 490 503 b 57 500 482 528 67 511 z "},"ø":{"ha":819,"x_min":0,"x_max":0,"o":"m 764 635 b 638 861 739 729 693 806 b 711 1051 676 963 711 1050 b 632 1040 708 1060 701 1058 b 528 994 525 1013 538 1018 b 506 944 519 978 513 961 b 183 864 399 982 279 960 b 151 129 -14 671 -1 321 b 90 -21 107 25 89 -19 b 182 -40 92 -24 119 -29 b 288 -51 283 -58 285 -58 b 313 11 288 -50 297 -26 b 367 -3 329 6 347 0 b 764 635 640 -46 854 296 z m 276 418 b 401 707 228 563 306 714 b 276 418 354 596 311 500 z m 439 300 b 419 294 432 297 426 296 b 528 578 454 385 493 489 b 439 300 560 469 526 333 z "},"ù":{"ha":921,"x_min":0,"x_max":0,"o":"m 435 1094 b 453 1063 444 1078 453 1063 b 500 1064 454 1061 476 1061 b 521 1067 514 1065 521 1067 b 421 1219 521 1068 496 1107 b 397 1226 418 1224 422 1222 b 357 1229 381 1229 357 1231 b 394 1165 357 1228 382 1188 b 435 1094 406 1143 425 1111 z m 882 938 b 850 969 878 969 879 968 b 706 975 836 969 771 972 b 583 975 593 981 581 981 b 542 539 614 926 588 654 b 319 921 406 197 217 524 b 326 957 325 939 328 956 b 75 975 325 960 92 976 b 58 932 68 974 63 960 b 385 14 -15 486 132 71 b 882 938 675 -51 935 432 z "},"ú":{"ha":921,"x_min":0,"x_max":0,"o":"m 439 1063 b 457 1094 439 1063 447 1078 b 499 1165 468 1111 486 1143 b 536 1229 511 1188 536 1228 b 494 1226 535 1231 511 1229 b 471 1219 471 1222 474 1224 b 371 1067 396 1107 371 1068 b 392 1064 372 1067 378 1065 b 439 1063 415 1061 439 1061 z m 882 938 b 850 969 878 969 879 968 b 706 975 836 969 771 972 b 583 975 593 981 581 981 b 542 539 614 926 588 654 b 319 921 406 197 217 524 b 326 957 325 939 328 956 b 75 975 325 960 92 976 b 58 932 68 974 63 960 b 385 14 -15 486 132 71 b 882 938 675 -51 935 432 z "},"û":{"ha":921,"x_min":0,"x_max":0,"o":"m 347 1051 b 393 1053 363 1051 383 1051 b 432 1086 415 1053 411 1049 b 450 1115 442 1103 450 1115 b 492 1057 451 1115 492 1058 b 536 1054 492 1054 497 1054 b 578 1056 563 1054 578 1054 b 500 1200 581 1057 504 1197 b 415 1197 497 1201 419 1200 b 385 1153 415 1197 401 1178 b 338 1082 369 1129 347 1097 b 319 1053 322 1060 318 1054 b 347 1051 321 1051 322 1051 z m 882 938 b 850 969 878 969 879 968 b 706 975 836 969 771 972 b 583 975 593 981 581 981 b 542 539 614 926 588 654 b 319 921 406 197 217 524 b 326 957 325 939 328 956 b 75 975 325 960 92 976 b 58 932 68 974 63 960 b 385 14 -15 486 132 71 b 882 938 675 -51 935 432 z "},"ü":{"ha":921,"x_min":0,"x_max":0,"o":"m 388 1094 b 451 1146 418 1085 451 1113 b 367 1143 451 1196 382 1193 b 388 1094 361 1122 371 1100 z m 500 1099 b 557 1165 536 1090 575 1136 b 481 1149 542 1192 497 1182 b 500 1099 469 1125 478 1103 z m 882 938 b 850 969 878 969 879 968 b 706 975 836 969 771 972 b 583 975 593 981 581 981 b 542 539 614 926 588 654 b 319 921 406 197 217 524 b 326 957 325 939 328 956 b 75 975 325 960 92 976 b 58 932 68 974 63 960 b 385 14 -15 486 132 71 b 882 938 675 -51 935 432 z "},"ý":{"ha":714,"x_min":0,"x_max":0,"o":"m 397 1063 b 415 1094 397 1063 406 1078 b 456 1165 425 1111 443 1143 b 493 1229 468 1188 493 1228 b 453 1226 493 1231 468 1229 b 429 1219 428 1222 432 1224 b 329 1067 354 1107 329 1068 b 350 1064 329 1067 336 1065 b 397 1063 374 1061 396 1061 z m 713 976 b 476 944 710 978 496 949 b 401 797 465 943 474 957 b 339 658 369 725 340 663 b 307 806 336 653 332 672 b 278 960 292 889 278 958 b 86 963 276 960 193 961 b 24 957 44 963 24 961 b 54 819 24 954 38 892 b 178 304 140 467 178 308 b 113 156 178 301 149 235 b 50 0 51 21 46 6 b 88 0 51 0 68 0 b 224 4 107 1 168 3 b 328 11 310 7 324 8 b 454 319 329 14 388 153 b 696 914 638 774 674 863 b 713 976 714 961 718 972 z "},"ÿ":{"ha":714,"x_min":0,"x_max":0,"o":"m 293 1094 b 357 1146 322 1085 357 1113 b 272 1143 357 1196 288 1193 b 293 1094 267 1122 276 1100 z m 406 1099 b 463 1165 442 1090 481 1136 b 386 1149 447 1192 403 1182 b 406 1099 375 1125 383 1103 z m 713 976 b 476 944 710 978 496 949 b 401 797 465 943 474 957 b 339 658 369 725 340 663 b 307 806 336 653 332 672 b 278 960 292 889 278 958 b 86 963 276 960 193 961 b 24 957 44 963 24 961 b 54 819 24 954 38 892 b 178 304 140 467 178 308 b 113 156 178 301 149 235 b 50 0 51 21 46 6 b 88 0 51 0 68 0 b 224 4 107 1 168 3 b 328 11 310 7 324 8 b 454 319 329 14 388 153 b 696 914 638 774 674 863 b 713 976 714 961 718 972 z "},"Œ":{"ha":1271,"x_min":0,"x_max":0,"o":"m 1244 160 b 1071 185 1243 161 1165 172 l 900 208 l 899 224 b 897 282 897 232 897 258 l 897 325 l 1014 344 b 1140 429 1156 368 1140 357 b 1142 508 1140 461 1140 497 b 1010 547 1143 535 1156 531 l 889 561 l 889 615 b 893 674 889 665 889 671 b 1043 725 896 675 964 699 b 1196 779 1124 753 1192 778 b 1203 824 1201 782 1203 796 b 1204 908 1203 846 1204 885 b 1190 961 1207 956 1204 965 b 908 917 1186 961 1060 940 b 632 872 757 893 632 874 b 631 863 632 872 632 869 b 179 864 503 988 318 1001 b 363 -3 -87 601 29 50 b 626 85 463 -18 554 17 b 633 26 625 31 626 29 b 926 3 640 22 692 18 b 1214 -15 1083 -7 1213 -15 b 1235 -1 1219 -17 1233 -7 b 1244 160 1238 11 1246 158 z m 435 300 b 286 382 382 279 321 314 b 472 667 193 572 342 800 b 435 300 572 565 550 344 z "},"œ":{"ha":1272,"x_min":0,"x_max":0,"o":"m 1246 160 b 1072 185 1244 161 1167 172 l 901 208 l 900 224 b 899 282 899 232 899 258 l 899 325 l 1015 344 b 1142 429 1157 368 1142 357 b 1143 508 1142 461 1142 497 b 1011 547 1144 535 1157 531 l 890 561 l 890 615 b 894 674 890 665 890 671 b 1044 725 897 675 965 699 b 1197 779 1125 753 1193 778 b 1204 824 1203 782 1204 796 b 1206 908 1204 846 1206 885 b 1192 961 1208 956 1206 965 b 910 917 1188 961 1061 940 b 633 872 758 893 633 874 b 632 863 633 872 633 869 b 181 864 504 988 319 1001 b 364 -3 -86 601 31 50 b 628 85 464 -18 556 17 b 635 26 626 31 628 29 b 928 3 642 22 693 18 b 1215 -15 1085 -7 1214 -15 b 1236 -1 1221 -17 1235 -7 b 1246 160 1239 11 1247 158 z m 436 300 b 288 382 383 279 322 314 b 474 667 194 572 343 800 b 436 300 574 565 551 344 z "},"Š":{"ha":761,"x_min":0,"x_max":0,"o":"m 349 1099 b 381 1054 365 1075 379 1056 b 464 1051 383 1053 461 1050 b 543 1197 469 1056 544 1194 b 500 1199 542 1199 528 1199 b 456 1194 461 1197 456 1197 b 414 1136 456 1194 415 1136 b 396 1167 414 1136 406 1150 b 357 1200 375 1204 379 1200 b 311 1200 347 1200 326 1200 b 283 1200 286 1201 285 1201 b 301 1169 282 1199 286 1192 b 349 1099 311 1154 333 1122 z m 574 526 b 447 654 472 583 447 608 b 636 771 447 722 525 771 b 674 772 656 771 672 771 b 693 971 675 776 694 967 b 418 964 688 985 503 981 b 275 349 -25 879 -112 501 b 358 274 349 319 369 301 b 124 215 339 224 218 193 b 97 218 108 218 97 219 b 78 7 93 215 75 10 b 169 -8 81 4 136 -6 b 574 526 646 -44 928 328 z "},"š":{"ha":764,"x_min":0,"x_max":0,"o":"m 350 1099 b 382 1054 367 1075 381 1056 b 465 1051 385 1053 463 1050 b 544 1197 471 1056 546 1194 b 501 1199 543 1199 529 1199 b 457 1194 463 1197 457 1197 b 415 1136 457 1194 417 1136 b 397 1167 415 1136 407 1150 b 358 1200 376 1204 381 1200 b 313 1200 349 1200 328 1200 b 285 1200 288 1201 286 1201 b 303 1169 283 1199 288 1192 b 350 1099 313 1154 335 1122 z m 575 526 b 449 654 474 583 449 608 b 638 771 449 722 526 771 b 675 772 657 771 674 771 b 694 971 676 776 696 967 b 419 964 689 985 504 981 b 276 349 -24 879 -111 501 b 360 274 350 319 371 301 b 125 215 340 224 219 193 b 99 218 110 218 99 219 b 79 7 94 215 76 10 b 171 -8 82 4 138 -6 b 575 526 647 -44 929 328 z "},"Ÿ":{"ha":711,"x_min":0,"x_max":0,"o":"m 292 1094 b 356 1146 321 1085 356 1113 b 271 1143 356 1196 286 1193 b 292 1094 265 1122 275 1100 z m 404 1099 b 461 1165 440 1090 479 1136 b 385 1149 446 1192 401 1182 b 404 1099 374 1125 382 1103 z m 711 976 b 475 944 708 978 494 949 b 400 797 464 943 472 957 b 338 658 368 725 339 663 b 306 806 335 653 331 672 b 276 960 290 889 276 958 b 85 963 275 960 192 961 b 22 957 43 963 22 961 b 53 819 22 954 36 892 b 176 304 139 467 176 308 b 111 156 176 301 147 235 b 49 0 50 21 44 6 b 86 0 50 0 67 0 b 222 4 106 1 167 3 b 326 11 308 7 322 8 b 453 319 328 14 386 153 b 694 914 636 774 672 863 b 711 976 713 961 717 972 z "},"ž":{"ha":769,"x_min":0,"x_max":0,"o":"m 375 1099 b 406 1054 392 1075 406 1056 b 490 1051 410 1053 488 1050 b 568 1197 494 1056 571 1194 b 526 1199 568 1199 553 1199 b 482 1194 488 1197 482 1197 b 440 1136 482 1194 442 1136 b 422 1167 440 1136 432 1150 b 383 1200 401 1204 406 1200 b 338 1200 374 1200 353 1200 b 310 1200 313 1201 311 1201 b 328 1169 308 1199 313 1192 b 375 1099 338 1154 360 1122 z m 749 968 b 440 975 750 974 647 976 b 126 964 111 975 119 975 b 154 863 128 963 140 918 b 185 760 168 808 182 763 b 299 757 188 757 203 756 b 408 756 360 757 408 757 b 375 694 408 754 394 728 b 321 600 357 663 333 619 b 279 525 310 579 290 546 b 199 383 267 504 231 440 b 68 154 167 326 108 222 b 0 13 -8 19 -7 21 b 276 4 4 8 96 6 b 619 3 425 4 579 3 b 696 7 668 1 694 4 b 749 210 700 14 749 200 b 582 226 749 219 754 219 b 410 233 493 229 415 232 b 574 597 403 233 458 354 b 749 968 674 803 749 964 z "},"–":{"ha":503,"x_min":0,"x_max":0,"o":"m 458 613 b 183 618 456 617 388 618 l 46 619 l 47 604 b 44 539 47 596 46 567 b 43 483 42 506 42 486 b 254 482 46 478 111 478 b 369 485 272 483 324 485 b 456 489 414 486 453 488 b 458 613 461 492 463 606 z "},"—":{"ha":765,"x_min":0,"x_max":0,"o":"m 719 613 b 54 617 715 615 67 619 b 50 607 49 615 49 614 b 47 560 50 601 49 581 b 56 475 39 472 39 478 b 81 475 61 475 72 475 b 267 479 89 476 172 478 b 479 482 360 481 456 482 b 615 485 501 483 564 485 b 717 489 668 486 714 488 b 719 613 724 492 725 607 z "},"€":{"ha":725,"x_min":0,"x_max":0,"o":"m 665 69 b 625 150 647 151 649 147 b 365 243 536 158 425 199 l 344 260 l 415 261 b 494 282 501 263 494 261 b 486 388 494 303 488 382 b 374 390 483 394 485 394 b 269 389 310 388 271 388 b 269 442 268 392 268 436 b 374 451 272 450 285 450 b 494 464 486 451 493 451 b 485 579 496 483 489 574 b 407 581 482 583 485 583 l 342 579 l 358 596 b 619 754 418 658 514 717 b 639 861 661 769 660 760 b 574 939 617 968 622 961 b 149 574 382 853 186 683 b 106 569 149 572 131 571 b 51 500 47 568 51 572 l 53 447 l 82 446 b 108 438 100 446 110 443 b 107 406 107 433 107 418 l 107 381 l 85 379 b 51 310 50 378 51 378 l 53 257 l 96 257 l 140 257 l 153 236 b 656 -8 235 99 413 13 b 669 -10 661 -10 668 -10 b 665 69 681 -11 681 -6 z "},"":{"ha":342,"x_min":0,"x_max":0,"o":"m 294 836 b 229 846 293 842 271 846 b 167 846 196 846 167 846 b 211 892 167 847 188 868 b 196 964 269 950 271 944 b 108 907 106 988 108 990 b 85 842 108 836 111 842 b 67 839 76 842 68 840 b 65 190 60 828 58 201 b 81 167 69 183 76 174 b 96 143 85 160 92 149 b 90 107 115 117 114 107 b 94 88 82 107 82 106 b 86 58 113 65 111 60 l 68 58 l 68 33 b 82 10 68 17 72 8 b 150 14 118 13 147 15 b 239 25 156 13 236 22 b 294 836 243 29 297 825 z m 94 242 b 85 242 90 238 90 238 b 88 256 79 246 81 254 b 94 242 96 257 100 247 z m 96 558 b 88 569 88 557 85 563 b 103 565 90 576 103 572 b 96 558 103 560 101 558 z m 167 954 b 201 944 169 954 185 950 b 232 936 218 940 232 938 b 200 904 232 936 218 921 b 167 874 182 886 167 872 b 167 954 161 882 161 956 z m 118 476 b 110 475 115 474 114 474 b 110 489 106 478 106 485 b 118 476 118 496 126 485 z m 138 33 b 131 44 131 32 128 38 b 143 40 132 51 143 49 b 138 33 143 36 142 35 z m 149 182 b 153 194 144 185 147 193 b 161 186 158 196 163 193 b 149 182 161 181 151 178 z m 157 696 b 150 694 153 700 151 699 b 135 699 147 685 135 688 b 128 700 135 704 133 704 b 118 715 117 693 111 700 b 118 725 121 724 121 725 b 118 739 113 728 113 738 b 129 738 121 740 125 740 b 138 742 136 736 136 736 b 151 744 139 747 151 751 b 158 743 151 743 154 743 b 168 732 165 743 171 736 b 171 726 168 731 168 728 b 169 714 176 721 176 718 b 167 707 167 713 165 710 b 157 696 171 700 164 692 z m 175 315 b 163 326 168 307 161 313 b 169 333 163 332 164 333 b 175 315 176 333 181 322 z m 201 435 b 185 438 196 426 185 428 b 199 442 185 444 193 447 b 201 435 203 439 203 438 z m 210 604 b 196 604 206 600 197 600 b 204 615 193 611 197 615 b 210 604 211 615 214 610 z "},"":{"ha":335,"x_min":0,"x_max":0,"o":"m 146 742 b 265 754 192 736 254 742 b 264 978 268 757 267 975 b 231 972 257 985 231 979 b 236 961 231 968 233 964 b 242 953 239 960 242 956 b 249 944 242 949 243 946 b 249 885 269 935 269 897 b 196 936 214 864 169 907 b 204 953 199 940 203 949 b 211 964 206 958 208 963 b 140 982 231 976 213 982 b 89 893 85 982 90 992 b 85 775 88 847 86 794 l 83 740 l 104 742 b 146 742 117 743 135 743 z m 196 722 b 185 710 189 722 186 719 b 182 681 183 703 182 689 b 186 658 179 665 181 664 b 193 649 190 656 193 650 b 199 642 193 646 196 643 b 181 576 226 622 214 576 b 151 633 153 576 135 610 b 157 647 154 638 157 644 b 161 658 157 651 160 656 b 165 675 164 661 165 668 b 168 701 165 682 167 693 b 103 726 172 722 147 732 b 75 558 81 724 83 738 b 67 376 72 469 68 388 b 76 360 67 363 69 357 b 163 374 96 368 113 371 b 256 386 207 375 231 378 b 267 613 264 388 265 414 l 267 735 l 253 731 b 196 722 235 724 207 719 z m 254 75 b 171 17 247 71 210 44 l 154 6 l 172 6 b 217 4 182 6 201 4 b 246 1 232 3 246 1 b 261 44 257 -4 261 10 b 254 75 261 68 260 78 z m 147 356 l 119 356 l 119 326 b 126 292 119 297 119 297 b 132 281 129 289 132 285 b 139 272 132 276 135 274 b 122 204 169 261 157 207 b 89 261 94 201 75 233 b 94 279 92 267 94 274 b 100 290 94 285 96 289 b 104 322 104 293 104 296 b 82 344 104 356 106 354 b 58 181 64 336 65 353 b 51 33 56 108 53 43 b 75 10 49 13 49 11 b 106 8 86 10 100 10 b 207 63 124 8 142 17 b 256 94 229 78 251 92 b 264 233 261 96 264 143 l 264 369 l 247 365 b 147 356 225 360 182 356 z "}}}
